<?xml version="1.0" encoding="utf-8"?>
<COLLADA xmlns="http://www.collada.org/2005/11/COLLADASchema" version="1.4.1" xmlns:xsi="http://www.w3.org/2001/XMLSchema-instance">
  <asset>
    <contributor>
      <author>Blender User</author>
      <authoring_tool>Blender 4.1.1 commit date:2024-04-15, commit time:15:11, hash:e1743a0317bc</authoring_tool>
    </contributor>
    <created>2024-12-23T22:45:46</created>
    <modified>2024-12-23T22:45:46</modified>
    <unit name="meter" meter="1"/>
    <up_axis>Z_UP</up_axis>
  </asset>
  <library_effects>
    <effect id="M_Florp_001-effect">
      <profile_COMMON>
        <newparam sid="mystery_florp_string_png-surface">
          <surface type="2D">
            <init_from>mystery_florp_string_png</init_from>
          </surface>
        </newparam>
        <newparam sid="mystery_florp_string_png-sampler">
          <sampler2D>
            <source>mystery_florp_string_png-surface</source>
          </sampler2D>
        </newparam>
        <technique sid="common">
          <lambert>
            <emission>
              <color sid="emission">0 0 0 1</color>
            </emission>
            <diffuse>
              <texture texture="mystery_florp_string_png-sampler" texcoord="UVMap"/>
            </diffuse>
            <reflectivity>
              <float sid="specular">1</float>
            </reflectivity>
            <index_of_refraction>
              <float sid="ior">1.5</float>
            </index_of_refraction>
          </lambert>
        </technique>
      </profile_COMMON>
    </effect>
    <effect id="M_Florp-effect">
      <profile_COMMON>
        <newparam sid="mystery_florp_png-surface">
          <surface type="2D">
            <init_from>mystery_florp_png</init_from>
          </surface>
        </newparam>
        <newparam sid="mystery_florp_png-sampler">
          <sampler2D>
            <source>mystery_florp_png-surface</source>
          </sampler2D>
        </newparam>
        <technique sid="common">
          <lambert>
            <emission>
              <color sid="emission">0 0 0 1</color>
            </emission>
            <diffuse>
              <texture texture="mystery_florp_png-sampler" texcoord="UVChannel_1"/>
            </diffuse>
            <reflectivity>
              <float sid="specular">1</float>
            </reflectivity>
            <index_of_refraction>
              <float sid="ior">1.5</float>
            </index_of_refraction>
          </lambert>
        </technique>
      </profile_COMMON>
    </effect>
  </library_effects>
  <library_images>
    <image id="mystery_florp_png" name="mystery_florp_png">
      <init_from>mystery%20florp.png</init_from>
    </image>
    <image id="mystery_florp_string_png" name="mystery_florp_string_png">
      <init_from>mystery%20florp%20string.png</init_from>
    </image>
  </library_images>
  <library_materials>
    <material id="M_Florp_001-material" name="M_Florp.001">
      <instance_effect url="#M_Florp_001-effect"/>
    </material>
    <material id="M_Florp-material" name="M_Florp">
      <instance_effect url="#M_Florp-effect"/>
    </material>
  </library_materials>
  <library_geometries>
    <geometry id="Icosphere-mesh" name="Icosphere">
      <mesh>
        <source id="Icosphere-mesh-positions">
          <float_array id="Icosphere-mesh-positions-array" count="36">0 0 -1 0.7236 -0.52572 -0.447215 -0.276385 -0.85064 -0.447215 -0.894425 0 -0.447215 -0.276385 0.85064 -0.447215 0.7236 0.52572 -0.447215 0.276385 -0.85064 0.447215 -0.7236 -0.52572 0.447215 -0.7236 0.52572 0.447215 0.276385 0.85064 0.447215 0.894425 0 0.447215 0 0 1</float_array>
          <technique_common>
            <accessor source="#Icosphere-mesh-positions-array" count="12" stride="3">
              <param name="X" type="float"/>
              <param name="Y" type="float"/>
              <param name="Z" type="float"/>
            </accessor>
          </technique_common>
        </source>
        <source id="Icosphere-mesh-normals">
          <float_array id="Icosphere-mesh-normals-array" count="60">0.1875965 -0.5773537 -0.7946511 0.6070647 0 -0.7946524 -0.4911221 -0.3568291 -0.7946522 -0.4911221 0.3568291 -0.7946522 0.1875965 0.5773537 -0.7946511 0.9822461 0 -0.1875967 0.3035355 -0.9341716 -0.1875891 -0.7946492 -0.5773594 -0.1875869 -0.7946492 0.5773594 -0.1875869 0.3035355 0.9341716 -0.1875891 0.7946492 -0.5773594 0.1875869 -0.3035355 -0.9341716 0.1875891 -0.9822461 0 0.1875967 -0.3035355 0.9341716 0.1875891 0.7946492 0.5773594 0.1875869 0.4911221 -0.3568291 0.7946522 -0.1875965 -0.5773537 0.7946511 -0.6070647 0 0.7946524 -0.1875965 0.5773537 0.7946511 0.4911221 0.3568291 0.7946522</float_array>
          <technique_common>
            <accessor source="#Icosphere-mesh-normals-array" count="20" stride="3">
              <param name="X" type="float"/>
              <param name="Y" type="float"/>
              <param name="Z" type="float"/>
            </accessor>
          </technique_common>
        </source>
        <source id="Icosphere-mesh-map-0">
          <float_array id="Icosphere-mesh-map-0-array" count="120">0.07459944 0.6770996 0.169076 0.6225542 0.169076 0.731645 0.169076 0.6225542 0.0745995 0.5680088 0.169076 0.5134634 0.0745995 0.2407364 0.1690761 0.186191 0.1690761 0.2952818 0.0745995 0.3498272 0.1690761 0.2952818 0.1690761 0.4043726 0.0745995 0.458918 0.1690761 0.4043726 0.169076 0.5134634 0.169076 0.6225542 0.169076 0.5134634 0.2635521 0.5680088 0.169076 0.731645 0.169076 0.6225542 0.2635521 0.6770996 0.1690761 0.2952818 0.1690761 0.186191 0.2635521 0.2407364 0.1690761 0.4043726 0.1690761 0.2952818 0.2635521 0.3498272 0.169076 0.5134634 0.1690761 0.4043726 0.2635521 0.458918 0.169076 0.6225542 0.2635521 0.5680088 0.2635521 0.6770996 0.169076 0.731645 0.2635521 0.6770996 0.2635521 0.786191 0.1690761 0.2952818 0.2635521 0.2407364 0.2635521 0.3498272 0.1690761 0.4043726 0.2635521 0.3498272 0.2635521 0.458918 0.169076 0.5134634 0.2635521 0.458918 0.2635521 0.5680088 0.2635521 0.6770996 0.2635521 0.5680088 0.3580287 0.6225543 0.2635521 0.786191 0.2635521 0.6770996 0.3580287 0.7316451 0.2635521 0.3498272 0.2635521 0.2407364 0.3580287 0.2952818 0.2635521 0.458918 0.2635521 0.3498272 0.3580287 0.4043726 0.2635521 0.5680088 0.2635521 0.458918 0.3580287 0.5134634</float_array>
          <technique_common>
            <accessor source="#Icosphere-mesh-map-0-array" count="60" stride="2">
              <param name="S" type="float"/>
              <param name="T" type="float"/>
            </accessor>
          </technique_common>
        </source>
        <vertices id="Icosphere-mesh-vertices">
          <input semantic="POSITION" source="#Icosphere-mesh-positions"/>
        </vertices>
        <triangles material="M_Florp_001-material" count="20">
          <input semantic="VERTEX" source="#Icosphere-mesh-vertices" offset="0"/>
          <input semantic="NORMAL" source="#Icosphere-mesh-normals" offset="1"/>
          <input semantic="TEXCOORD" source="#Icosphere-mesh-map-0" offset="2" set="0"/>
          <p>0 0 0 1 0 1 2 0 2 1 1 3 0 1 4 5 1 5 0 2 6 2 2 7 3 2 8 0 3 9 3 3 10 4 3 11 0 4 12 4 4 13 5 4 14 1 5 15 5 5 16 10 5 17 2 6 18 1 6 19 6 6 20 3 7 21 2 7 22 7 7 23 4 8 24 3 8 25 8 8 26 5 9 27 4 9 28 9 9 29 1 10 30 10 10 31 6 10 32 2 11 33 6 11 34 7 11 35 3 12 36 7 12 37 8 12 38 4 13 39 8 13 40 9 13 41 5 14 42 9 14 43 10 14 44 6 15 45 10 15 46 11 15 47 7 16 48 6 16 49 11 16 50 8 17 51 7 17 52 11 17 53 9 18 54 8 18 55 11 18 56 10 19 57 9 19 58 11 19 59</p>
        </triangles>
      </mesh>
    </geometry>
    <geometry id="Mesh-mesh" name="Mesh">
      <mesh>
        <source id="Mesh-mesh-positions">
          <float_array id="Mesh-mesh-positions-array" count="999">69.42271 -10.79779 -8.03966 -22.00984 1.339668 45.07921 -2.443736 74.26345 -22.53587 -78.67028 8.593736 -24.9378 76.5522 43.65429 -18.54157 -56.5774 -41.49618 -24.03058 7.779478 -65.36247 -14.12987 19.13562 2.514315 45.45966 58.86832 -19.75013 -27.31726 0.3664274 -37.38743 26.04052 -22.2836 42.84702 24.86086 -61.12257 -36.20443 -3.856392 75.03648 -34.6477 -7.4815 -47.41005 6.529232 16.80974 59.25815 39.79478 2.190576 -53.43317 -46.87206 -3.679262 74.11804 26.32878 -26.84432 73.41911 -35.78913 -19.29234 -45.11513 -18.27082 -31.26663 5.758985 -54.56238 -30.8564 -0.871539 71.84489 -3.715308 -19.51675 -30.14383 29.56876 -50.96492 38.57683 -20.76347 -68.40357 32.00755 -25.60112 13.21647 -58.07565 -3.100367 -65.57491 6.225681 -20.34594 12.02574 36.34389 40.84339 68.01241 9.814059 -11.67887 34.88767 54.99562 -4.864141 -42.16218 -47.36069 -30.48392 -40.85181 23.72522 21.08309 51.67623 -45.4766 -20.79879 12.25257 -26.80324 32.09384 79.94729 26.74788 -17.85583 -1.574434 75.30015 -13.33657 -47.62381 23.4545 -29.91562 -58.03567 -30.95632 -28.14976 -17.82045 -59.97341 -25.24831 -57.28112 -1.22624 5.341815 76.40797 -22.63929 -7.558181 -3.245327 -55.72274 8.961651 42.21177 49.6738 7.534916 -37.72434 46.48655 -5.144443 60.5537 5.045372 -24.7403 30.05198 -5.783119 32.41721 10.59635 66.64405 -24.5701 31.45902 -51.24172 -1.574391 37.30922 -25.04424 -32.72292 -70.40808 29.65727 -18.26983 71.46956 20.96207 -16.98839 28.18442 46.30239 26.41117 65.25894 19.65737 -27.06756 -50.45922 25.02028 6.03714 -13.07524 58.30125 10.11653 -50.64117 -51.31601 -13.62961 -34.96911 -55.1525 -10.87567 35.29332 -43.92285 -29.98099 -72.5699 23.51492 -26.28683 -20.199 -35.30273 -34.09162 -1.587019 4.077975 -32.52766 45.05424 -44.66436 -6.539545 -78.03918 15.77276 -19.14239 64.61685 12.81439 1.134253 19.2344 20.56153 42.30068 24.9395 -60.14218 -20.13935 -46.74522 -23.07881 11.21357 58.63224 -37.68441 -25.77229 52.17554 -1.947108 13.03904 20.17512 59.01185 10.25194 12.1674 -38.75318 18.56838 10.20697 -54.62823 4.348984 2.334867 49.21979 28.62627 -35.3064 43.67505 -23.6828 58.9638 24.59514 -32.71506 63.35142 -34.94931 -3.454354 -23.83495 14.56473 39.49451 -64.96699 2.275644 -9.86487 -57.04055 6.037859 -28.41835 66.1432 44.68032 -25.33932 -28.78433 -28.89891 20.04709 -73.40184 14.65697 -27.39658 -65.81558 -19.12343 -14.01524 9.82442 -35.01059 -32.71846 79.35529 35.33409 -23.42266 16.34906 7.355654 45.89272 -15.67664 33.99731 38.29073 -53.61983 13.48715 10.33474 -22.74771 61.37236 -11.97628 75.85683 -24.76563 -16.03156 -45.9228 -8.21844 16.87255 1.818198 -65.29956 -23.59075 24.2362 57.34574 -23.71585 -29.58405 -49.62568 -30.74594 -61.16004 -37.27108 -14.32537 -9.160721 -12.94712 41.91606 4.214671 -61.90415 -6.698149 45.42626 37.57509 16.15608 66.08842 -44.24677 -18.49759 40.7838 -6.671164 23.36801 67.26539 -15.89647 -18.56296 -25.66423 54.0185 -19.37409 20.89938 -6.79038 39.8201 -59.93357 31.47063 -28.71061 75.21337 31.69611 -9.490505 -14.01726 67.43401 -22.57444 13.06791 66.48719 -12.53225 -12.42183 -58.28649 -2.109286 -61.50497 -8.639923 -23.05499 -40.71902 -42.92154 4.606897 -0.002270162 56.23652 -29.8956 -2.310529 24.44741 43.96586 69.92254 41.89489 -9.485049 -49.6154 -47.71554 -22.29886 52.24374 -46.91078 -11.67901 -58.57703 -20.66711 -29.19539 -13.10073 -62.42181 -17.96125 66.79112 35.90893 -29.7772 43.70697 16.16444 23.68477 71.67047 19.95689 -8.211902 29.13968 -58.49171 -13.09955 -6.541351 7.531271 45.78226 -21.67731 -9.251318 37.37714 -28.11683 4.062122 34.96742 -35.46485 41.18154 12.91562 4.365522 -54.9072 10.31141 74.07609 -26.76172 -2.364298 33.62018 32.60131 32.22669 4.095686 64.95552 8.445855 41.22929 50.18547 -19.67733 -33.81981 -3.073427 24.97254 -64.08862 23.92414 -6.655617 -20.62432 44.09806 -30.66978 36.11996 -53.04481 -24.81192 -62.55283 -18.42261 -4.410223 72.37602 -42.906 -12.47289 33.90791 38.54211 -29.51251 -55.69785 -31.52971 3.653119 -49.28352 -42.21732 -29.68464 8.739537 -8.774608 42.16106 -74.73664 6.634745 -21.87047 -12.89814 68.89894 -7.127697 -70.58784 10.70909 -14.03636 23.15516 -44.27051 6.581763 60.47507 -22.20183 -0.0985341 41.26147 3.604786 -32.5384 -4.361442 -64.8424 -15.57176 -8.070146 74.84422 -16.82192 -38.15521 11.09808 25.87964 49.80654 50.02495 -5.602835 -38.77793 -39.86027 -32.66725 21.06631 -60.80171 -9.325773 41.15464 -25.97699 10.86838 2.32638 -59.47681 0.8363001 -55.84933 38.9221 -11.89287 -62.43307 -24.63705 -21.79033 -68.16455 9.520058 -27.58586 62.72731 47.92823 -13.01036 46.87538 -38.74105 -0.3172815 -38.10104 -54.34159 -21.21668 23.46002 -30.97373 18.33452 27.66901 -20.94902 25.74561 20.75908 -21.09988 33.68027 27.54613 6.150145 39.70696 24.35183 5.101041 44.75392 -12.5257 -40.06022 20.33992 -11.0471 -31.41227 32.70745 -15.45652 -22.79804 35.9967 -22.51749 -19.29392 30.57544 19.01331 -29.16624 27.07541 -9.177878 -63.50835 -16.88867 -9.180096 -62.31674 -24.51904 -9.175147 -60.92718 -7.531906 -9.178616 -63.17835 -19.44122 -9.173826 -58.99278 -3.005187 -9.180911 -57.9908 -27.30312 -9.168211 -45.72667 16.22344 -9.173371 -59.13752 -1.460487 -9.181937 -52.47544 -30.8097 -9.163722 -32.39825 31.60732 -9.172423 -57.37866 1.810945 -9.166585 -39.36381 21.82524 -9.174118 -59.42408 -4.041806 9.196903 -61.57822 -7.475012 9.405652 -54.38011 -30.13039 9.171471 -59.79601 -4.717048 9.39364 -55.61974 -28.82555 9.077315 -54.68218 5.502036 9.092528 -55.69195 3.852233 9.143021 -59.59974 -1.627852 9.335064 -63.62286 -22.46868 9.257567 -64.88703 -14.05857 8.987936 -45.33636 15.20345 9.262997 -64.91117 -14.6494 8.938076 -38.37945 20.61313 8.848277 -29.83464 30.36012 9.253327 -64.85657 -13.59697 -9.080924 8.564138 44.8589 -9.088544 6.511701 45.6665 -9.004284 29.23 41.12376 -8.98449 34.56418 38.90739 -9.033473 21.36065 42.56928 8.963727 22.41396 43.09449 9.062066 36.09284 40.5703 8.855906 7.413141 45.85657 8.912911 15.34377 43.69483 9.0461 33.87133 41.49237 9.287464 68.3824 -14.9703 9.347603 51.35773 -29.78997 9.190104 63.07239 9.018074 9.112889 48.45482 28.04545 9.13897 52.95439 21.61847 9.241255 65.83393 -3.585092 9.278414 68.76802 -12.74041 9.32901 65.39956 -25.2069 9.267811 67.94778 -10.12863 9.076048 40.26304 37.12476 9.32563 67.38653 -24.37187 -8.985205 39.65259 34.70029 -8.993916 73.69319 -17.71546 -8.988471 55.89284 15.02532 -8.991967 69.85577 -6.019371 -8.995166 63.42153 -25.19789 -8.995997 50.94267 -30.23324 -8.986514 46.28912 26.89465 -8.993459 73.70724 -14.96798 -8.99251 71.10677 -9.269185 -8.994728 70.39776 -22.55771 -8.990056 62.83498 5.486326 -8.989353 59.88466 9.718986 -9.087174 0.2271444 -32.31037 -9.052038 19.77089 -31.79913 -9.150862 -35.19523 -33.58632 -9.108872 -11.83736 -33.15972 -9.074596 7.229437 -32.10282 -9.165769 -43.48889 -32.71651 9.405031 -53.24892 -30.74833 9.395026 -35.01477 -32.73809 9.39421 -33.53696 -32.71126 9.373642 3.956933 -32.53041 9.396147 -37.07027 -32.5223 9.378067 -4.131753 -32.5827 9.367728 14.71459 -31.5971 -76.61904 16.60256 -17.87125 -28.1844 16.90612 34.78861 -22.84094 16.93239 39.34784 -49.50691 16.78511 13.79707 -39.3819 16.84219 23.69768 -18.66285 16.93944 40.56893 -62.12975 16.6871 -3.203349 -52.61163 16.73912 5.817755 -67.871 16.54454 -27.93705 -64.38331 16.661 -7.732331 -9.049807 16.95551 43.35747 -73.22414 16.54902 -27.15954 -52.72343 16.75812 9.115877 -43.4864 16.81722 19.36639 -77.46123 16.59088 -19.89735 -77.58699 16.59552 -19.09068 -67.66914 16.64378 -10.72177 -32.82401 -1.827477 26.71776 -53.11335 -1.967312 -29.35633 -56.96575 -1.880349 5.517573 -56.22222 -1.8781 6.416788 -64.4781 -1.915951 -8.760251 -57.24692 -1.88087 5.305335 -57.48207 -1.881703 4.970102 -34.19971 -1.831623 25.05203 -19.20104 -1.783401 44.38776 -21.91166 -1.78735 42.80515 -35.57327 -1.83446 23.91935 -63.33695 -1.948554 -21.83558 -46.56483 -1.852095 16.84544 -63.63267 -1.931377 -14.94854 -65.13339 -1.920732 -10.67876 -25.27935 -1.804256 36.02923 -59.47249 -1.957695 -25.49672 59.64027 16.27718 -29.32199 11.08192 16.379 -31.45148 -47.20575 16.5012 -30.14076 -7.457024 16.41786 -31.95479 -9.058063 16.42123 -31.88025 -31.02282 16.46727 -30.85753 -1.21249 16.40476 -31.90562 38.58491 16.32132 -31.43703 -57.84078 16.5235 -28.7568 51.96238 16.29328 -32.64519 9.366811 16.38259 -31.51484 -51.37855 16.50996 -29.31861 63.95675 -1.033691 -18.33222 9.376611 -1.468965 -32.56549 -12.73409 -1.645305 -32.20472 0.0540477 -1.543309 -32.55509 62.5057 -1.045273 -22.9437 -4.259996 -1.577724 -32.75226 40.59587 -1.219997 -32.56948 5.859063 -1.49702 -32.56504 -9.090489 -1.616235 -32.44015 60.13843 -1.064137 -25.37525 44.87307 -1.185886 -31.46742 -46.09872 -1.911386 -30.73694 15.78491 -1.124157 44.39651 67.43952 -1.054002 -4.253957 41.49774 -1.093946 23.44537 19.825 -1.122509 43.25539 62.97564 -1.061054 0.6457517 32.96303 -1.104207 30.55558 52.9081 -1.077927 12.33806 29.07089 -1.110994 35.2713 22.54539 -1.120954 42.17238 51.76994 -1.079667 13.54891 23.81319 -1.117492 39.7705 68.75547 -1.046056 -9.761417 64.17149 16.28033 -26.5297 66.57818 16.30925 -0.8323085 70.0218 16.29358 -14.7649 68.06533 16.30633 -3.435042 43.82032 16.33667 23.52811 63.92224 16.31163 1.271175 43.72082 16.33679 23.62417 21.65938 16.35696 41.54396 43.60109 16.33697 23.77443 18.31622 16.3591 43.44376 42.74272 16.33769 24.41826 68.26438 16.2885 -19.26455 70.35142 16.29954 -9.462039 -4.210673 16.85004 44.78165 11.227 16.5136 43.38226 8.921681 16.56384 43.59123 -7.705073 -1.566779 44.0646 12.31785 -1.18949 43.91585 8.793587 -1.255896 43.87751 -9.118608 -1.593418 44.10433 1.816654 -1.387362 43.80162</float_array>
          <technique_common>
            <accessor source="#Mesh-mesh-positions-array" count="333" stride="3">
              <param name="X" type="float"/>
              <param name="Y" type="float"/>
              <param name="Z" type="float"/>
            </accessor>
          </technique_common>
        </source>
        <source id="Mesh-mesh-normals">
          <float_array id="Mesh-mesh-normals-array" count="999">0.3448135 0.1699745 0.9231535 0.5914141 0.2648285 0.76164 0.1374846 0.4629169 0.8756747 -0.6494075 0.6234779 0.4353681 -0.6159058 0.7720927 0.1566307 -0.7253819 0.4476644 0.5228937 -0.2951902 -0.8582016 0.4199439 -0.1144655 -0.9761778 0.1843221 -0.1721061 -0.9668579 0.1885877 0.7059715 0.02461957 0.7078122 0.6799246 0.1066393 0.7254865 0.7100557 0.1570659 0.6864046 0.08054876 0.2793315 -0.9568103 -0.04449713 0.07690113 -0.9960454 0.0188443 0.06786137 -0.9975168 -0.8117241 -0.02118492 0.5836567 -0.9209685 -0.004744529 0.3896082 -0.8565977 -0.02953469 0.5151391 0.0165264 -0.8794871 -0.4756358 -0.07646739 -0.5372923 -0.8399225 0.08059787 -0.3997509 -0.9130735 0.5049878 -0.4683716 0.7249934 0.5620577 -0.5731161 0.5963466 0.4373877 -0.1632129 0.8843379 0.4059616 -0.6480897 0.6443408 0.3610914 -0.6101628 0.7052052 0.4979422 -0.6470121 0.577433 0.09636169 0.1103729 0.9892079 0.04480034 0.1742135 0.9836884 0.817007 -0.5620761 -0.1287248 0.9061544 -0.3745657 -0.1964304 0.8355892 -0.3797003 -0.3970118 0.2587769 -0.8338844 -0.4875155 0.1026577 -0.3698207 0.9234144 -0.0865423 -0.3696511 0.9251317 0.1145967 -0.6594309 0.7429795 -0.543675 -0.2624798 0.7971963 -0.2987251 -0.6193619 0.7260539 -0.5262126 -0.4789281 0.7026579 -0.702531 0.7088444 -0.06316643 -0.5196161 0.8045749 0.2875037 -0.5410306 0.6084802 -0.5805496 -0.06550586 0.7499764 0.6582131 0.1402667 0.7743011 0.6170763 0.1766629 0.7870976 0.5909887 -0.01924669 0.03722727 -0.9991215 -0.04644733 0.02426528 -0.998626 -0.04530692 0.02697139 -0.998609 -0.688104 0.3037794 0.658962 -0.7911147 -2.26554e-4 -0.6116678 -0.5389335 0.08036029 -0.8385064 -0.9157195 -0.137316 -0.377627 -0.1777416 -0.9734627 0.1441475 -0.2393388 -0.9602898 -0.1433891 0.9349719 0.3004409 0.1885812 0.7782912 0.3069086 -0.5477864 0.9497144 0.2157008 0.2269709 0.4015237 -0.6783673 0.6153021 0.424874 -0.8780434 0.220277 0.3079997 -0.8906148 0.3345766 -0.8029177 -0.2945621 0.5182243 -0.6489314 -0.236745 0.7230767 -0.639773 -0.3810479 0.6674528 -0.3692626 0.4661876 0.8039368 -0.6625216 0.2127522 0.7181934 -0.4584003 0.2453634 0.854205 0.2583996 0.8373944 -0.4816643 0.3051705 0.9395186 0.1554853 0.2296883 0.7464385 -0.6245582 0.8102918 -0.0466417 0.5841677 0.7559833 -0.05733984 0.6520748 0.03697109 0.04924339 -0.9981024 0.1047523 0.1795734 -0.9781515 -0.3599254 -0.06754124 -0.9305331 -0.1720039 0.04018682 -0.9842763 -0.5608684 0.6976824 -0.4457197 -0.7401392 0.6248398 0.2485343 -0.2691688 0.8218837 -0.5020511 -0.6028053 -0.2516538 0.7571633 -0.8771474 -0.3204216 0.3576905 -0.5445904 -0.6972851 0.466063 -0.5476655 -0.8356783 -0.04128158 -0.9102358 -0.4039576 -0.09104406 0.732885 0.6802892 -0.009286165 0.5727114 0.5793421 0.5799695 0.8225246 0.03865104 0.5674148 0.1489786 -0.4766671 0.8663682 0.7620338 -0.243321 -0.6000828 0.4436228 0.02340477 -0.8959081 0.8798298 0.2238448 -0.4192767 -0.02372032 -0.06215387 -0.9977847 -0.05558353 -0.3772503 -0.9244419 -0.1587482 -0.495535 -0.8539579 -0.6374981 -0.187633 -0.747255 -0.4312081 -0.3752278 -0.8205265 0.1289576 -0.07060992 -0.9891331 0.3097993 -0.3505153 -0.8838345 0.2111101 -0.3186175 -0.9240754 0.04606497 -0.04313802 -0.9980066 0.007228374 -0.1561712 -0.9877036 0.4024071 0.9143034 0.04601961 0.4788525 0.8772138 0.03459024 0.3164236 0.8693981 0.3795037 -0.2948681 0.880846 0.3703554 -0.5616058 0.8000585 0.2109632 0.6952244 0.05414962 0.7167503 0.6129488 0.08634978 0.78539 -0.206701 -0.8075647 0.5523713 -0.3134384 -0.6544656 0.6880634 -0.3318751 -0.7994915 0.5006718 -0.6622298 0.5913558 -0.4601631 -0.4468793 0.6816241 -0.5793855 -0.2235885 0.2834355 -0.9325624 -0.09281474 0.1728557 -0.9805643 -0.1432106 -0.5205683 -0.8417242 -0.3327695 -0.1445431 -0.9318647 -0.6288828 -0.7350261 -0.2534622 -0.6645082 0.3109425 -0.6795172 -0.8576735 0.4565016 0.2366486 0.435976 0.6770731 -0.592872 -0.09019362 -0.9171144 0.3882865 0.291248 -0.884226 0.3651288 0.3878303 -0.7087879 0.5892432 -0.8029729 0.0652644 0.5924316 -0.957638 -0.1375891 0.2529798 -0.7007619 0.1227976 0.7027471 -0.6450265 -0.1054786 0.7568455 -0.275637 0.1724768 0.9456617 -0.2756368 0.1724768 0.9456618 -0.1983681 0.2804598 0.9391446 0.07745456 0.8691927 0.4883696 -0.2644574 0.7603577 0.5932272 0.9741536 -0.2080278 -0.08802956 0.9134361 0.09390884 -0.3959996 0.6701827 -0.1456233 -0.7277699 0.7009987 -0.1708168 0.6924034 0.7440167 -0.1111987 0.658843 0.7406144 -0.08685654 0.6662929 0.3532192 0.9205946 0.166559 0.4841149 0.7772506 0.4018884 -0.7354885 -0.5602271 -0.3810544 -0.2678917 -0.9265118 0.2642158 -0.3256399 -0.8800715 -0.3455908 -0.7027539 -0.03767848 0.7104347 -0.7107049 0.112042 0.6945108 -0.2820784 -0.9590041 0.0272594 0.3485571 -0.8124631 -0.4673454 0.6302896 -0.745654 0.2161831 0.317976 -0.8200163 -0.4758831 0.2643011 -0.7557467 0.5991593 0.5522223 -0.659379 0.5101667 0.5008444 -0.5733268 0.6484223 0.1724807 -0.6215938 0.7641149 0.5932399 -0.4509755 -0.6668491 0.6807919 -0.3238636 -0.6569892 0.8810714 0.2120654 -0.4227784 0.9015702 -0.4129173 0.1291148 0.5946807 -0.3997774 -0.6975191 -0.07920712 0.4408294 -0.8940894 -0.1124009 0.04512298 -0.9926379 -0.5519717 0.1545007 -0.8194247 -0.9991796 0.04033327 -0.003672957 -0.2288846 -0.8221271 -0.5212668 -0.08880627 0.2129313 -0.973023 -0.00523293 0.2515606 -0.9678274 0.1265226 0.3467226 -0.9293953 -0.6200218 -0.1702427 0.765892 -0.8950196 0.1968022 0.4002612 -0.6827412 -0.0330885 0.7299107 -0.7012322 -0.2980406 0.647646 -0.5416491 -0.5474066 0.6379359 -0.338514 -0.7765904 0.5313341 0.7819945 -0.434532 0.4468408 0.5820651 -0.038966 0.8122081 0.4915642 -0.6856998 0.5368244 0.4037027 -0.7805044 0.4773228 -0.07641863 -0.5582706 0.8261321 0.6593906 0.3862578 0.6449876 0.6126064 0.4672051 0.6375209 -0.5133674 0.8201957 0.2524538 0.1502295 -0.13494 -0.979399 0.1301686 -0.007496774 -0.9914636 0.1223326 0.1023653 0.9871961 0.5519137 0.170897 0.8162019 0.2528674 0.1998547 0.9466342 0.5042986 0.8555825 -0.1168832 0.5122519 0.8566598 0.06109136 0.05351144 0.8100751 -0.5838792 0.298715 -0.7930551 0.5308795 0.316895 -0.8802186 0.3532602 0.310431 0.02157109 -0.9503512 0.9270344 -0.2986485 0.226752 0.7288194 0.1743042 0.6621482 0.3882665 0.6755937 0.6267554 0.2607232 0.2706423 -0.9267018 0.199504 -0.05870288 -0.9781371 -0.7004882 0.3181651 0.6388171 -0.900388 0.2241466 0.3729074 -0.4024496 0.7643046 0.5038582 -0.2846089 0.7378283 0.6120517 -0.4780311 0.6507083 0.5899704 0.3885804 0.6923601 -0.6079825 -0.5357047 -0.7416213 -0.4037554 -0.2589252 -0.6675131 -0.6981289 0.3882985 -0.7102984 -0.587112 0.1344965 -0.295528 -0.9458191 0.04065281 -0.05905562 -0.9974266 0.05751013 -0.1064938 -0.9926488 0.1146997 -0.9789972 0.1685483 0.1344176 -0.8531044 0.5041278 0.01822274 -0.9279899 0.3721596 -0.008035242 0.03808528 -0.9992423 -0.05453658 0.04994899 -0.9972618 -0.04530733 0.02697139 -0.998609 -0.1377677 -0.1032873 -0.9850644 -0.3821622 -0.9128541 0.1436997 -0.6828632 -0.4068465 0.6067733 -0.9626436 0.08911579 0.2556868 -0.8873027 0.3234083 -0.3287875 0.8576256 -0.3130328 0.4080303 0.9894373 0.0432713 -0.1383526 0.8838876 -0.001810967 0.467696 -0.005905032 0.02441447 0.9996846 0.04480147 0.1742127 0.9836884 0.3069708 -0.8905894 -0.3355882 -0.6838555 -0.1371544 0.7166104 -0.7453864 -0.1338998 0.6530467 -0.7171701 -0.0760712 0.6927339 -0.9010416 -0.07894945 0.4264869 0.6543926 -0.2678948 0.7071088 0.7091691 -0.1676909 0.6848059 0.6182308 -0.2912701 0.730036 0.273016 0.8659346 0.4190699 0.06409788 0.9137142 0.4012702 0.406462 0.8820594 0.2382435 0.4881058 0.8310385 0.2666982 0.1429958 -0.5643356 0.8130667 0.007982611 0.6914387 0.7223911 -0.1217352 0.5124081 0.8500698 0.4397321 -0.3083374 -0.8435423 -0.660288 -0.455157 0.5973708 -0.09320205 0.1293142 0.9872139 -0.2315997 0.2668619 0.9354925 -0.06621915 0.02953827 0.9973679 -0.7965336 -0.05691051 0.6019099 -0.9957231 -0.08841139 -0.02681791 -0.08404672 -0.04255741 -0.9955526 -0.1401925 -0.009316623 -0.9900805 -0.1190367 0.02498155 -0.9925756 -0.8220776 -0.445357 -0.3547471 -0.4649638 0.09022873 -0.8807199 0.6969351 -0.02399301 0.7167328 0.5967921 0.2092345 0.7746354 0.1421062 -0.1810693 0.9731495 -0.07011514 -0.1903346 0.9792122 -0.2054927 0.6861708 0.6978126 -0.7313467 0.2431054 0.6372063 -0.7001532 0.0910409 0.7081646 -0.05453664 0.04994881 -0.9972617 -0.06487828 0.07019501 -0.9954213 -0.009704887 0.0442599 -0.998973 -0.6832935 -0.2528808 0.6849536 -0.7803483 -0.1421587 0.6089724 -0.6411946 -0.06140434 0.7649177 0.01213437 -0.2059313 0.9784913 -0.2065472 -0.3849241 0.8995397 0.2635911 -0.9128336 0.3118567 -0.4189658 -0.3802857 0.8245304 0.850589 0.1217114 -0.5115512 0.5550121 0.04858016 -0.8304226 0.5677602 -0.4754261 0.6720255 0.4066984 -0.4104942 0.8161441 -0.3357123 0.5731369 -0.7475368 -0.1919575 0.3573549 -0.9140294 -0.6392974 0.7208675 -0.2676732 -0.2057977 -0.9226632 0.3260982 -0.9784029 -0.07999694 -0.1906004 -0.8942397 -0.1693207 -0.4143258 -0.6039281 -0.105012 -0.7900907 -0.008077442 0.2629594 0.9647732 -0.1756895 -0.8181822 -0.547459 0.6643998 -0.09533149 0.7412725 0.3034255 -0.9513463 0.05360382 0.2220594 -0.9356994 0.2741468 0.2721184 -0.9605517 -0.0573765 -0.5069362 -0.1025074 0.8558669 -0.5394546 0.1994125 0.8180607 -0.08098411 0.08960634 0.9926794 0.03091406 -0.1892452 0.9814431 -0.2486954 0.7844042 0.5682085 -0.2953106 0.7998062 0.5225914 -0.5826705 -0.1448426 0.7996973 0.1849727 -0.5997299 -0.7785302 0.01873815 -0.3585005 0.9333415 0.2802329 -0.5027134 0.8177707 -0.3261952 0.8481459 0.4174271 0.125742 -0.01095741 -0.9920026 2.62978e-4 0.04648619 -0.9989189 0.1582686 0.9771743 0.1417091 -0.4294829 0.9013234 -0.05621999 0.02188587 0.01126796 -0.999697 -9.6362e-4 0.005418121 -0.9999849 0.03329735 -0.9275211 0.3722849 0.605552 -0.5063384 0.6139448 0.6139549 -0.4553523 0.6447587 0.711762 -0.3650866 0.600089 0.6768569 -0.2897819 0.6766766 0.05815672 -0.6497414 0.7579275 -0.1735253 -0.7483681 0.6401829 0.4515523 -0.6844943 0.5723357 -0.2828025 -0.9569814 0.06487977 0.3545746 -0.6416986 0.6800734 0.2098798 -0.6614614 -0.7200135 -0.08297801 0.2071121 0.974792 -0.1217347 0.5124055 0.8500714 0.0311557 -0.1892736 0.98143 -0.008007168 -0.2230202 0.974781 0.3364101 0.7334414 -0.5906708 0.02247309 0.04970449 -0.9985112 0.04606586 -0.0431382 -0.9980065 0.02188545 0.01126897 -0.999697 -0.01924759 0.03722697 -0.9991215 -0.009703338 0.04425936 -0.998973 -0.1190336 0.02498143 -0.9925759 -9.62798e-4 0.005418062 -0.9999849 0.01884478 0.06786113 -0.9975168 -0.2747858 0.1703357 0.9462973 -0.90466 0.3424311 0.2536363 -0.7471114 -0.2598461 0.6118043 -1.7974e-4 0.006465017 -0.9999791 0.7092435 -0.0800628 0.7004025 0.9164615 -0.3766664 0.1349846 0.09176951 0.08359539 0.9922652</float_array>
          <technique_common>
            <accessor source="#Mesh-mesh-normals-array" count="333" stride="3">
              <param name="X" type="float"/>
              <param name="Y" type="float"/>
              <param name="Z" type="float"/>
            </accessor>
          </technique_common>
        </source>
        <source id="Mesh-mesh-map-0">
          <float_array id="Mesh-mesh-map-0-array" count="3972">0.2795721 0.120495 0.2303784 0.08262807 0.3011088 0.07700735 0.5645328 0.6487148 0.5334776 0.6964988 0.5018515 0.62059 0.6842319 0.2022655 0.6753487 0.2046803 0.6748687 0.2001398 0.7171974 0.4230868 0.7152463 0.6874382 0.716028 0.4246943 0.1114364 0.5467103 0.1254704 0.613904 0.04251247 0.6137242 0.1714358 0.6133679 0.1660244 0.7634938 0.1670064 0.6173985 0.2495957 0.9818012 0.1732746 0.9313138 0.2760847 0.9077481 0.1706633 0.2611883 0.1384662 0.3008047 0.1049821 0.2462241 0.2569594 0.3078754 0.2108998 0.3241707 0.2273333 0.2803817 0.3091985 0.1187832 0.3020208 0.135304 0.2795721 0.120495 0.2254746 0.5984682 0.2212418 0.6123206 0.215685 0.6127876 0.2760847 0.9077481 0.3016335 0.9702431 0.2495957 0.9818012 0.187454 0.3274669 0.311284 0.3553524 0.2455937 0.5265646 0.829361 0.1531695 0.7789625 0.1804595 0.7748011 0.1262673 0.5704334 0.7519886 0.6087849 0.7637714 0.5773753 0.7936794 0.2548406 0.1236276 0.2954182 0.129737 0.2973363 0.1815233 0.5937294 0.1908957 0.5937236 0.2010036 0.5275294 0.2008313 0.5334776 0.6964988 0.4484647 0.6353271 0.5018515 0.62059 0.8958699 0.2515624 0.8673259 0.2745946 0.8680408 0.2549242 0.2077768 0.9785189 0.174105 0.967049 0.2495957 0.9818012 0.240978 0.7289867 0.2127642 0.7097595 0.2198616 0.6933293 0.1345775 0.3213307 0.1672936 0.3710342 0.1080386 0.3269811 0.8149104 0.06622546 0.8342477 0.1012093 0.7923061 0.06482893 0.6446665 0.5952301 0.5923573 0.5599234 0.6121042 0.5542733 0.7836274 0.6915686 0.8351622 0.6691628 0.8270028 0.6974013 0.7388508 0.6939607 0.715233 0.7189505 0.7152463 0.6874382 0.1114364 0.5467103 0.03733557 0.6137194 0.0373187 0.5080906 0.4361562 0.275845 0.4610763 0.2563332 0.4851751 0.3056575 0.4144269 0.6887853 0.4204497 0.6666979 0.4682404 0.7047401 0.8357981 0.1809344 0.8409269 0.2062908 0.802798 0.2090782 0.7892429 0.2401843 0.802798 0.2090782 0.8404406 0.2379613 0.05281984 0.05086421 0.08171123 0.05549222 0.06489908 0.08368098 0.1080386 0.3269811 0.0901615 0.2841311 0.1345775 0.3213307 0.2313166 0.7698138 0.1869444 0.7222563 0.238837 0.7362492 0.5602551 0.3572167 0.5937588 0.4086303 0.5322093 0.4000958 0.4464441 0.3436337 0.4851751 0.3056575 0.4728128 0.3777139 0.121617 0.7387564 0.1863495 0.7761757 0.1157233 0.7954023 0.5602551 0.3572167 0.5936076 0.3568069 0.5936539 0.3817261 0.7898231 0.6590524 0.7527328 0.6970143 0.7755001 0.6251755 0.6087849 0.7637714 0.6159384 0.7757889 0.6087125 0.793221 0.3373994 0.4230868 0.3362387 0.4218151 0.3362392 0.4117684 0.270213 0.655063 0.3111337 0.5848354 0.3106799 0.667051 0.5428658 0.7515693 0.5704334 0.7519886 0.5773753 0.7936794 0.5148788 0.1180878 0.5587653 0.1174686 0.4774742 0.1797215 0.8003045 0.1314928 0.7769699 0.238734 0.7776178 0.1554834 0.3947663 0.6705654 0.3889454 0.6375572 0.4204497 0.6666979 0.04949736 0.4607397 0.1340605 0.5106173 0.08256286 0.4894293 0.6842319 0.2022655 0.6746847 0.2079575 0.6753487 0.2046803 0.1935912 0.3797503 0.1345775 0.3213307 0.1765727 0.3444831 0.2916836 0.7069261 0.1941593 0.7747638 0.1714358 0.6133679 0.3841867 0.8779804 0.4267401 0.8779804 0.396811 0.8886854 0.762845 0.8592328 0.7390014 0.8426365 0.7378626 0.8198005 0.2752751 0.2907354 0.1798796 0.2202938 0.2548406 0.1236276 0.7373397 0.5918228 0.6647369 0.5535327 0.7061834 0.5217184 0.1483078 0.1846922 0.1036832 0.1821923 0.14563 0.1820704 0.7836274 0.6915686 0.8151338 0.6531194 0.8351622 0.6691628 0.8080442 0.6179834 0.7898231 0.6590524 0.7755001 0.6251755 0.4464441 0.3436337 0.4728128 0.3777139 0.4511298 0.3749941 0.7446234 0.2309327 0.7892429 0.2401843 0.7549468 0.2619401 0.2531825 0.3444492 0.2913007 0.2180807 0.29176 0.3682574 0.4508646 0.6153688 0.5018515 0.62059 0.4484647 0.6353271 0.7789625 0.1804595 0.6842319 0.2022655 0.7748011 0.1262673 0.6802647 0.2514264 0.6842319 0.2022655 0.7446234 0.2309327 0.8763156 0.8189175 0.8953109 0.8048294 0.8943044 0.8449803 0.1863495 0.7761757 0.1656638 0.7991687 0.1157233 0.7954023 0.2177124 0.6496741 0.1847857 0.6489574 0.1856455 0.5832352 0.2455937 0.5265646 0.1869396 0.4743373 0.187454 0.3274669 0.2061702 0.6034132 0.215685 0.6127876 0.2029262 0.6135412 0.2488707 0.5557829 0.2509871 0.5811125 0.2328937 0.5832778 0.6087125 0.793221 0.5773753 0.7936794 0.6087849 0.7637714 0.4774742 0.1797215 0.4403723 0.1554693 0.4678397 0.1332156 0.4024353 0.1792532 0.41655 0.200421 0.4004475 0.2003462 0.1941593 0.7747638 0.1658002 0.7820385 0.1660244 0.7634938 0.8404406 0.2379613 0.8467012 0.2758676 0.8230234 0.2679312 0.6969885 0.2728942 0.7446234 0.2309327 0.7549468 0.2619401 0.5937588 0.4086303 0.5680562 0.4307058 0.5322093 0.4000958 0.5790359 0.04627239 0.5938299 0.09675049 0.5587653 0.1174686 0.2098475 0.1424545 0.27483 0.07915663 0.2744057 0.176194 0.829361 0.1531695 0.7748011 0.1262673 0.8543825 0.1296877 0.2704494 0.5535708 0.1714358 0.6133679 0.2231817 0.4678862 0.7923061 0.06482893 0.8342477 0.1012093 0.7764723 0.08962023 0.7492588 0.0968275 0.7748011 0.1262673 0.7154564 0.12744 0.04267656 0.2534123 0.05317741 0.2800371 0.0429688 0.2882729 0.06380242 0.2551792 0.1049821 0.2462241 0.0901615 0.2841311 0.3015217 0.8030883 0.3062374 0.8046939 0.3031878 0.8068563 0.7492588 0.0968275 0.7154564 0.12744 0.726424 0.08655858 0.1794052 0.0689007 0.1881209 0.1299779 0.124819 0.06179875 0.1435703 0.03794288 0.124819 0.06179875 0.0985347 0.04168432 0.4682404 0.7047401 0.4204497 0.6666979 0.4736868 0.6822369 0.5428658 0.7515693 0.5334776 0.6964988 0.5704334 0.7519886 0.782621 0.4402281 0.7061834 0.5217184 0.6972139 0.3370266 0.2127642 0.7097595 0.2027732 0.6649219 0.2198616 0.6933293 0.7769169 0.09607154 0.71619 0.159981 0.7161267 0.123176 0.7527328 0.6970143 0.7452014 0.7064267 0.7477372 0.700998 0.193854 0.01784861 0.27483 0.07915663 0.2098475 0.1424545 0.2233768 0.3725509 0.1935912 0.3797503 0.1765727 0.3444831 0.2415014 0.3608548 0.2360397 0.378167 0.2233768 0.3725509 0.121617 0.7387564 0.1869444 0.7222563 0.1863495 0.7761757 0.7061834 0.5217184 0.6648172 0.3715867 0.6972139 0.3370266 0.4204497 0.6666979 0.3932219 0.6356814 0.4484647 0.6353271 0.07360935 0.1194886 0.06367987 0.1197084 0.06489908 0.08368098 0.2328937 0.5832778 0.2509871 0.5811125 0.2254746 0.5984682 0.2303784 0.08262807 0.1885117 0.1299828 0.1794052 0.0689007 0.7856608 0.5637152 0.8080442 0.6179834 0.7755001 0.6251755 0.2328937 0.5832778 0.210611 0.5546849 0.2488707 0.5557829 0.8550922 0.677095 0.8270028 0.6974013 0.8351622 0.6691628 0.2061702 0.6034132 0.2328937 0.5832778 0.2254746 0.5984682 0.210611 0.5546849 0.2328937 0.5832778 0.1868529 0.589091 0.5480038 0.5929283 0.5645328 0.6487148 0.5018515 0.62059 0.2704494 0.5535708 0.2911993 0.582396 0.1714358 0.6133679 0.5334776 0.6964988 0.5645328 0.6487148 0.627248 0.7056047 0.6526212 0.6490901 0.627248 0.7056047 0.6162472 0.6363515 0.1114364 0.5467103 0.04135727 0.4614757 0.08256286 0.4894293 0.7947072 0.2642736 0.8051816 0.2838314 0.7788385 0.2872202 0.8230234 0.2679312 0.7947072 0.2642736 0.8404406 0.2379613 0.7446234 0.2309327 0.6842319 0.2022655 0.7789625 0.1804595 0.7446234 0.2309327 0.802798 0.2090782 0.7892429 0.2401843 0.1185256 0.8223872 0.03760814 0.8235921 0.1157233 0.7954023 0.03873127 0.7687988 0.03760814 0.8235921 0.037454 0.7749893 0.1672936 0.3710342 0.1345775 0.3213307 0.1935912 0.3797503 0.1928062 0.7250289 0.1833278 0.698163 0.2178137 0.7000528 0.3947663 0.6705654 0.4204497 0.6666979 0.4144269 0.6887853 0.4024353 0.1792532 0.4403723 0.1554693 0.4774742 0.1797215 0.2254436 0.5027217 0.1736539 0.52928 0.1737949 0.4809149 0.5043195 0.3708738 0.4851751 0.3056575 0.5602551 0.3572167 0.1049821 0.2462241 0.1345775 0.3213307 0.0901615 0.2841311 0.1765727 0.3444831 0.1345775 0.3213307 0.1384662 0.3008047 0.2238308 0.9236319 0.2516433 0.8393107 0.2867581 0.9216994 0.4024353 0.1792532 0.4004475 0.2003462 0.3880794 0.1995032 0.07360935 0.1194886 0.09580981 0.1297111 0.08854448 0.130057 0.0732066 0.2116413 0.07509642 0.183562 0.08543121 0.1821464 0.7759267 0.03000754 0.7145122 0.06078171 0.7222456 0.03909397 0.1185256 0.8223872 0.1157233 0.7954023 0.1656638 0.7991687 0.8825781 0.8788148 0.8605379 0.8876581 0.8943044 0.8449803 0.4728128 0.3777139 0.4851751 0.3056575 0.5043195 0.3708738 0.1714358 0.6133679 0.1669814 0.6101968 0.1669687 0.5989739 0.4560925 0.5648083 0.4090793 0.5497823 0.4238395 0.512308 0.1869444 0.7222563 0.2313166 0.7698138 0.1863495 0.7761757 0.2313166 0.7698138 0.2285699 0.7905868 0.2092641 0.7952331 0.1911938 0.199558 0.2227006 0.1835687 0.231944 0.1979534 0.1049821 0.2462241 0.1483078 0.1846922 0.1706633 0.2611883 0.2752751 0.2907354 0.2973363 0.1815233 0.3041028 0.2858861 0.2432112 0.3822218 0.2938079 0.3741914 0.2900397 0.4215254 0.2824406 0.27851 0.2569594 0.3078754 0.2758616 0.2675418 0.1765727 0.3444831 0.1706633 0.2611883 0.2108998 0.3241707 0.1765727 0.3444831 0.2108998 0.3241707 0.2233768 0.3725509 0.7431382 0.512308 0.7399629 0.5279093 0.735604 0.5128857 0.7431382 0.512308 0.7465915 0.5636038 0.7399629 0.5279093 0.4678397 0.1332156 0.5148788 0.1180878 0.4774742 0.1797215 0.7061834 0.5217184 0.7822032 0.5136938 0.7819845 0.5569386 0.2061702 0.6034132 0.1868529 0.589091 0.2328937 0.5832778 0.06380242 0.2551792 0.0901615 0.2841311 0.05317741 0.2800371 0.1080386 0.3269811 0.05317741 0.2800371 0.0901615 0.2841311 0.7923061 0.06482893 0.8060562 0.04544115 0.8149104 0.06622546 0.2756872 0.1495062 0.3097819 0.206454 0.2923721 0.2136099 0.2516433 0.8393107 0.2912454 0.7548023 0.2914416 0.796833 0.4105565 0.5932918 0.3891345 0.6101104 0.3841867 0.5667567 0.7769699 0.238734 0.8476528 0.2309604 0.847644 0.2932482 0.4774742 0.1797215 0.4787575 0.200708 0.4662178 0.2006121 0.06489908 0.08368098 0.08171123 0.05549222 0.124819 0.06179875 0.8003045 0.1314928 0.7776178 0.1554834 0.7804188 0.06748455 0.7938073 0.03000754 0.84179 0.03522282 0.8348748 0.08099144 0.8680408 0.2549242 0.8467012 0.2758676 0.8404406 0.2379613 0.8673259 0.2745946 0.8467012 0.2758676 0.8680408 0.2549242 0.1157233 0.7954023 0.03873127 0.7687988 0.121617 0.7387564 0.1114364 0.5467103 0.1340605 0.5106173 0.2088949 0.5277917 0.2088949 0.5277917 0.2406799 0.530205 0.2488707 0.5557829 0.03731864 0.07619696 0.05281984 0.05086421 0.06489908 0.08368098 0.7852239 0.2186157 0.7769169 0.09607154 0.7926173 0.1710458 0.7926173 0.1710458 0.7769169 0.09607154 0.8097112 0.1221567 0.7759267 0.03000754 0.8339458 0.06767839 0.7769169 0.09607154 0.6162472 0.6363515 0.6591272 0.6192689 0.6526212 0.6490901 0.6162472 0.6363515 0.5480038 0.5929283 0.6446665 0.5952301 0.5480038 0.5929283 0.5085856 0.5885294 0.5316031 0.5812271 0.5018515 0.62059 0.5085856 0.5885294 0.5480038 0.5929283 0.5334776 0.6964988 0.6087849 0.7637714 0.5704334 0.7519886 0.05196493 0.2438629 0.05317741 0.2800371 0.04267656 0.2534123 0.238837 0.7362492 0.2127642 0.7097595 0.240978 0.7289867 0.5827085 0.2555212 0.5936852 0.2554457 0.5936405 0.2863364 0.1649209 0.3280386 0.2048586 0.2164819 0.2531825 0.3444492 0.1714358 0.6133679 0.1665424 0.4628192 0.2231817 0.4678862 0.2332351 0.7254269 0.1928062 0.7250289 0.2765113 0.7209637 0.3016335 0.9702431 0.291772 0.9821513 0.2495957 0.9818012 0.1114364 0.5467103 0.08256286 0.4894293 0.1340605 0.5106173 0.7947072 0.2642736 0.7788385 0.2872202 0.7448813 0.2868082 0.5043195 0.3708738 0.5602551 0.3572167 0.5322093 0.4000958 0.8404406 0.2379613 0.802798 0.2090782 0.8409269 0.2062908 0.8404406 0.2379613 0.8775715 0.2004417 0.8852837 0.229937 0.2349863 0.2758849 0.311284 0.3553524 0.187454 0.3274669 0.7994349 0.04025328 0.7923061 0.06482893 0.755175 0.05074334 0.2178137 0.7000528 0.1833278 0.698163 0.1836204 0.6855192 0.0732066 0.2116413 0.1036832 0.1821923 0.1049821 0.2462241 0.1804049 0.03731864 0.1794052 0.0689007 0.124819 0.06179875 0.1794052 0.0689007 0.1804049 0.03731864 0.2412636 0.04616957 0.7492588 0.0968275 0.726424 0.08655858 0.7524901 0.07376706 0.1856455 0.5832352 0.2455937 0.5265646 0.2177124 0.6496741 0.1863495 0.7761757 0.2313166 0.7698138 0.2092641 0.7952331 0.8943044 0.8449803 0.8679248 0.8514637 0.8763156 0.8189175 0.238837 0.7362492 0.1869444 0.7222563 0.2127642 0.7097595 0.7061834 0.5217184 0.664993 0.5401863 0.6650586 0.5177248 0.5441548 0.08643716 0.5790359 0.04627239 0.5587653 0.1174686 0.5587653 0.1174686 0.5148788 0.1180878 0.5441548 0.08643716 0.2556599 0.2466692 0.231944 0.1979534 0.265924 0.2019369 0.265924 0.2019369 0.2758616 0.2675418 0.2556599 0.2466692 0.4403723 0.1554693 0.4024353 0.1792532 0.4149981 0.1535645 0.4403723 0.1554693 0.4149981 0.1535645 0.4678397 0.1332156 0.04058277 0.09947609 0.03731864 0.07619696 0.06489908 0.08368098 0.04058277 0.09947609 0.06489908 0.08368098 0.06367987 0.1197084 0.5790359 0.04627239 0.5941713 0.03731864 0.5940553 0.05861854 0.5773753 0.7936794 0.6038304 0.7991743 0.5916185 0.8033431 0.7527328 0.6970143 0.7532705 0.7134693 0.7370911 0.7296045 0.7370911 0.7296045 0.7452014 0.7064267 0.7527328 0.6970143 0.6842319 0.2022655 0.6723539 0.2190136 0.6746847 0.2079575 0.414653 0.9626812 0.397076 0.9366907 0.4158256 0.9449343 0.7228671 0.2150158 0.7776178 0.1554834 0.7769699 0.238734 0.7789625 0.1804595 0.8357981 0.1809344 0.802798 0.2090782 0.7446234 0.2309327 0.7789625 0.1804595 0.802798 0.2090782 0.3011088 0.07700735 0.3091985 0.1187832 0.2795721 0.120495 0.3011088 0.07700735 0.3088717 0.07902491 0.3095494 0.08529949 0.08171123 0.05549222 0.0985347 0.04168432 0.124819 0.06179875 0.0985347 0.04168432 0.08171123 0.05549222 0.05281984 0.05086421 0.7947072 0.2642736 0.7892429 0.2401843 0.8404406 0.2379613 0.8943044 0.8449803 0.8510687 0.8755033 0.8679248 0.8514637 0.4361562 0.275845 0.4851751 0.3056575 0.4446998 0.312717 0.6802647 0.2514264 0.7446234 0.2309327 0.6969885 0.2728942 0.6802647 0.2514264 0.6720696 0.2702444 0.6697714 0.2554869 0.2088949 0.5277917 0.2488707 0.5557829 0.210611 0.5546849 0.1483078 0.1846922 0.1905568 0.1826865 0.1911938 0.199558 0.7171974 0.4230868 0.8328101 0.5471034 0.7388508 0.6939607 0.757867 0.7728558 0.7150725 0.7420458 0.7388508 0.6939607 0.07360935 0.1194886 0.06934219 0.1333532 0.06367987 0.1197084 0.7527328 0.6970143 0.7898231 0.6590524 0.7836274 0.6915686 0.3205968 0.2662736 0.3196941 0.2616056 0.321145 0.2605217 0.3205968 0.2662736 0.3179067 0.2594292 0.3196941 0.2616056 0.1868529 0.589091 0.1254704 0.613904 0.1114364 0.5467103 0.210611 0.5546849 0.1868529 0.589091 0.1114364 0.5467103 0.6633521 0.7021737 0.7444844 0.7693469 0.6681066 0.8305505 0.31001 0.2205283 0.3007742 0.2765827 0.2923721 0.2136099 0.7748011 0.1262673 0.7492588 0.0968275 0.7764723 0.08962023 0.2048586 0.2164819 0.1868284 0.1033882 0.2752707 0.1567208 0.2752707 0.1567208 0.2531825 0.3444492 0.2048586 0.2164819 0.6162472 0.6363515 0.5645328 0.6487148 0.5480038 0.5929283 0.627248 0.7056047 0.5645328 0.6487148 0.6162472 0.6363515 0.2177124 0.6496741 0.2455937 0.5265646 0.270213 0.655063 0.06380242 0.2551792 0.05317741 0.2800371 0.05196493 0.2438629 0.0732066 0.2116413 0.06380242 0.2551792 0.05196493 0.2438629 0.3011088 0.07700735 0.2303784 0.08262807 0.2412636 0.04616957 0.2412636 0.04616957 0.2303784 0.08262807 0.1794052 0.0689007 0.627248 0.7056047 0.637194 0.7127612 0.6329509 0.7276784 0.958134 0.5270187 0.9297296 0.5929127 0.9297296 0.5123081 0.5363368 0.5415111 0.4942632 0.5363273 0.5406563 0.5382092 0.5587653 0.1174686 0.5938299 0.09675049 0.5937294 0.1908957 0.5334776 0.6964988 0.5428658 0.7515693 0.5028153 0.7333293 0.5334776 0.6964988 0.5028153 0.7333293 0.4682404 0.7047401 0.8510687 0.8755033 0.8943044 0.8449803 0.8605379 0.8876581 0.08507949 0.8433144 0.037647 0.8269407 0.1185256 0.8223872 0.4238395 0.512308 0.4090793 0.5497823 0.3935635 0.515329 0.8775715 0.2004417 0.8404406 0.2379613 0.8409269 0.2062908 0.05258256 0.3073911 0.05317741 0.2800371 0.1080386 0.3269811 0.05258256 0.3073911 0.0429688 0.2882729 0.05317741 0.2800371 0.7670835 0.4275031 0.7670835 0.3618575 0.7930756 0.3839823 0.1714358 0.6133679 0.1670129 0.6134585 0.1669814 0.6101968 0.8230234 0.2679312 0.8051816 0.2838314 0.7947072 0.2642736 0.3017857 0.2118157 0.2868245 0.1855096 0.2957598 0.1872492 0.8097112 0.1221567 0.8338378 0.096475 0.8340184 0.1365357 0.7938073 0.03000754 0.8003045 0.1314928 0.7804188 0.06748455 0.2867581 0.9216994 0.2374894 0.9699924 0.2238308 0.9236319 0.2432112 0.3822218 0.1838077 0.3881287 0.1830817 0.2977087 0.627248 0.7056047 0.6087849 0.7637714 0.5334776 0.6964988 0.2188979 0.8587883 0.1941593 0.7747638 0.2516433 0.8393107 0.2188979 0.8587883 0.2516433 0.8393107 0.2238308 0.9236319 0.2415014 0.3608548 0.2108998 0.3241707 0.2569594 0.3078754 0.2108998 0.3241707 0.2415014 0.3608548 0.2233768 0.3725509 0.06380242 0.2551792 0.0732066 0.2116413 0.1049821 0.2462241 0.6647078 0.3305586 0.6999158 0.03004676 0.6972139 0.3370266 0.121617 0.7387564 0.1444642 0.6666956 0.1869444 0.7222563 0.6802647 0.2514264 0.6723539 0.2190136 0.6842319 0.2022655 0.2337539 0.4521409 0.2133919 0.5093928 0.1866496 0.4700632 0.5480038 0.5929283 0.5316031 0.5812271 0.5482452 0.5750914 0.1650547 0.3447094 0.2531825 0.3444492 0.2231817 0.4678862 0.8080442 0.6179834 0.8151338 0.6531194 0.7898231 0.6590524 0.7898231 0.6590524 0.8151338 0.6531194 0.7836274 0.6915686 0.4942735 0.3932799 0.4728128 0.3777139 0.5043195 0.3708738 0.5322093 0.4000958 0.4942735 0.3932799 0.5043195 0.3708738 0.5602551 0.3572167 0.5936405 0.2863364 0.5936076 0.3568069 0.121617 0.7387564 0.03743165 0.7643548 0.03734225 0.6756806 0.1706633 0.2611883 0.1483078 0.1846922 0.1911938 0.199558 0.3106799 0.667051 0.2314544 0.700734 0.270213 0.655063 0.2177124 0.6496741 0.270213 0.655063 0.2314544 0.700734 0.4682404 0.7047401 0.4736868 0.6822369 0.5334776 0.6964988 0.4484647 0.6353271 0.5334776 0.6964988 0.4736868 0.6822369 0.8680408 0.2549242 0.8404406 0.2379613 0.8852837 0.229937 0.8852837 0.229937 0.8958699 0.2515624 0.8680408 0.2549242 0.8476702 0.1342889 0.8003045 0.1314928 0.8348748 0.08099144 0.7938073 0.03000754 0.8348748 0.08099144 0.8003045 0.1314928 0.1114364 0.5467103 0.2088949 0.5277917 0.210611 0.5546849 0.1345775 0.3213307 0.1049821 0.2462241 0.1384662 0.3008047 0.1706633 0.2611883 0.1765727 0.3444831 0.1384662 0.3008047 0.7947072 0.2642736 0.7448813 0.2868082 0.7549468 0.2619401 0.7549468 0.2619401 0.7448813 0.2868082 0.6969885 0.2728942 0.7892429 0.2401843 0.7947072 0.2642736 0.7549468 0.2619401 0.4464441 0.3436337 0.4446998 0.312717 0.4851751 0.3056575 0.6087849 0.7637714 0.6203149 0.7662964 0.6159384 0.7757889 0.2900397 0.4215254 0.2337539 0.4521409 0.2432112 0.3822218 0.2752751 0.2907354 0.3041028 0.2858861 0.2938079 0.3741914 0.1435703 0.03794288 0.1804049 0.03731864 0.124819 0.06179875 0.2273333 0.2803817 0.1706633 0.2611883 0.2270105 0.2463071 0.2270105 0.2463071 0.231944 0.1979534 0.2556599 0.2466692 0.8097112 0.1221567 0.8341009 0.164714 0.7926173 0.1710458 0.7852239 0.2186157 0.833903 0.1851034 0.8337625 0.2487675 0.7852239 0.2186157 0.8334861 0.301195 0.7171974 0.4230868 0.7852239 0.2186157 0.7160373 0.4117684 0.71619 0.159981 0.265924 0.2019369 0.2591027 0.1839544 0.2655183 0.183612 0.2455937 0.5265646 0.3115692 0.4909251 0.3112095 0.5402155 0.7154564 0.12744 0.6974928 0.1415948 0.708606 0.122128 0.6891423 0.4365332 0.6688086 0.3803803 0.6924462 0.405878 0.6924462 0.405878 0.6688086 0.3803803 0.6924462 0.3618575 0.7524901 0.07376706 0.7923061 0.06482893 0.7764723 0.08962023 0.8342477 0.1012093 0.7748011 0.1262673 0.7764723 0.08962023 0.6031745 0.281605 0.5950298 0.2861829 0.6330432 0.182668 0.7492588 0.0968275 0.7524901 0.07376706 0.7764723 0.08962023 0.2758616 0.2675418 0.2569594 0.3078754 0.2506238 0.2736652 0.2569594 0.3078754 0.2273333 0.2803817 0.2506238 0.2736652 0.2273333 0.2803817 0.2270105 0.2463071 0.2506238 0.2736652 0.2270105 0.2463071 0.2556599 0.2466692 0.2506238 0.2736652 0.2556599 0.2466692 0.2758616 0.2675418 0.2506238 0.2736652 0.2108998 0.3241707 0.1706633 0.2611883 0.2273333 0.2803817 0.1706633 0.2611883 0.1911938 0.199558 0.2270105 0.2463071 0.2270105 0.2463071 0.1911938 0.199558 0.231944 0.1979534 0.2758616 0.2675418 0.265924 0.2019369 0.3017857 0.2118157 0.4204497 0.6666979 0.4484647 0.6353271 0.4736868 0.6822369 0.1656638 0.7991687 0.1863495 0.7761757 0.2092641 0.7952331 0.2178137 0.7000528 0.1840466 0.6837864 0.2314544 0.700734 0.7154564 0.12744 0.7748011 0.1262673 0.6842319 0.2022655 0.6974928 0.1415948 0.6842319 0.2022655 0.6777064 0.1896239 0.174105 0.967049 0.1735574 0.9611586 0.2495957 0.9818012 0.5939889 0.4249073 0.5941713 0.4376707 0.5680562 0.4307058 0.311284 0.3553524 0.3115692 0.4909251 0.2455937 0.5265646 0.708606 0.122128 0.726424 0.08655858 0.7154564 0.12744 0.6697714 0.2554869 0.6688086 0.2480235 0.6802647 0.2514264 0.3103482 0.6818876 0.2765113 0.7209637 0.1928062 0.7250289 0.3103482 0.6818876 0.2178137 0.7000528 0.3104032 0.6787831 0.1732746 0.9313138 0.1729189 0.8932627 0.2760847 0.9077481 0.3472665 0.6432192 0.3514549 0.5605831 0.348189 0.6428454 0.3101661 0.6926918 0.3095981 0.7116543 0.2765113 0.7209637 0.3111337 0.5848354 0.2455937 0.5265646 0.3112095 0.5402155 0.6748687 0.2001398 0.6777064 0.1896239 0.6842319 0.2022655 0.8751328 0.9144433 0.8605379 0.8876581 0.8825781 0.8788148 0.1840466 0.6837864 0.1846076 0.656132 0.2314544 0.700734 0.6103034 0.8779804 0.6103034 0.8872673 0.6037123 0.8810101 0.1860294 0.5345338 0.1869396 0.4743373 0.2455937 0.5265646 0.228323 0.3861024 0.2233768 0.3725509 0.2321504 0.3798384 0.3013464 0.9064978 0.3013969 0.915044 0.2760847 0.9077481 0.8733654 0.9145474 0.8508136 0.9188893 0.8605379 0.8876581 0.2601458 0.329882 0.2415014 0.3608548 0.2569594 0.3078754 0.8964132 0.9188893 0.8765197 0.9143834 0.8920722 0.8926734 0.1846076 0.656132 0.2177124 0.6496741 0.2314544 0.700734 0.3017857 0.2118157 0.2824406 0.27851 0.2758616 0.2675418 0.2684178 0.3073178 0.2601458 0.329882 0.2569594 0.3078754 0.8751328 0.9144433 0.8920722 0.8926734 0.8765197 0.9143834 0.03788512 0.8540391 0.03768706 0.8305473 0.08507949 0.8433144 0.3078282 0.06420594 0.308574 0.1183698 0.2620844 0.09724396 0.231928 0.03000754 0.2900666 0.1184375 0.2752707 0.1567208 0.3097819 0.206454 0.31001 0.2205283 0.2923721 0.2136099 0.7378626 0.8198005 0.735604 0.8048294 0.7533212 0.8085874 0.735604 0.9450515 0.7390994 0.9103484 0.7673072 0.9135357 0.185053 0.1607418 0.2756872 0.1495062 0.2923721 0.2136099 0.187454 0.3274669 0.1868019 0.275341 0.2349863 0.2758849 0.1842675 0.1119948 0.1829454 0.0330761 0.2620844 0.09724396 0.18605 0.2152401 0.185053 0.1607418 0.2923721 0.2136099 0.3072264 0.02764195 0.3078282 0.06420594 0.2620844 0.09724396 0.2846327 0.4540805 0.2698673 0.5132758 0.2133919 0.5093928 0.7484984 0.6928687 0.7503033 0.67242 0.7527328 0.6970143 0.7490274 0.5870622 0.7856608 0.5637152 0.7755001 0.6251755 0.7560545 0.6348583 0.7490274 0.5870622 0.7755001 0.6251755 0.2884529 0.05256837 0.1688193 0.05642044 0.1627078 0.01784867 0.2884529 0.05256837 0.2954182 0.129737 0.2548406 0.1236276 0.7477372 0.700998 0.7484984 0.6928687 0.7527328 0.6970143 0.2846327 0.4540805 0.2337539 0.4521409 0.2884813 0.440367 0.7503033 0.67242 0.7755001 0.6251755 0.7527328 0.6970143 0.01487821 0.2418153 0.009687721 0.2418879 0.01073372 0.2384526 0.0373187 0.5080906 0.04135727 0.4614757 0.1114364 0.5467103 0.1768948 0.4728348 0.1806414 0.4549373 0.1866496 0.4700632 0.1736559 0.1218568 0.1688193 0.05642044 0.2548406 0.1236276 0.1482772 0.09273111 0.193854 0.01784861 0.2098475 0.1424545 0.1627078 0.4972307 0.1866496 0.4700632 0.2133919 0.5093928 0.1823153 0.4120684 0.2432112 0.3822218 0.2337539 0.4521409 0.6421901 0.6934933 0.637194 0.7127612 0.627248 0.7056047 0.1830817 0.2977087 0.2752751 0.2907354 0.2432112 0.3822218 0.6329509 0.7276784 0.6087849 0.7637714 0.627248 0.7056047 0.1806414 0.4549373 0.2337539 0.4521409 0.1866496 0.4700632 0.1476777 0.1789788 0.1482772 0.09273111 0.2098475 0.1424545 0.6609666 0.6002737 0.6591272 0.6192689 0.6446665 0.5952301 0.1798796 0.2202938 0.1736559 0.1218568 0.2548406 0.1236276 0.1476777 0.1789788 0.2098475 0.1424545 0.2010937 0.4175786 0.1729163 0.7739466 0.3010834 0.7727782 0.3011048 0.7869724 0.236748 0.5415543 0.3010874 0.7625711 0.1733585 0.612616 0.1729189 0.8932627 0.1728683 0.831218 0.2760847 0.9077481 0.1737949 0.4809149 0.1850234 0.4174591 0.2254436 0.5027217 0.1733585 0.612616 0.1736088 0.5420132 0.2069345 0.5417739 0.723633 0.3444708 0.8476702 0.3335305 0.8476001 0.4894204 0.3011358 0.5036098 0.2768359 0.5412623 0.2254436 0.5027217 0.4443554 0.3484862 0.4389756 0.3463525 0.4448627 0.3467935 0.3011239 0.5594766 0.236748 0.5415543 0.2768359 0.5412623 0.3012814 0.8986924 0.3013464 0.9064978 0.2760847 0.9077481 0.4514638 0.3483294 0.4443554 0.3484862 0.4448627 0.3467935 0.2744057 0.176194 0.2010937 0.4175786 0.2098475 0.1424545 0.3011048 0.7869724 0.3012814 0.8986924 0.2760847 0.9077481 0.3012436 0.4292988 0.3011358 0.5036098 0.2254436 0.5027217 0.2911993 0.582396 0.2916836 0.7069261 0.1714358 0.6133679 0.4254313 0.6272726 0.4379045 0.6233958 0.4484647 0.6353271 0.8473598 0.04087948 0.8348748 0.08099144 0.84179 0.03522282 0.2922049 0.5030665 0.2231817 0.4678862 0.291867 0.4253487 0.762845 0.8592328 0.7396137 0.8554283 0.7390014 0.8426365 0.2922049 0.9036836 0.2921844 0.9186689 0.2867581 0.9216994 0.4379045 0.6233958 0.4508646 0.6153688 0.4484647 0.6353271 0.291867 0.4253487 0.2531825 0.3444492 0.29176 0.3682574 0.5482452 0.5750914 0.5923573 0.5599234 0.5480038 0.5929283 0.2922049 0.9036836 0.2516433 0.8393107 0.2914416 0.796833 0.2909119 0.1520525 0.2913007 0.2180807 0.2752707 0.1567208 0.2900666 0.1184375 0.2909119 0.1520525 0.2752707 0.1567208 0.2921844 0.9186689 0.2919641 0.9241392 0.2867581 0.9216994 0.2922049 0.5030665 0.2919914 0.5576971 0.2704494 0.5535708 0.8476104 0.0826494 0.8476702 0.1342889 0.8348748 0.08099144 0.4876385 0.6033558 0.4932566 0.5961248 0.5018515 0.62059 0.4549855 0.5653506 0.4153872 0.5896428 0.4090793 0.5497823 0.4105565 0.5932918 0.4090793 0.5497823 0.4153872 0.5896428 0.7231131 0.2767556 0.7228671 0.2150158 0.7769699 0.238734 0.1645028 0.80615 0.1658002 0.7820385 0.1941593 0.7747638 0.8938791 0.1626796 0.8543825 0.1296877 0.8920021 0.15987 0.4306659 0.2555527 0.4421144 0.2559362 0.4361562 0.275845 0.1645028 0.80615 0.2188979 0.8587883 0.1629835 0.8573642 0.1665424 0.4628192 0.1650547 0.3447094 0.2231817 0.4678862 0.1648977 0.3072586 0.164808 0.1919423 0.2048586 0.2164819 0.8374534 0.1004972 0.8408518 0.104112 0.8342477 0.1012093 0.4560925 0.5648083 0.4660585 0.5192656 0.4570816 0.5645696 0.8339803 0.0952928 0.8374534 0.1004972 0.8342477 0.1012093 0.1653156 0.1203364 0.1649149 0.09245365 0.1868284 0.1033882 0.4998382 0.5481871 0.4602968 0.5632042 0.4942632 0.5363273 0.164808 0.1919423 0.1868284 0.1033882 0.2048586 0.2164819 0.1670064 0.6173985 0.1670129 0.6134585 0.1714358 0.6133679 0.2559132 0.6137194 0.2610901 0.6137242 0.255914 0.6187569 0.4467576 0.2005352 0.41655 0.200421 0.4774742 0.1797215 0.1890999 0.6138301 0.1657521 0.6141135 0.1868529 0.589091 0.1579645 0.4174591 0.2010937 0.4175786 0.1983847 0.5027217 0.4662178 0.2006121 0.4467576 0.2005352 0.4774742 0.1797215 0.723633 0.3444708 0.7231131 0.2767556 0.7769699 0.238734 0.2010937 0.4175786 0.2741847 0.4292988 0.1983847 0.5027217 0.7828645 0.3112807 0.6972139 0.3370266 0.6999158 0.03004676 0.1850234 0.4174591 0.1739747 0.4174274 0.1740403 0.3942914 0.7828645 0.3112807 0.782621 0.4402281 0.6972139 0.3370266 0.8476001 0.4894204 0.8475087 0.7010132 0.7855787 0.7009851 0.5275294 0.2008313 0.4787575 0.200708 0.4774742 0.1797215 0.2768359 0.5412623 0.3011278 0.5410853 0.3011239 0.5594766 0.4610763 0.2563332 0.4821557 0.2562812 0.4851751 0.3056575 0.6647369 0.5535327 0.664993 0.5401863 0.7061834 0.5217184 0.1315003 0.666908 0.03734225 0.6756806 0.0373345 0.6676501 0.6648172 0.3715867 0.6647078 0.3305586 0.6972139 0.3370266 0.1908554 0.6657204 0.2127642 0.7097595 0.1869444 0.7222563 0.7259894 0.7009748 0.7257526 0.6658666 0.7384032 0.700969 0.2768359 0.5412623 0.236748 0.5415543 0.2254436 0.5027217 0.2069345 0.5417739 0.1736539 0.52928 0.2254436 0.5027217 0.1444642 0.6666956 0.1908554 0.6657204 0.1869444 0.7222563 0.4821557 0.2562812 0.5827085 0.2555212 0.4851751 0.3056575 0.236748 0.5415543 0.2069345 0.5417739 0.2254436 0.5027217 0.2868245 0.1855096 0.265924 0.2019369 0.2743211 0.1843095 0.8328101 0.5471034 0.8321578 0.6807798 0.7388508 0.6939607 0.14563 0.1820704 0.1502368 0.1820956 0.1483078 0.1846922 0.2027732 0.6649219 0.2177352 0.6640991 0.2198616 0.6933293 0.833903 0.1851034 0.7926173 0.1710458 0.8341009 0.164714 0.8334861 0.301195 0.8332822 0.4038005 0.7171974 0.4230868 0.8319042 0.7389624 0.757867 0.7728558 0.7388508 0.6939607 0.2227006 0.1835687 0.2391557 0.1834527 0.231944 0.1979534 0.8321578 0.6807798 0.8319042 0.7389624 0.7388508 0.6939607 0.2655183 0.183612 0.2743211 0.1843095 0.265924 0.2019369 0.2591027 0.1839544 0.231944 0.1979534 0.2391557 0.1834527 0.8332822 0.4038005 0.83287 0.5324156 0.7171974 0.4230868 0.2710505 0.1322881 0.1921706 0.1300851 0.2795721 0.120495 0.08854448 0.130057 0.0749045 0.1313168 0.07360935 0.1194886 0.2825632 0.1329306 0.2710505 0.1322881 0.2795721 0.120495 0.7814946 0.5953596 0.7373397 0.5918228 0.7061834 0.5217184 0.3362323 0.4234477 0.3362387 0.4218151 0.3373994 0.4230868 0.7140135 0.8026705 0.7146087 0.7852985 0.757867 0.7728558 0.1890999 0.6138301 0.2061702 0.6034132 0.2029262 0.6135412 0.1881209 0.1299779 0.1056808 0.130008 0.124819 0.06179875 0.1921706 0.1300851 0.2303784 0.08262807 0.2795721 0.120495 0.33623 0.4246943 0.3362323 0.4234477 0.3373994 0.4230868 0.7819845 0.5569386 0.7814946 0.5953596 0.7061834 0.5217184 0.1056808 0.130008 0.06489908 0.08368098 0.124819 0.06179875 0.7150725 0.7420458 0.715233 0.7189505 0.7388508 0.6939607 0.2756872 0.1495062 0.308574 0.1183698 0.3089898 0.1486924 0.7145122 0.06078171 0.7140135 0.03961598 0.7222456 0.03909397 0.1849174 0.1523297 0.2620844 0.09724396 0.2756872 0.1495062 0.3020208 0.135304 0.2825632 0.1329306 0.2795721 0.120495 0.3007742 0.2765827 0.3105407 0.2766862 0.311284 0.3553524 0.3007742 0.2765827 0.2349863 0.2758849 0.2923721 0.2136099 0.2957598 0.1872492 0.3053917 0.1888571 0.3017857 0.2118157 0.2349863 0.2758849 0.18605 0.2152401 0.2923721 0.2136099 0.6823179 0.6716856 0.7421063 0.7494854 0.6633521 0.7021737 0.8339458 0.06767839 0.8097112 0.1221567 0.7769169 0.09607154 0.7171974 0.4230868 0.7388508 0.6939607 0.7152463 0.6874382 0.1714358 0.6133679 0.1941593 0.7747638 0.1660244 0.7634938 0.2495957 0.9818012 0.1735574 0.9611586 0.1732746 0.9313138 0.3091985 0.1187832 0.3086274 0.1359943 0.3020208 0.135304 0.2760847 0.9077481 0.3013969 0.915044 0.3016335 0.9702431 0.5275294 0.2008313 0.4774742 0.1797215 0.5587653 0.1174686 0.5587653 0.1174686 0.5937294 0.1908957 0.5275294 0.2008313 0.2077768 0.9785189 0.1743807 0.9692978 0.174105 0.967049 0.8149104 0.06622546 0.8339803 0.0952928 0.8342477 0.1012093 0.6446665 0.5952301 0.5480038 0.5929283 0.5923573 0.5599234 0.1114364 0.5467103 0.04251247 0.6137242 0.03733557 0.6137194 0.4361562 0.275845 0.4421144 0.2559362 0.4610763 0.2563332 0.5602551 0.3572167 0.5936539 0.3817261 0.5937588 0.4086303 0.3947663 0.6705654 0.3877857 0.6394035 0.3889454 0.6375572 0.2916836 0.7069261 0.2912454 0.7548023 0.1941593 0.7747638 0.7378626 0.8198005 0.7533212 0.8085874 0.762845 0.8592328 0.7533212 0.8085874 0.7729311 0.8608902 0.762845 0.8592328 0.2752751 0.2907354 0.1819624 0.2636423 0.1798796 0.2202938 0.7373397 0.5918228 0.664011 0.598572 0.6647369 0.5535327 0.1483078 0.1846922 0.1049821 0.2462241 0.1036832 0.1821923 0.2531825 0.3444492 0.2752707 0.1567208 0.2913007 0.2180807 0.4508646 0.6153688 0.4876385 0.6033558 0.5018515 0.62059 0.2061702 0.6034132 0.2254746 0.5984682 0.215685 0.6127876 0.6087125 0.793221 0.6038304 0.7991743 0.5773753 0.7936794 0.4024353 0.1792532 0.4774742 0.1797215 0.41655 0.200421 0.5937588 0.4086303 0.5939889 0.4249073 0.5680562 0.4307058 0.5790359 0.04627239 0.5940553 0.05861854 0.5938299 0.09675049 0.1794052 0.0689007 0.1885117 0.1299828 0.1881209 0.1299779 0.782621 0.4402281 0.7822032 0.5136938 0.7061834 0.5217184 0.2127642 0.7097595 0.1981341 0.6654198 0.2027732 0.6649219 0.7769169 0.09607154 0.7852239 0.2186157 0.71619 0.159981 0.193854 0.01784861 0.2749047 0.06542325 0.27483 0.07915663 0.2415014 0.3608548 0.2437257 0.364632 0.2360397 0.378167 0.7061834 0.5217184 0.6650586 0.5177248 0.6648172 0.3715867 0.4204497 0.6666979 0.3889454 0.6375572 0.3932219 0.6356814 0.2303784 0.08262807 0.1890243 0.1299762 0.1885117 0.1299828 0.2704494 0.5535708 0.2919914 0.5576971 0.2911993 0.582396 0.6526212 0.6490901 0.6421901 0.6934933 0.627248 0.7056047 0.1185256 0.8223872 0.037647 0.8269407 0.03760814 0.8235921 0.03873127 0.7687988 0.1157233 0.7954023 0.03760814 0.8235921 0.1928062 0.7250289 0.1826414 0.7215495 0.1833278 0.698163 0.07360935 0.1194886 0.06489908 0.08368098 0.09580981 0.1297111 0.7759267 0.03000754 0.7769169 0.09607154 0.7145122 0.06078171 0.7769169 0.09607154 0.7161267 0.123176 0.7145122 0.06078171 0.4560925 0.5648083 0.4549855 0.5653506 0.4090793 0.5497823 0.1911938 0.199558 0.1905568 0.1826865 0.2227006 0.1835687 0.2752751 0.2907354 0.2548406 0.1236276 0.2973363 0.1815233 0.2432112 0.3822218 0.2752751 0.2907354 0.2938079 0.3741914 0.2824406 0.27851 0.2684178 0.3073178 0.2569594 0.3078754 0.7431382 0.512308 0.7856608 0.5637152 0.7465915 0.5636038 0.2756872 0.1495062 0.3089898 0.1486924 0.3097819 0.206454 0.2516433 0.8393107 0.1941593 0.7747638 0.2912454 0.7548023 0.4105565 0.5932918 0.4062535 0.6037521 0.3891345 0.6101104 0.7769699 0.238734 0.8003045 0.1314928 0.8476528 0.2309604 0.7759267 0.03000754 0.8341073 0.03668433 0.8339458 0.06767839 0.6162472 0.6363515 0.6446665 0.5952301 0.6591272 0.6192689 0.5018515 0.62059 0.4932566 0.5961248 0.5085856 0.5885294 0.5602551 0.3572167 0.4851751 0.3056575 0.5936405 0.2863364 0.4851751 0.3056575 0.5827085 0.2555212 0.5936405 0.2863364 0.1649209 0.3280386 0.1648977 0.3072586 0.2048586 0.2164819 0.1714358 0.6133679 0.1669687 0.5989739 0.1665424 0.4628192 0.3016335 0.9702431 0.3019636 0.9790475 0.291772 0.9821513 0.2349863 0.2758849 0.3007742 0.2765827 0.311284 0.3553524 0.7994349 0.04025328 0.8060562 0.04544115 0.7923061 0.06482893 0.0732066 0.2116413 0.08543121 0.1821464 0.1036832 0.1821923 0.1856455 0.5832352 0.1860294 0.5345338 0.2455937 0.5265646 0.7370911 0.7296045 0.735604 0.7301921 0.7452014 0.7064267 0.7228671 0.2150158 0.7226485 0.1773189 0.7776178 0.1554834 0.3011088 0.07700735 0.3095494 0.08529949 0.3091985 0.1187832 0.6802647 0.2514264 0.6969885 0.2728942 0.6720696 0.2702444 0.1483078 0.1846922 0.1502368 0.1820956 0.1905568 0.1826865 0.7171974 0.4230868 0.83287 0.5324156 0.8328101 0.5471034 0.757867 0.7728558 0.7146087 0.7852985 0.7150725 0.7420458 0.07360935 0.1194886 0.0749045 0.1313168 0.06934219 0.1333532 0.1868529 0.589091 0.1657521 0.6141135 0.1254704 0.613904 0.6633521 0.7021737 0.7421063 0.7494854 0.7444844 0.7693469 0.31001 0.2205283 0.3105407 0.2766862 0.3007742 0.2765827 0.5363368 0.5415111 0.4998382 0.5481871 0.4942632 0.5363273 0.08507949 0.8433144 0.03768706 0.8305473 0.037647 0.8269407 0.6647078 0.3305586 0.6633521 0.03000754 0.6999158 0.03004676 0.121617 0.7387564 0.1315003 0.666908 0.1444642 0.6666956 0.6802647 0.2514264 0.6688086 0.2480235 0.6723539 0.2190136 0.1650547 0.3447094 0.1649209 0.3280386 0.2531825 0.3444492 0.121617 0.7387564 0.03873127 0.7687988 0.03743165 0.7643548 0.3106799 0.667051 0.3105283 0.6795946 0.2314544 0.700734 0.8476702 0.1342889 0.8476528 0.2309604 0.8003045 0.1314928 0.2900397 0.4215254 0.2884813 0.440367 0.2337539 0.4521409 0.8097112 0.1221567 0.8340184 0.1365357 0.8341009 0.164714 0.7852239 0.2186157 0.8337625 0.2487675 0.8334861 0.301195 0.7852239 0.2186157 0.7171974 0.4230868 0.7160373 0.4117684 0.2178137 0.7000528 0.1836204 0.6855192 0.1840466 0.6837864 0.6974928 0.1415948 0.7154564 0.12744 0.6842319 0.2022655 0.708606 0.122128 0.7202758 0.08994036 0.726424 0.08655858 0.3103482 0.6818876 0.3101661 0.6926918 0.2765113 0.7209637 0.3103482 0.6818876 0.1928062 0.7250289 0.2178137 0.7000528 0.3472665 0.6432192 0.3472665 0.5489732 0.3514549 0.5605831 0.3111337 0.5848354 0.270213 0.655063 0.2455937 0.5265646 0.8751328 0.9144433 0.8733654 0.9145474 0.8605379 0.8876581 0.228323 0.3861024 0.1935912 0.3797503 0.2233768 0.3725509 0.2601458 0.329882 0.2460029 0.3610522 0.2415014 0.3608548 0.1846076 0.656132 0.1847857 0.6489574 0.2177124 0.6496741 0.8751328 0.9144433 0.8825781 0.8788148 0.8920722 0.8926734 0.231928 0.03000754 0.2881167 0.04125672 0.2900666 0.1184375 0.185053 0.1607418 0.1849174 0.1523297 0.2756872 0.1495062 0.2620844 0.09724396 0.1829454 0.0330761 0.3072264 0.02764195 0.1829454 0.0330761 0.1826415 0.01784867 0.3072264 0.02764195 0.7490274 0.5870622 0.7465915 0.5636038 0.7856608 0.5637152 0.1627078 0.01784867 0.2833483 0.02096384 0.2884529 0.05256837 0.2884529 0.05256837 0.2548406 0.1236276 0.1688193 0.05642044 0.2846327 0.4540805 0.2133919 0.5093928 0.2337539 0.4521409 0.7503033 0.67242 0.7560545 0.6348583 0.7755001 0.6251755 0.0373187 0.5080906 0.03750044 0.4652917 0.04135727 0.4614757 0.1482772 0.09273111 0.1485936 0.04451692 0.193854 0.01784861 0.1627078 0.4972307 0.1768948 0.4728348 0.1866496 0.4700632 0.1823153 0.4120684 0.1838077 0.3881287 0.2432112 0.3822218 0.1830817 0.2977087 0.1819624 0.2636423 0.2752751 0.2907354 0.6329509 0.7276784 0.6203149 0.7662964 0.6087849 0.7637714 0.1806414 0.4549373 0.1823153 0.4120684 0.2337539 0.4521409 0.1579645 0.4174591 0.1469814 0.3942914 0.2010937 0.4175786 0.1469814 0.3942914 0.1476777 0.1789788 0.2010937 0.4175786 0.2760847 0.9077481 0.1728683 0.831218 0.3011048 0.7869724 0.1728683 0.831218 0.1729163 0.7739466 0.3011048 0.7869724 0.3010834 0.7727782 0.1729163 0.7739466 0.3010874 0.7625711 0.1729163 0.7739466 0.1733585 0.612616 0.3010874 0.7625711 0.1733585 0.612616 0.2069345 0.5417739 0.236748 0.5415543 0.1737949 0.4809149 0.1739747 0.4174274 0.1850234 0.4174591 0.8476001 0.4894204 0.7855787 0.7009851 0.7257526 0.6658666 0.7855787 0.7009851 0.7384032 0.700969 0.7257526 0.6658666 0.7257526 0.6658666 0.723633 0.3444708 0.8476001 0.4894204 0.3011358 0.5036098 0.3011278 0.5410853 0.2768359 0.5412623 0.3011239 0.5594766 0.3010874 0.7625711 0.236748 0.5415543 0.2744057 0.176194 0.2741947 0.4177774 0.2010937 0.4175786 0.8473598 0.04087948 0.8476104 0.0826494 0.8348748 0.08099144 0.2922049 0.5030665 0.2704494 0.5535708 0.2231817 0.4678862 0.291867 0.4253487 0.2231817 0.4678862 0.2531825 0.3444492 0.2922049 0.9036836 0.2867581 0.9216994 0.2516433 0.8393107 0.4105565 0.5932918 0.3841867 0.5667567 0.4090793 0.5497823 0.8938791 0.1626796 0.829361 0.1531695 0.8543825 0.1296877 0.1645028 0.80615 0.1941593 0.7747638 0.2188979 0.8587883 0.4560925 0.5648083 0.4238395 0.512308 0.4660585 0.5192656 0.164808 0.1919423 0.1653156 0.1203364 0.1868284 0.1033882 0.7769699 0.238734 0.847644 0.2932482 0.8476702 0.3335305 0.8476702 0.3335305 0.723633 0.3444708 0.7769699 0.238734 0.2010937 0.4175786 0.2741947 0.4177774 0.2741847 0.4292988 0.7723492 0.03000754 0.7835382 0.0465126 0.6999158 0.03004676 0.7835382 0.0465126 0.7828645 0.3112807 0.6999158 0.03004676 0.1315003 0.666908 0.121617 0.7387564 0.03734225 0.6756806 0.1908554 0.6657204 0.1981341 0.6654198 0.2127642 0.7097595 0.2069345 0.5417739 0.1736088 0.5420132 0.1736539 0.52928 0.2868245 0.1855096 0.3017857 0.2118157 0.265924 0.2019369 0.833903 0.1851034 0.7852239 0.2186157 0.7926173 0.1710458 0.8319042 0.7389624 0.8313232 0.7716569 0.757867 0.7728558 0.2591027 0.1839544 0.265924 0.2019369 0.231944 0.1979534 0.7814946 0.5953596 0.7811992 0.6116705 0.7373397 0.5918228 0.1890999 0.6138301 0.1868529 0.589091 0.2061702 0.6034132 0.1921706 0.1300851 0.1890243 0.1299762 0.2303784 0.08262807 0.1056808 0.130008 0.09580981 0.1297111 0.06489908 0.08368098 0.2756872 0.1495062 0.2620844 0.09724396 0.308574 0.1183698 0.1849174 0.1523297 0.1842675 0.1119948 0.2620844 0.09724396 0.2349863 0.2758849 0.1868019 0.275341 0.18605 0.2152401 0.6823179 0.6716856 0.7454414 0.6716856 0.7421063 0.7494854 0.8339458 0.06767839 0.8338378 0.096475 0.8097112 0.1221567</float_array>
          <technique_common>
            <accessor source="#Mesh-mesh-map-0-array" count="1986" stride="2">
              <param name="S" type="float"/>
              <param name="T" type="float"/>
            </accessor>
          </technique_common>
        </source>
        <vertices id="Mesh-mesh-vertices">
          <input semantic="POSITION" source="#Mesh-mesh-positions"/>
        </vertices>
        <triangles material="M_Florp_001-material" count="277">
          <input semantic="VERTEX" source="#Mesh-mesh-vertices" offset="0"/>
          <input semantic="NORMAL" source="#Mesh-mesh-normals" offset="1"/>
          <input semantic="TEXCOORD" source="#Mesh-mesh-map-0" offset="2" set="0"/>
          <p>117 9 9 317 10 10 316 11 11 38 15 15 263 16 16 265 17 17 90 18 18 174 19 19 19 20 20 19 20 33 189 32 34 90 18 35 138 33 36 94 34 37 9 35 38 71 42 45 209 43 46 210 44 47 145 52 57 172 53 58 90 18 59 62 69 75 313 70 76 317 10 77 117 9 120 320 105 121 322 106 122 40 107 123 175 108 124 179 109 125 155 114 132 77 115 133 25 116 134 248 123 147 76 124 148 38 15 149 127 130 156 219 131 157 71 42 158 27 132 159 288 133 160 43 134 161 147 143 177 243 64 178 246 144 179 124 149 195 186 150 196 191 151 197 9 35 198 194 152 199 138 33 200 76 124 216 273 161 217 263 16 218 109 164 231 213 165 232 207 72 233 86 167 237 38 15 238 13 168 239 285 180 270 43 134 271 144 181 272 84 182 276 319 183 277 321 184 278 2 187 282 213 165 283 109 164 284 43 134 294 298 190 295 144 181 296 86 167 327 249 197 328 38 15 329 6 208 360 182 209 361 95 210 362 59 211 369 229 212 370 233 213 371 139 215 381 141 216 382 61 217 383 203 222 393 326 28 394 204 223 395 38 15 405 261 225 406 262 226 407 127 130 423 210 44 424 208 232 425 20 233 426 211 234 427 214 235 428 43 134 447 276 239 448 312 154 449 325 241 462 196 242 463 120 243 464 141 216 465 251 244 466 258 126 467 77 115 471 284 246 472 287 247 473 155 114 480 25 116 481 139 215 482 3 249 483 61 217 484 80 250 485 162 251 504 84 182 505 163 252 506 163 252 507 84 182 508 7 253 509 203 222 510 329 254 511 84 182 512 266 261 537 122 262 538 147 143 539 38 15 540 271 263 541 13 168 542 90 18 543 6 208 544 145 52 545 189 32 546 6 208 547 90 18 548 332 264 564 94 34 565 138 33 566 95 210 570 182 209 571 184 266 572 191 151 585 9 35 586 124 149 587 43 134 597 292 268 598 297 269 599 275 278 642 25 116 643 77 115 644 117 9 684 306 137 685 62 69 686 27 132 687 315 219 688 62 69 689 6 208 696 190 282 697 195 283 698 6 208 699 192 284 700 190 282 701 1 285 708 196 242 709 75 286 710 197 287 711 328 288 712 120 243 713 122 262 717 1 285 718 75 286 719 75 286 720 147 143 721 122 262 722 124 149 729 9 35 730 40 107 731 38 15 783 264 227 784 261 225 785 7 253 792 300 293 793 303 294 794 3 249 795 155 114 796 139 215 797 61 217 798 3 249 799 139 215 800 20 233 801 220 295 802 227 290 803 25 116 807 76 124 808 141 216 809 25 116 810 141 216 811 139 215 812 294 296 822 238 297 823 144 181 824 34 298 831 2 187 832 146 299 833 269 291 837 147 143 838 13 168 839 179 109 861 152 302 862 40 107 863 124 149 864 40 107 865 152 302 866 250 159 879 155 114 880 80 250 881 3 249 882 80 250 883 155 114 884 214 235 909 34 298 910 20 233 911 127 130 912 208 232 913 211 234 914 7 253 924 308 304 925 163 252 926 162 251 927 310 305 928 307 306 929 162 251 930 305 230 931 117 9 932 162 251 933 322 106 934 319 183 935 9 35 939 178 307 940 180 308 941 95 210 996 188 189 997 152 302 998 172 53 1005 170 280 1006 90 18 1007 94 34 1011 178 307 1012 9 35 1013 181 120 1020 145 52 1021 6 208 1022 181 120 1023 95 210 1024 173 7 1025 174 19 1026 177 91 1027 19 20 1028 173 7 1029 152 302 1030 176 8 1031 171 275 1032 169 310 1033 145 52 1034 175 108 1035 9 35 1036 180 308 1037 188 189 1044 187 175 1045 152 302 1046 193 311 1050 194 152 1051 9 35 1052 183 292 1056 185 312 1057 19 20 1058 187 175 1068 124 149 1069 152 302 1070 198 129 1083 200 128 1084 110 313 1085 196 242 1086 247 127 1087 75 286 1088 196 242 1089 197 287 1090 120 243 1091 204 223 1098 325 241 1099 120 243 1100 138 33 1101 330 316 1102 332 264 1103 201 27 1104 205 279 1105 110 313 1106 203 222 1107 204 223 1108 120 243 1109 199 314 1110 198 129 1111 110 313 1112 206 185 1113 216 317 1114 2 187 1115 215 237 1125 217 255 1126 199 314 1127 215 237 1128 209 43 1129 71 42 1130 206 185 1134 34 298 1135 212 186 1136 213 165 1140 216 317 1141 45 201 1142 218 274 1146 224 104 1147 146 299 1148 223 199 1149 217 255 1150 71 42 1151 221 273 1152 2 187 1153 109 164 1154 226 272 1155 146 299 1156 2 187 1157 225 103 1158 20 233 1159 34 298 1160 227 290 1164 127 130 1165 20 233 1166 224 104 1170 34 298 1171 146 299 1172 222 163 1173 221 273 1174 109 164 1175 219 131 1179 223 199 1180 71 42 1181 222 163 1182 109 164 1183 282 318 1184 231 98 1185 236 319 1186 239 207 1187 291 320 1188 237 300 1189 232 260 1190 177 91 1191 234 99 1192 19 20 1193 233 213 1194 279 321 1195 59 211 1196 232 260 1197 296 259 1198 293 322 1199 299 323 1200 278 248 1201 281 47 1202 238 297 1203 295 324 1204 59 211 1205 236 319 1206 237 300 1207 82 206 1208 240 301 1209 291 320 1210 295 324 1211 235 205 1212 183 292 1213 19 20 1214 239 207 1215 236 319 1216 82 206 1217 207 72 1218 282 318 1219 109 164 1220 239 207 1221 235 205 1222 19 20 1223 241 325 1224 238 297 1225 59 211 1226 249 197 1227 248 123 1228 38 15 1229 256 218 1233 80 250 1234 61 217 1235 245 256 1236 13 168 1237 255 257 1238 242 125 1242 257 118 1243 61 217 1244 255 257 1248 147 143 1249 246 144 1250 242 125 1254 141 216 1255 258 126 1256 244 65 1257 243 64 1258 75 286 1259 247 127 1260 244 65 1261 75 286 1262 257 118 1263 256 218 1264 61 217 1265 245 256 1266 254 327 1267 86 167 1268 253 160 1269 250 159 1270 80 250 1271 260 73 1281 275 278 1282 77 115 1283 272 276 1284 273 161 1285 76 124 1286 272 276 1293 25 116 1294 270 277 1295 271 263 1296 269 291 1297 13 168 1298 259 328 1299 274 60 1300 122 262 1301 268 240 1311 267 265 1312 1 285 1313 274 60 1317 1 285 1318 122 262 1319 265 17 1320 264 227 1321 38 15 1322 286 71 1323 277 14 1324 241 325 1325 279 321 1332 282 318 1333 59 211 1334 299 323 1338 260 73 1339 77 115 1340 282 318 1341 241 325 1342 59 211 1343 283 13 1344 144 181 1345 238 297 1346 279 321 1347 280 46 1348 230 45 1349 283 13 1350 285 180 1351 144 181 1352 281 47 1353 280 46 1354 233 213 1355 295 324 1359 289 329 1360 240 301 1361 288 133 1365 292 268 1366 43 134 1367 298 190 1371 294 296 1372 144 181 1373 296 259 1377 290 258 1378 229 212 1379 295 324 1380 291 320 1381 59 211 1382 293 322 1383 229 212 1384 59 211 1385 291 320 1392 293 322 1393 59 211 1394 306 137 1398 304 136 1399 62 69 1400 310 305 1407 163 252 1408 308 304 1409 305 230 1410 302 281 1411 117 9 1412 301 221 1413 27 132 1414 62 69 1415 304 136 1419 301 221 1420 62 69 1421 302 281 1428 309 330 1429 117 9 1430 323 31 1440 27 132 1441 43 134 1442 318 192 1443 320 105 1444 117 9 1445 314 30 1446 324 331 1447 27 132 1448 316 11 1458 318 192 1459 117 9 1460 312 154 1461 323 31 1462 43 134 1463 315 219 1467 313 70 1468 62 69 1469 325 241 1470 200 128 1471 252 326 1472 326 28 1473 327 332 1474 204 223 1475 327 332 1476 110 313 1477 325 241 1478 328 288 1482 331 315 1483 94 34 1484 328 288 1485 332 264 1486 120 243 1487 332 264 1491 203 222 1492 120 243 1493 267 265 1494 197 287 1495 1 285 1496 329 254 1497 7 253 1498 84 182 1499 117 9 1500 62 69 1501 317 10 1502 38 15 1503 76 124 1504 263 16 1505 90 18 1506 170 280 1507 174 19 1508 19 20 1512 185 312 1513 189 32 1514 145 52 1521 169 310 1522 172 53 1523 248 123 1542 251 244 1543 76 124 1544 127 130 1551 228 289 1552 219 131 1553 27 132 1554 311 220 1555 288 133 1556 147 143 1560 75 286 1561 243 64 1562 285 180 1584 276 239 1585 43 134 1586 84 182 1590 162 251 1591 319 183 1592 2 187 1593 216 317 1594 213 165 1595 43 134 1599 297 269 1600 298 190 1601 86 167 1608 254 327 1609 249 197 1610 6 208 1620 195 283 1621 182 209 1622 203 222 1626 84 182 1627 326 28 1628 84 182 1629 321 184 1630 326 28 1631 127 130 1638 71 42 1639 210 44 1640 20 233 1641 127 130 1642 211 234 1643 325 241 1650 252 326 1651 196 242 1652 141 216 1653 76 124 1654 251 244 1655 77 115 1659 155 114 1660 284 246 1661 203 222 1662 330 316 1663 329 254 1664 266 261 1677 259 328 1678 122 262 1679 38 15 1680 262 226 1681 271 263 1682 189 32 1683 192 284 1684 6 208 1685 332 264 1686 328 288 1687 94 34 1688 191 151 1695 193 311 1696 9 35 1697 275 278 1701 270 277 1702 25 116 1703 117 9 1713 309 330 1714 306 137 1715 27 132 1716 324 331 1717 315 219 1718 1 285 1725 197 287 1726 196 242 1727 197 287 1728 331 315 1729 328 288 1730 294 296 1737 289 329 1738 238 297 1739 269 291 1746 266 261 1747 147 143 1748 179 109 1752 176 8 1753 152 302 1754 250 159 1755 284 246 1756 155 114 1757 214 235 1758 212 186 1759 34 298 1760 7 253 1761 303 294 1762 308 304 1763 162 251 1764 307 306 1765 305 230 1766 162 251 1767 117 9 1768 322 106 1769 95 210 1770 184 266 1771 188 189 1772 181 120 1779 171 275 1780 145 52 1781 181 120 1782 6 208 1783 95 210 1784 173 7 1785 95 210 1786 152 302 1787 175 108 1788 40 107 1789 9 35 1790 187 175 1800 186 150 1801 124 149 1802 196 242 1806 252 326 1807 247 127 1808 204 223 1809 327 332 1810 325 241 1811 110 313 1812 205 279 1813 199 314 1814 205 279 1815 202 238 1816 199 314 1817 199 314 1821 202 238 1822 215 237 1823 215 237 1824 71 42 1825 217 255 1826 206 185 1827 2 187 1828 34 298 1829 221 273 1836 226 272 1837 2 187 1838 226 272 1839 218 274 1840 146 299 1841 225 103 1842 220 295 1843 20 233 1844 227 290 1845 228 289 1846 127 130 1847 224 104 1851 225 103 1852 34 298 1853 279 321 1854 230 45 1855 282 318 1856 230 45 1857 222 163 1858 282 318 1859 19 20 1860 234 99 1861 239 207 1862 234 99 1863 231 98 1864 239 207 1865 236 319 1866 231 98 1867 237 300 1868 231 98 1869 232 260 1870 237 300 1871 232 260 1872 293 322 1873 291 320 1874 233 213 1875 280 46 1876 279 321 1877 281 47 1878 233 213 1879 290 258 1880 233 213 1881 229 212 1882 290 258 1883 290 258 1884 299 323 1885 281 47 1886 238 297 1887 289 329 1888 295 324 1889 240 301 1890 237 300 1891 291 320 1892 207 72 1893 286 71 1894 282 318 1895 256 218 1896 253 160 1897 80 250 1898 245 256 1899 86 167 1900 13 168 1901 255 257 1902 13 168 1903 147 143 1904 242 125 1905 61 217 1906 141 216 1907 272 276 1914 76 124 1915 25 116 1916 274 60 1920 268 240 1921 1 285 1922 77 115 1923 287 247 1924 278 248 1925 278 248 1926 299 323 1927 77 115 1928 282 318 1929 286 71 1930 241 325 1931 241 325 1932 277 14 1933 238 297 1934 277 14 1935 283 13 1936 238 297 1937 293 322 1944 296 259 1945 229 212 1946 310 305 1950 162 251 1951 163 252 1952 301 221 1953 311 220 1954 27 132 1955 323 31 1959 314 30 1960 27 132 1961 325 241 1971 110 313 1972 200 128 1973 327 332 1974 201 27 1975 110 313 1976 332 264 1977 330 316 1978 203 222 1979 267 265 1980 331 315 1981 197 287 1982 329 254 1983 300 293 1984 7 253 1985</p>
        </triangles>
        <triangles material="M_Florp-material" count="385">
          <input semantic="VERTEX" source="#Mesh-mesh-vertices" offset="0"/>
          <input semantic="NORMAL" source="#Mesh-mesh-normals" offset="1"/>
          <input semantic="TEXCOORD" source="#Mesh-mesh-map-0" offset="2" set="0"/>
          <p>63 0 0 126 1 1 26 2 2 123 3 3 42 4 4 52 5 5 106 6 6 173 7 7 176 8 8 135 12 12 283 13 13 277 14 14 151 21 21 157 22 22 143 23 23 69 24 24 142 25 25 159 26 26 201 27 27 326 28 28 63 0 29 49 29 30 314 30 31 323 31 32 65 36 39 108 37 40 79 38 41 87 39 42 140 40 43 104 41 44 230 45 48 280 46 49 281 47 50 42 4 51 130 48 52 52 5 53 107 49 54 114 50 55 154 51 56 39 54 60 99 55 61 0 56 62 60 57 63 119 58 64 113 59 65 274 60 66 129 61 67 121 62 68 85 63 69 243 64 70 244 65 71 128 66 72 156 67 73 78 68 74 135 12 78 286 71 79 207 72 80 107 49 81 260 73 82 18 74 83 23 75 84 48 76 85 22 77 86 136 78 87 11 79 88 15 80 89 54 81 90 15 80 91 93 82 92 4 83 93 111 84 94 103 85 95 113 59 96 74 86 97 60 57 98 17 87 99 8 88 100 88 89 101 58 90 102 177 91 103 92 92 104 36 93 105 18 74 106 137 94 107 47 95 108 66 96 109 56 97 110 58 90 111 231 98 112 234 99 113 28 100 114 105 101 115 68 102 116 140 40 117 225 103 118 224 104 119 100 110 126 87 39 127 104 41 128 72 111 129 131 112 130 35 113 131 57 117 135 257 118 136 48 76 137 105 101 138 128 66 139 91 119 140 106 6 141 181 120 142 173 7 143 150 121 144 60 57 145 46 122 146 130 48 150 242 125 151 258 126 152 247 127 153 200 128 154 198 129 155 67 135 162 304 136 163 306 137 164 128 66 165 148 138 166 156 67 167 41 139 168 28 100 169 68 102 170 36 93 171 137 94 172 5 140 173 55 141 174 54 81 175 158 142 176 248 123 180 52 5 181 130 48 182 108 37 183 106 6 184 79 38 185 115 145 186 106 6 187 55 141 188 97 146 189 134 147 190 113 59 191 66 96 192 31 148 193 56 97 194 51 153 201 323 31 202 312 154 203 83 155 204 33 156 205 16 157 206 224 104 207 104 41 208 140 40 209 35 113 210 102 158 211 22 77 212 57 117 213 250 159 214 253 160 215 93 82 219 36 93 220 5 140 221 37 162 222 55 141 223 158 142 224 177 91 225 37 162 226 92 92 227 104 41 228 222 163 229 131 112 230 65 36 234 79 38 235 89 166 236 121 62 240 129 61 241 167 169 242 21 170 243 79 38 244 164 171 245 88 89 246 12 172 247 17 87 248 125 173 249 143 23 250 74 86 251 70 174 252 186 150 253 187 175 254 21 170 255 164 171 256 165 176 257 96 177 258 316 11 259 14 178 260 148 138 261 14 178 262 156 67 263 22 77 264 48 76 265 153 179 266 100 110 267 42 4 268 87 39 269 99 55 273 288 133 274 0 56 275 105 101 279 206 185 280 212 186 281 24 188 285 150 121 286 46 122 287 70 174 288 188 189 289 24 188 290 47 95 291 8 88 292 66 96 293 48 76 297 242 125 298 130 48 299 118 191 300 49 29 301 103 85 302 16 157 303 33 156 304 49 29 305 126 1 306 318 192 307 96 177 308 50 193 309 41 139 310 68 102 311 16 157 312 116 194 313 83 155 314 4 83 315 78 68 316 156 67 317 51 153 318 16 157 319 49 29 320 116 194 321 16 157 322 73 195 323 30 196 324 123 3 325 52 5 326 42 4 330 123 3 331 53 198 332 223 199 333 53 198 334 10 200 335 135 12 336 45 201 337 91 119 338 112 202 339 137 94 340 29 203 341 5 140 342 112 202 343 93 82 344 55 141 345 106 6 346 108 37 347 55 141 348 15 80 349 54 81 350 132 204 351 235 205 352 56 97 353 82 206 354 235 205 355 239 207 356 119 58 357 60 57 358 150 121 359 57 117 363 48 76 364 23 75 365 57 117 366 102 158 367 35 113 368 149 214 372 18 74 373 58 90 374 143 23 375 60 57 376 74 86 377 46 122 378 60 57 379 157 22 380 57 117 384 253 160 385 256 218 386 118 191 387 313 70 388 315 219 389 0 56 390 311 220 391 301 221 392 132 204 396 56 97 397 31 148 398 119 58 399 64 224 400 113 59 401 137 94 402 18 74 403 149 214 404 264 227 408 133 228 409 136 78 410 8 88 411 17 87 412 66 96 413 17 87 414 134 147 415 97 146 416 98 229 417 305 230 418 44 231 419 143 23 420 67 135 421 151 21 422 194 152 429 69 24 430 32 236 431 46 122 432 151 21 433 142 25 434 46 122 435 142 25 436 24 188 437 26 2 438 215 237 439 202 238 440 26 2 441 209 43 442 215 237 443 22 77 444 72 111 445 35 113 446 51 153 450 73 195 451 16 157 452 125 173 453 74 86 454 12 172 455 113 59 456 12 172 457 74 86 458 121 62 459 268 240 460 274 60 461 273 161 468 107 49 469 81 245 470 35 113 474 278 248 475 287 247 476 103 85 477 111 84 478 14 178 479 154 51 486 36 93 487 93 82 488 114 50 489 36 93 490 154 51 491 56 97 492 82 206 493 47 95 494 135 12 495 128 66 496 78 68 497 78 68 498 4 83 499 83 155 500 83 155 501 4 83 502 103 85 503 10 200 513 217 255 514 223 199 515 10 200 516 30 196 517 85 63 518 30 196 519 245 256 520 255 257 521 52 5 522 245 256 523 30 196 524 42 4 525 140 40 526 87 39 527 39 54 528 12 172 529 88 89 530 88 89 531 99 55 532 39 54 533 290 258 534 296 259 535 232 260 536 135 12 549 91 119 550 128 66 551 112 202 552 29 203 553 92 92 554 149 214 555 58 90 556 92 92 557 93 82 558 15 80 559 11 79 560 93 82 561 133 228 562 81 245 563 267 265 567 121 62 568 94 34 569 0 56 573 304 136 574 143 23 575 41 139 576 96 177 577 14 178 578 96 177 579 41 139 580 50 193 581 21 170 582 165 176 583 166 267 584 66 96 588 17 87 589 97 146 590 113 59 591 31 148 592 97 146 593 88 89 594 8 88 595 99 55 596 100 110 600 104 41 601 131 112 602 131 112 603 72 111 604 100 110 605 161 270 606 44 231 607 101 271 608 101 271 609 32 236 610 161 270 611 102 158 612 57 117 613 23 75 614 102 158 615 23 75 616 22 77 617 33 156 618 83 155 619 103 85 620 33 156 621 103 85 622 49 29 623 104 41 624 226 272 625 221 273 626 104 41 627 218 274 628 226 272 629 105 101 630 91 119 631 45 201 632 45 201 633 206 185 634 105 101 635 106 6 636 171 275 637 181 120 638 107 49 639 272 276 640 270 277 641 108 37 645 136 78 646 15 80 647 55 141 648 108 37 649 15 80 650 26 2 651 201 27 652 63 0 653 26 2 654 202 238 655 205 279 656 111 84 657 156 67 658 14 178 659 156 67 660 111 84 661 4 83 662 112 202 663 54 81 664 93 82 665 113 59 666 132 204 667 31 148 668 107 49 669 18 74 670 114 50 671 115 145 672 55 141 673 37 162 674 115 145 675 170 280 676 172 53 677 78 68 678 83 155 679 116 194 680 67 135 681 302 281 682 98 229 683 118 191 690 314 30 691 49 29 692 105 101 693 28 100 694 128 66 695 73 195 702 283 13 703 135 12 704 116 194 705 73 195 706 135 12 707 79 38 714 21 170 715 167 169 716 10 200 723 123 3 724 30 196 725 53 198 726 123 3 727 10 200 728 125 173 732 12 172 733 39 54 734 0 56 735 125 173 736 39 54 737 26 2 738 126 1 739 50 193 740 50 193 741 126 1 742 96 177 743 53 198 744 228 289 745 227 290 746 89 166 747 79 38 748 129 61 749 269 291 750 89 166 751 129 61 752 131 112 753 222 163 754 230 45 755 42 4 756 100 110 757 72 111 758 42 4 759 72 111 760 22 77 761 132 204 762 113 59 763 64 224 764 64 224 765 183 292 766 132 204 767 136 78 768 133 228 769 11 79 770 133 228 771 93 82 772 11 79 773 134 147 774 12 172 775 113 59 776 134 147 777 17 87 778 12 172 779 108 37 780 65 36 781 136 78 782 5 140 786 137 94 787 112 202 788 138 33 789 300 293 790 329 254 791 53 198 804 140 40 805 42 4 806 70 174 813 142 25 814 69 24 815 142 25 816 70 174 817 24 188 818 125 173 819 0 56 820 143 23 821 47 95 825 298 190 826 8 88 827 115 145 828 171 275 829 106 6 830 30 196 834 255 257 835 246 144 836 41 139 840 148 138 841 28 100 842 28 100 843 148 138 844 128 66 845 29 203 846 137 94 847 149 214 848 92 92 849 29 203 850 149 214 851 58 90 852 232 260 853 231 98 854 47 95 855 237 300 856 240 301 857 151 21 858 67 135 859 98 229 860 22 77 867 153 179 868 42 4 869 130 48 870 42 4 871 153 179 872 154 51 873 93 82 874 81 245 875 81 245 876 107 49 877 154 51 878 135 12 885 78 68 886 116 194 887 60 57 888 143 23 889 157 22 890 151 21 891 46 122 892 157 22 893 112 202 894 92 92 895 158 142 896 158 142 897 92 92 898 37 162 899 54 81 900 112 202 901 158 142 902 36 93 903 114 50 904 18 74 905 140 40 906 220 295 907 225 103 908 148 138 915 41 139 916 14 178 917 159 26 918 151 21 919 160 303 920 160 303 921 44 231 922 161 270 923 101 271 936 310 305 937 308 304 938 164 171 942 175 108 943 180 308 944 165 176 945 94 34 946 166 267 947 166 267 948 94 34 949 121 62 950 166 267 951 121 62 952 167 169 953 129 61 954 79 38 955 167 169 956 165 176 957 178 307 958 94 34 959 21 170 960 166 267 961 167 169 962 32 236 963 69 24 964 168 309 965 69 24 966 159 26 967 168 309 968 159 26 969 160 303 970 168 309 971 160 303 972 161 270 973 168 309 974 161 270 975 32 236 976 168 309 977 142 25 978 151 21 979 159 26 980 151 21 981 98 229 982 160 303 983 160 303 984 98 229 985 44 231 986 32 236 987 101 271 988 138 33 989 48 76 990 130 48 991 153 179 992 31 148 993 66 96 994 97 146 995 164 171 999 79 38 1000 106 6 1001 175 108 1002 106 6 1003 179 109 1004 174 19 1008 170 280 1009 37 162 1010 180 308 1014 165 176 1015 164 171 1016 172 53 1017 169 310 1018 115 145 1019 176 8 1038 179 109 1039 106 6 1040 190 282 1041 64 224 1042 119 58 1043 188 189 1047 184 266 1048 24 188 1049 182 209 1053 24 188 1054 184 266 1055 192 284 1059 189 32 1060 64 224 1061 191 151 1062 70 174 1063 69 24 1064 182 209 1065 195 283 1066 150 121 1067 138 33 1071 194 152 1072 32 236 1073 193 311 1074 191 151 1075 69 24 1076 190 282 1077 150 121 1078 195 283 1079 189 32 1080 185 312 1081 64 224 1082 198 129 1092 199 314 1093 85 63 1094 94 34 1095 331 315 1096 267 265 1097 214 235 1116 211 234 1117 105 101 1118 210 44 1119 50 193 1120 68 102 1121 208 232 1122 210 44 1123 68 102 1124 212 186 1131 214 235 1132 105 101 1133 211 234 1137 68 102 1138 105 101 1139 207 72 1143 45 201 1144 135 12 1145 219 131 1161 228 289 1162 53 198 1163 227 290 1167 140 40 1168 53 198 1169 199 314 1176 217 255 1177 85 63 1178 258 126 1230 251 244 1231 130 48 1232 247 127 1239 252 326 1240 200 128 1241 251 244 1245 248 123 1246 130 48 1247 246 144 1251 243 64 1252 30 196 1253 249 197 1272 254 327 1273 52 5 1274 265 17 1275 263 16 1276 133 228 1277 273 161 1278 133 228 1279 263 16 1280 261 225 1287 89 166 1288 262 226 1289 270 277 1290 275 278 1291 107 49 1292 266 261 1302 269 291 1303 129 61 1304 264 227 1305 65 36 1306 261 225 1307 259 328 1308 266 261 1309 129 61 1310 271 263 1314 262 226 1315 89 166 1316 284 246 1326 250 159 1327 35 113 1328 276 239 1329 285 180 1330 73 195 1331 287 247 1335 284 246 1336 35 113 1337 281 47 1356 278 248 1357 35 113 1358 260 73 1362 299 323 1363 18 74 1364 294 296 1368 240 301 1369 289 329 1370 297 269 1374 99 55 1375 8 88 1376 298 190 1386 297 269 1387 8 88 1388 299 323 1389 290 258 1390 18 74 1391 300 293 1395 101 271 1396 303 294 1397 306 137 1401 309 330 1402 67 135 1403 288 133 1404 311 220 1405 0 56 1406 305 230 1416 307 306 1417 44 231 1418 308 304 1422 303 294 1423 101 271 1424 310 305 1425 44 231 1426 307 306 1427 319 183 1431 322 106 1432 63 0 1433 315 219 1434 324 331 1435 118 191 1436 321 184 1437 319 183 1438 63 0 1439 276 239 1449 51 153 1450 312 154 1451 316 11 1452 317 10 1453 14 178 1454 322 106 1455 126 1 1456 63 0 1457 317 10 1464 103 85 1465 14 178 1466 326 28 1479 321 184 1480 63 0 1481 329 254 1488 330 316 1489 138 33 1490 201 27 1509 327 332 1510 326 28 1511 281 47 1515 35 113 1516 131 112 1517 131 112 1518 230 45 1519 281 47 1520 274 60 1524 259 328 1525 129 61 1526 85 63 1527 30 196 1528 243 64 1529 135 12 1530 277 14 1531 286 71 1532 107 49 1533 275 278 1534 260 73 1535 58 90 1536 234 99 1537 177 91 1538 57 117 1539 256 218 1540 257 118 1541 198 129 1545 85 63 1546 247 127 1547 85 63 1548 244 65 1549 247 127 1550 67 135 1557 143 23 1558 304 136 1559 248 123 1563 249 197 1564 52 5 1565 51 153 1566 49 29 1567 323 31 1568 224 104 1569 218 274 1570 104 41 1571 57 117 1572 35 113 1573 250 159 1574 177 91 1575 174 19 1576 37 162 1577 104 41 1578 221 273 1579 222 163 1580 96 177 1581 318 192 1582 316 11 1583 99 55 1587 292 268 1588 288 133 1589 70 174 1596 187 175 1597 188 189 1598 48 76 1602 257 118 1603 242 125 1604 126 1 1605 320 105 1606 318 192 1607 223 199 1611 219 131 1612 53 198 1613 132 204 1614 183 292 1615 235 205 1616 82 206 1617 56 97 1618 235 205 1619 118 191 1623 103 85 1624 313 70 1625 264 227 1632 265 17 1633 133 228 1634 98 229 1635 302 281 1636 305 230 1637 194 152 1644 193 311 1645 69 24 1646 26 2 1647 50 193 1648 209 43 1649 273 161 1656 272 276 1657 107 49 1658 10 200 1665 85 63 1666 217 255 1667 52 5 1668 254 327 1669 245 256 1670 58 90 1671 18 74 1672 232 260 1673 18 74 1674 290 258 1675 232 260 1676 267 265 1689 268 240 1690 121 62 1691 0 56 1692 301 221 1693 304 136 1694 45 201 1698 216 317 1699 206 185 1700 26 2 1704 205 279 1705 201 27 1706 115 145 1707 37 162 1708 170 280 1709 67 135 1710 309 330 1711 302 281 1712 118 191 1719 324 331 1720 314 30 1721 73 195 1722 285 180 1723 283 13 1724 269 291 1731 271 263 1732 89 166 1733 64 224 1734 185 312 1735 183 292 1736 47 95 1740 294 296 1741 298 190 1742 115 145 1743 169 310 1744 171 275 1745 47 95 1749 82 206 1750 237 300 1751 175 108 1773 164 171 1774 106 6 1775 180 308 1776 178 307 1777 165 176 1778 190 282 1791 192 284 1792 64 224 1793 182 209 1794 150 121 1795 24 188 1796 191 151 1797 186 150 1798 70 174 1799 190 282 1803 119 58 1804 150 121 1805 210 44 1818 209 43 1819 50 193 1820 211 234 1830 208 232 1831 68 102 1832 207 72 1833 213 165 1834 45 201 1835 227 290 1848 220 295 1849 140 40 1850 273 161 1908 81 245 1909 133 228 1910 261 225 1911 65 36 1912 89 166 1913 264 227 1917 136 78 1918 65 36 1919 294 296 1938 47 95 1939 240 301 1940 297 269 1941 292 268 1942 99 55 1943 300 293 1947 138 33 1948 101 271 1949 310 305 1956 101 271 1957 44 231 1958 276 239 1962 73 195 1963 51 153 1964 322 106 1965 320 105 1966 126 1 1967 317 10 1968 313 70 1969 103 85 1970</p>
        </triangles>
      </mesh>
    </geometry>
  </library_geometries>
  <library_visual_scenes>
    <visual_scene id="Scene" name="Scene">
      <node id="Icosphere" name="Icosphere" type="NODE">
        <matrix sid="transform">0.1724824 0 0 0 0 0.1724824 0 0.05259075 0 0 0.1724824 0.4902017 0 0 0 1</matrix>
        <instance_geometry url="#Icosphere-mesh" name="Icosphere">
          <bind_material>
            <technique_common>
              <instance_material symbol="M_Florp_001-material" target="#M_Florp_001-material">
                <bind_vertex_input semantic="UVMap" input_semantic="TEXCOORD" input_set="0"/>
              </instance_material>
            </technique_common>
          </bind_material>
        </instance_geometry>
      </node>
      <node id="Florp" name="Florp" type="NODE">
        <matrix sid="transform">0.01 0 0 7.56778e-4 0 0.01 4.37114e-10 -0.01794779 0 -4.37114e-10 0.01 0.05966272 0 0 0 1</matrix>
        <instance_geometry url="#Mesh-mesh" name="Florp">
          <bind_material>
            <technique_common>
              <instance_material symbol="M_Florp_001-material" target="#M_Florp_001-material">
                <bind_vertex_input semantic="UVChannel_1" input_semantic="TEXCOORD" input_set="0"/>
              </instance_material>
              <instance_material symbol="M_Florp-material" target="#M_Florp-material">
                <bind_vertex_input semantic="UVChannel_1" input_semantic="TEXCOORD" input_set="0"/>
              </instance_material>
            </technique_common>
          </bind_material>
        </instance_geometry>
      </node>
    </visual_scene>
  </library_visual_scenes>
  <scene>
    <instance_visual_scene url="#Scene"/>
  </scene>
</COLLADA>