<?xml version="1.0" encoding="utf-8"?>
<COLLADA xmlns="http://www.collada.org/2005/11/COLLADASchema" version="1.4.1" xmlns:xsi="http://www.w3.org/2001/XMLSchema-instance">
  <asset>
    <contributor>
      <author>Blender User</author>
      <authoring_tool>Blender 4.1.1 commit date:2024-04-15, commit time:15:11, hash:e1743a0317bc</authoring_tool>
    </contributor>
    <created>2024-12-23T11:18:52</created>
    <modified>2024-12-23T11:18:52</modified>
    <unit name="meter" meter="1"/>
    <up_axis>Z_UP</up_axis>
  </asset>
  <library_images/>
  <library_geometries>
    <geometry id="Cylinder-mesh" name="Cylinder">
      <mesh>
        <source id="Cylinder-mesh-positions">
          <float_array id="Cylinder-mesh-positions-array" count="354">-0.02303075 4.071911 -0.2361555 -0.09716635 3.699148 0.9304851 -0.02318543 -3.853682 -0.171679 -0.03836327 -3.550866 0.7676108 -0.07633203 0.0358718 0.8991135 -3.958503 0.03959393 -0.1976995 -3.679186 0.03959393 0.7760501 3.713701 0.0074234 -0.1161571 3.463454 0.007676899 0.7727699 2.413274 2.549922 0.9072017 2.628769 2.691551 -0.1577361 2.305502 -2.997884 0.6853973 2.711188 -2.74528 -0.2024801 -2.55039 2.49299 0.7463151 -2.703618 2.720075 -0.1752539 -2.579338 -2.442684 0.8272579 -2.652052 -2.589274 -0.1355012 2.66079 -1.931148 0.9535934 0.2729696 2.540202 -1.982676 0.2724512 -2.396125 -1.917624 2.005544 1.772191 -1.9904 -1.416552 -1.649528 -1.937645 2.75443 0.03957229 -1.958997 -2.113311 0.03959405 -1.860003 -1.385177 1.697123 -1.89011 1.992045 -1.679611 -1.973569 0.3468156 0.03959405 -4.109609 0.3558898 0.04067492 -4.109195 -0.09611487 2.432357 0.9605255 0.1246706 -3.244896 -1.009713 0.03152853 -2.37974 0.9174925 -2.163006 2.327451 -1.046921 -0.07895249 -3.940618 0.4391325 -0.08771407 4.081902 0.454425 1.385225 3.550088 -0.1494567 -1.421991 3.342968 0.7457606 -1.457802 -3.52944 -0.1778912 1.389004 -3.426718 0.820725 0.1249743 3.368279 -1.044785 -2.494326 0.03945505 1.038818 2.298338 0.0372622 0.9353134 2.362963 -2.205191 -0.9921861 3.944165 -0.03652381 0.4878722 -4.185177 0.03959399 0.4672439 -3.585696 1.471361 -0.1752005 -3.446911 -1.306426 0.8461063 3.410403 -1.428698 -0.1139036 3.255203 1.383674 0.8572044 -1.423372 -3.284466 0.7867874 1.405376 -3.525135 -0.1708458 2.66364 -2.949203 0.4774308 2.621374 -2.505805 0.8282126 3.590784 1.490304 -0.1894028 2.688658 2.816018 0.4526726 1.223202 3.332126 0.7211482 -1.470684 3.637342 -0.1939833 -2.915937 2.867422 0.47118 -3.469309 1.395708 0.8941027 -2.99864 -2.870372 0.4985891 -3.480502 -1.344812 -0.1089485 -1.744955 -1.613861 0.950134 1.552868 1.688431 0.8775517 3.288144 -1.308939 0.9992771 1.741697 -1.54687 1.044203 -1.749095 1.692436 0.9605213 -2.150362 -2.235544 -1.030878 -3.225765 0.03959399 -1.072917 2.395484 2.310311 -1.021686 3.36303 0.03552198 -0.9817668 1.231086 2.410276 -2.021472 -0.66478 -2.287086 -1.983561 -1.103367 0.03959405 -2.738825 -2.10483 1.000583 -2.050244 2.596553 -0.896766 -1.96858 1.160577 -2.177017 -1.86292 2.492753 0.929842 -1.869653 -0.6310596 2.289769 -1.896405 -2.035978 -0.8902508 -1.966555 0.3558898 0.04067492 -4.109195 1.83767 0.03959405 -2.812532 1.348109 1.050528 -2.769121 1.394355 -1.017427 -2.845366 -0.6501132 1.026801 -2.727533 0.3370569 1.471824 -2.729898 0.337231 -1.442378 -2.791064 -0.6664495 -0.9640057 -2.755974 0.9245526 2.577488 1.028061 1.337991 3.058428 -1.018072 2.460279 -0.9641817 0.9429624 -1.138296 -3.091293 -1.124333 1.411532 -3.702324 0.45886 -1.57087 3.733894 0.4530224 -1.116195 2.573569 0.981363 1.33745 -2.979212 -1.017488 3.599416 1.51249 0.4537205 -3.880367 -1.487258 0.4778854 -2.622775 -0.9763471 0.8863995 -2.878255 1.24567 -1.004456 -1.560292 -3.633635 0.4471186 3.47268 -1.756088 0.5640532 1.429876 3.812072 0.4774774 -3.826798 1.542661 0.4646372 -1.09128 -2.496071 0.9356153 2.437077 1.058756 0.9804297 1.45823 -2.58931 0.9618859 -2.629636 1.058534 0.968276 -1.067393 3.010955 -0.9754287 3.110966 -1.17079 -0.9948758 -2.874812 -1.164923 -1.00091 3.181191 1.269005 -1.042654 1.812291 -0.5518729 -2.489765 1.903986 0.671921 -2.598617 -1.246021 -0.596002 -2.6085 0.9699026 1.621877 -2.612068 -1.274878 0.6882244 -2.646224 0.9584485 -1.51758 -2.581344 -0.3170292 1.650122 -2.648662 -0.3152381 -1.566882 -2.643513</float_array>
          <technique_common>
            <accessor source="#Cylinder-mesh-positions-array" count="118" stride="3">
              <param name="X" type="float"/>
              <param name="Y" type="float"/>
              <param name="Z" type="float"/>
            </accessor>
          </technique_common>
        </source>
        <source id="Cylinder-mesh-normals">
          <float_array id="Cylinder-mesh-normals-array" count="684">0.07833808 -0.1123322 0.9905779 0.2275822 0.288218 0.9301273 0.03886026 -0.02527749 0.9989249 0.3121309 0.744249 -0.5904809 0.5066732 0.7381838 -0.445384 0.4963988 0.7041321 -0.5077263 0.2053126 0.7495077 -0.6293528 0.003379881 0.1691086 0.9855916 -0.01524394 0.07389831 0.9971493 0.1121978 0.03418362 0.9930978 -0.04410088 -0.804551 -0.5922439 -0.5872873 -0.6405299 -0.4947878 -0.4691801 -0.5008481 -0.7273384 -0.03635168 -0.727057 -0.6856141 0.4965999 -0.8403363 -0.2173095 0.4214435 -0.7144465 0.5585263 0.09347462 -0.647293 0.7564881 0.2161802 -0.9393019 -0.2664173 -0.5859211 0.7833195 -0.2076219 -0.3065752 0.4929745 0.8142406 -0.1808416 0.7682449 0.6140815 -0.2883648 0.9566489 -0.04085028 0.02369946 0.02372002 0.9994377 -0.1699019 0.2261809 0.9591535 0.01142168 -0.02552151 0.999609 0.4778589 -0.6125411 -0.6296382 0.1763206 -0.8207606 -0.543381 0.2121748 -0.6863479 -0.6956353 0.3763098 -0.7500352 -0.5439101 0.7797331 0.6252918 -0.0320366 0.6145159 0.4298858 0.6614896 0.5143374 0.1331492 0.8471884 0.996517 0.08180189 -0.01619714 -0.6876057 -0.4455128 -0.5733382 -0.4213552 -0.2555868 0.8701351 -0.5184593 -0.09758067 0.8495163 -0.8940728 -0.32824 -0.3047822 0.05761885 -0.02741509 0.9979622 -0.2150048 -0.1182726 0.9694248 -0.03230923 -0.04123461 0.998627 -0.7504304 0.2052716 -0.6282657 -0.6211698 0.4387602 -0.6493363 -0.6775984 0.4244361 -0.6005951 -0.5649318 0.2080993 -0.7984653 -0.2170742 -0.9634556 -0.1569462 -0.1335599 -0.6636373 0.7360349 -0.2114498 -0.4567418 0.8641042 -0.6074348 -0.7613827 -0.2265375 0.9119448 -0.1931636 -0.3620007 0.5136066 0.07860374 0.8544178 0.4584891 -0.5154342 0.7239582 0.4817246 -0.515004 0.7090221 0.8264479 -0.5525704 -0.1079341 0.3416066 0.8582701 -0.3829849 0.06280577 0.4301726 0.9005593 0.2825729 0.3347206 0.898952 0.5534714 0.8037775 -0.2181999 -0.8993164 0.2399116 -0.3656122 -0.5168786 0.1247091 0.8469263 -0.391735 0.2649922 0.8810918 -0.7584199 0.5357242 -0.3712127 -0.07500475 -0.07194304 0.9945846 -0.02044707 -0.1771351 0.9839741 0.0220732 0.00859183 0.9997195 -0.01525282 0.02807807 0.9994894 0.1363537 -0.06218785 0.9887064 0.1290317 0.05069345 0.9903439 0.006991207 -0.2136215 0.9768915 -0.04094636 -0.06758445 0.996873 -0.05439853 -0.1616032 0.9853553 0.1318073 -0.3534009 0.9261397 0.05769938 0.02126437 0.9981075 -0.1049019 0.1577291 0.9818947 -0.1150333 -0.06846565 0.9909994 -0.4870462 0.6425796 -0.5915045 -0.2293668 0.6982724 -0.6780903 -0.2491099 0.7017024 -0.6675013 -0.3212167 0.5921877 -0.7390085 0.9085835 -0.1857873 -0.3741109 0.7392802 -0.5356541 -0.4080924 0.683117 -0.5242584 -0.5084333 0.8406589 -0.1363806 -0.5241116 -0.6904818 -0.4514026 -0.5652174 -0.7736743 -0.2599621 -0.5777958 -0.7565699 0.01199752 -0.6538028 -0.5248015 -0.4555175 -0.7190877 0.6957014 0.5687184 -0.4388155 0.8949176 0.05229085 -0.4431569 0.7502006 0.0781843 -0.6565716 0.6614859 0.5101861 -0.5496786 0.626302 -0.3939727 -0.6727045 0.4223532 -0.3207358 -0.8477891 0.6364994 -0.2442229 -0.7315899 0.4994205 0.3833743 -0.7769191 0.6993465 0.2718992 -0.6610486 0.6194754 0.3305662 -0.7120226 -0.4652647 -0.4206333 -0.7788429 -0.6381016 0.03506839 -0.7691531 -0.6603409 -0.275542 -0.6985889 0.01643735 0.5737158 -0.8188895 0.408132 0.4568712 -0.7903778 0.2530575 0.6720911 -0.6958847 -0.655018 -0.06573575 -0.7527484 -0.3491395 0.5372355 -0.7677757 -0.6535453 0.3079686 -0.6913998 0.3115856 -0.6415699 -0.7009297 0.2127122 -0.689297 -0.6925484 0.2234066 -0.6487176 -0.7274993 -0.5251572 0.3771565 -0.762865 -0.2543272 0.6817994 -0.6859062 -0.2995676 0.6608578 -0.6881325 -0.03843629 -0.6734566 -0.7382269 -0.4492304 -0.4752214 -0.7565425 -0.3239223 -0.6277028 -0.7078584 0.08226639 0.3473507 0.9341198 -0.06934446 0.02359241 0.9973137 -0.0375089 -0.192511 0.9805777 0.2259615 0.8424341 -0.4891279 0.5121403 0.7261466 -0.4587194 0.5383087 0.6258756 -0.5643612 0.09068244 0.8321003 -0.5471615 0.1388555 0.03001457 0.9898577 0.1182035 0.0266962 0.9926305 -0.06927496 -0.003397107 0.9975918 -0.1932341 -0.8638797 -0.4651585 -0.5281308 -0.6460111 -0.5511328 -0.487647 -0.4984471 -0.7167642 -0.02525049 -0.7228835 -0.6905084 0.503135 -0.8306066 -0.2386376 0.4162681 -0.7106592 0.5671724 0.0464074 -0.7932865 0.6070773 0.1582472 -0.9794608 -0.1249574 -0.5111828 0.7862592 -0.3471146 -0.2815461 0.3743462 0.8835139 -0.2529045 0.5163608 0.8181753 -0.2246384 0.9580914 -0.1777594 -0.1917713 0.2168834 0.9571757 -0.1662417 0.09619528 0.9813818 0.01559031 -0.0348342 0.9992715 0.4308704 -0.7422794 -0.513198 0.186658 -0.8102022 -0.5556359 0.1565775 -0.7340742 -0.6607711 0.4633815 -0.5923985 -0.6590458 0.8043218 0.5618135 -0.1934736 0.6365996 0.432188 0.6387131 0.7472137 0.07255071 0.6606119 0.9206069 0.1974627 -0.3368849 -0.6857029 -0.4457457 -0.5754323 -0.4955503 -0.3912338 0.7754779 -0.629216 -0.06828421 0.7742251 -0.796464 -0.1630587 -0.582286 -0.1627389 -0.1262521 0.9785584 -0.06503659 0.04067057 0.9970538 -0.1034809 -0.04314398 0.9936953 -0.7049888 0.2409929 -0.6670181 -0.6733878 0.4213835 -0.6074412 -0.3663837 0.550926 -0.7498291 -0.8112107 -0.1066588 -0.5749444 -0.2001062 -0.9605867 -0.1929526 -0.1112767 -0.6336373 0.7655856 -0.3837392 -0.5621854 0.7325925 -0.4076032 -0.7312328 -0.5469538 0.9393219 -0.2670879 -0.2152638 0.8123705 -0.19845 0.5483355 0.4600825 -0.2192764 0.8603731 0.6051691 -0.4576525 0.6514021 0.8536505 -0.4339847 -0.2879896 0.175024 0.9845618 0.002149164 0.3010763 0.7402546 0.6011457 0.3588128 0.6942999 0.6238599 0.577134 0.7380689 -0.3495294 -0.9234057 0.2196235 -0.3147816 -0.7568901 0.06049072 0.6507367 -0.5449873 0.5425017 0.6392815 -0.7711349 0.5319344 -0.3498526 -0.07724028 -0.1534316 0.9851359 0.02932471 -0.1286125 0.9912613 0.01657092 -0.004176616 0.999854 -0.1335168 -0.02562266 0.9907153 0.1627587 -0.03587138 0.9860136 -0.08194428 0.04757881 0.9955006 0.1213217 -0.1108824 0.9864007 -0.07592165 0.004196345 0.997105 -0.0260002 -0.1253756 0.9917687 0.2256161 -0.1800448 0.9574347 -0.0373435 0.06407278 0.9972463 -0.02531778 0.1542323 0.9877101 -0.2163438 0.03880357 0.9755458 -0.3506052 0.6340868 -0.6892097 -0.250389 0.7071944 -0.6611969 -0.2581021 0.7036617 -0.6619996 -0.4609748 0.5794322 -0.6721314 0.9104471 -0.1928535 -0.3659147 0.7410795 -0.3552446 -0.569739 0.6879393 -0.4988377 -0.5271627 0.8501349 -0.1722322 -0.497601 -0.6939952 -0.4500079 -0.5620174 -0.7332209 -0.292516 -0.6138579 -0.5644295 -0.2121452 -0.7977554 -0.6290448 -0.4071148 -0.6622388 0.6981606 0.5363396 -0.4742485 0.921721 0.1176362 -0.3695837 0.8129931 0.2896549 -0.5051161 0.6728813 0.2917449 -0.6797909 0.5269954 -0.08019798 -0.8460758 0.7443384 -0.1761972 -0.6441388 0.7942023 -0.316985 -0.5184238 0.6864625 0.3022397 -0.6613776 0.6710908 0.1734632 -0.7207966 0.434227 0.2474749 -0.8661426 -0.4747079 -0.4167873 -0.7752036 -0.6564201 -0.007348716 -0.7543598 -0.3166965 -0.1217996 -0.9406744 0.04717522 0.5888177 -0.806888 0.3995251 0.4792755 -0.7814568 0.09842514 0.3238133 -0.9409875 -0.6130385 -0.1482146 -0.776026 -0.3840281 0.5264793 -0.758513 -0.1778118 0.09284377 -0.979675 0.3021402 -0.6584073 -0.6893556 0.1624025 -0.6723873 -0.722164 0.194853 -0.5852972 -0.7870574 -0.4570333 0.5743424 -0.6791549 0.05517005 0.5744786 -0.8166582 -0.07698506 0.1655458 -0.9831927 -0.02550345 -0.6686173 -0.7431693 -0.4678213 -0.4178172 -0.7788273 -0.1626596 -0.2717001 -0.9485362</float_array>
          <technique_common>
            <accessor source="#Cylinder-mesh-normals-array" count="228" stride="3">
              <param name="X" type="float"/>
              <param name="Y" type="float"/>
              <param name="Z" type="float"/>
            </accessor>
          </technique_common>
        </source>
        <source id="Cylinder-mesh-map-0">
          <float_array id="Cylinder-mesh-map-0-array" count="1368">0.375 0 0.4583199 0.039936 0.4371745 0.0622223 0.5 0 0.4583199 0.039936 0.4375 0 0.4371745 0.0622223 0.4999639 0.04978311 0.4991988 0.1253477 0.1631944 0.6875001 0.1302083 0.6247107 0.1666666 0.625 0.125 0.75 0.1293402 0.6869214 0.1631944 0.6875001 0.125 0.7500001 0.125 0.6811344 0.1293402 0.6869214 0.1293402 0.6869214 0.125 0.625 0.1302083 0.6247107 0.375 0.125 0.414049 0.1666876 0.375 0.1868656 0.4306641 0.1897043 0.4245877 0.1249614 0.4991988 0.1253477 0.375 0.2487313 0.414049 0.1666876 0.4306641 0.1897043 0.4166666 0.625 0.3793402 0.6869214 0.3802083 0.6247107 0.4131945 0.6875001 0.375 0.7500001 0.3793402 0.6869214 0.3793402 0.6869214 0.375 0.75 0.375 0.6811344 0.3802083 0.6247107 0.375 0.6811344 0.375 0.625 0.5000001 0.5000001 0.4131945 0.5625001 0.375 0.5 0.6250001 0.5000001 0.5043403 0.5625001 0.5000001 0.5000001 0.5043403 0.5625001 0.625 0.625 0.5052084 0.6250001 0.5043403 0.5625001 0.4166666 0.625 0.4131945 0.5625001 0.125 0.5 0.2543403 0.5625001 0.1631944 0.5625001 0.25 0.5000001 0.375 0.5625001 0.2543403 0.5625001 0.2543403 0.5625001 0.375 0.625 0.2552083 0.6250001 0.1631944 0.5625001 0.2552083 0.6250001 0.1666666 0.625 0.5 0 0.5416531 0.039936 0.4999639 0.04978311 0.625 0 0.5416531 0.039936 0.5625001 0 0.4999639 0.04978311 0.5627532 0.06222522 0.4991988 0.1253477 0.375 0.5 0.3793402 0.5619214 0.375 0.5000001 0.4131945 0.5625001 0.3802083 0.6247107 0.3793402 0.5619214 0.3793402 0.5619214 0.375 0.625 0.375 0.5561344 0.375 0.5000001 0.375 0.5561344 0.375 0.5 0.375 0.75 0.5050782 0.8128615 0.4135417 0.8126702 0.5000001 0.7500001 0.6250001 0.8125001 0.5050782 0.8128615 0.5050782 0.8128615 0.625 0.875 0.5111111 0.877874 0.5050782 0.8128615 0.4194445 0.8763608 0.4135417 0.8126702 0.7500001 0.5000001 0.6631945 0.5625001 0.625 0.5 0.8750001 0.5000001 0.7543403 0.5625001 0.7500001 0.5000001 0.7543403 0.5625001 0.875 0.625 0.7552084 0.6250001 0.6631945 0.5625001 0.7552084 0.6250001 0.6666667 0.625 0.5751954 0.1250146 0.5626086 0.1878741 0.4991988 0.1253477 0.625 0.125 0.585056 0.1666721 0.5751954 0.1250146 0.625 0.25 0.585056 0.1666721 0.6250001 0.1875 0.6631945 0.6875001 0.6302083 0.6247107 0.6666667 0.625 0.625 0.75 0.6293404 0.6869214 0.6631945 0.6875001 0.6250001 0.7500001 0.6250001 0.6811344 0.6293404 0.6869214 0.6293404 0.6869214 0.625 0.625 0.6302083 0.6247107 0.5052084 0.6250001 0.4131945 0.6875001 0.4166666 0.625 0.5052084 0.6250001 0.6250001 0.6875001 0.5043403 0.6875001 0.5043403 0.6875001 0.6250001 0.7500001 0.5000001 0.7500001 0.5043403 0.6875001 0.375 0.75 0.4131945 0.6875001 0.5111111 0.877874 0.4190973 0.9403916 0.4194445 0.8763608 0.6250001 0.9368658 0.5111111 0.877874 0.625 0.875 0.6250001 0.9987314 0.5291563 0.9502515 0.6250001 0.9368658 0.5000001 1 0.6250001 0.9993658 0.6250001 1 0.375 1 0.5291563 0.9502515 0.5000001 1 0.1666666 0.625 0.2543403 0.6875001 0.1631944 0.6875001 0.2552083 0.6250001 0.375 0.6875001 0.2543403 0.6875001 0.375 0.6875001 0.25 0.7500001 0.2543403 0.6875001 0.1631944 0.6875001 0.25 0.7500001 0.125 0.75 0.6666667 0.625 0.7543403 0.6875001 0.6631945 0.6875001 0.875 0.625 0.7543403 0.6875001 0.7552084 0.6250001 0.7543403 0.6875001 0.8750001 0.7500001 0.7500001 0.7500001 0.6631945 0.6875001 0.7500001 0.7500001 0.625 0.75 0.625 0.25 0.5407851 0.2104957 0.5626086 0.1878741 0.5 0.25 0.5407851 0.2104957 0.5625001 0.25 0.5626086 0.1878741 0.4951896 0.2025488 0.4991988 0.1253477 0.4245877 0.1249614 0.4371745 0.0622223 0.4991988 0.1253477 0.375 0.125 0.414917 0.08332115 0.4245877 0.1249614 0.375 0 0.414917 0.08332115 0.375 0.0625 0.4306641 0.1897043 0.375 0.2493656 0.375 0.2487313 0.4306641 0.1897043 0.4951896 0.2025488 0.4363336 0.2201785 0.4951896 0.2025488 0.4375 0.25 0.4363336 0.2201785 0.4363336 0.2201785 0.3750001 0.25 0.375 0.2493656 0.5627532 0.06222522 0.5751954 0.1250146 0.4991988 0.1253477 0.625 0 0.5850559 0.08333879 0.5627532 0.06222522 0.625 0.125 0.5850559 0.08333879 0.6250001 0.0625 0.1631944 0.5625001 0.125 0.5000001 0.125 0.5 0.1666666 0.625 0.1293403 0.5619214 0.1631944 0.5625001 0.1302083 0.6247107 0.125 0.5561344 0.1293403 0.5619214 0.1293403 0.5619214 0.125 0.5 0.125 0.5000001 0.4194445 0.8763608 0.3800781 0.9372828 0.3805555 0.8748809 0.4190973 0.9403916 0.375 1 0.3800781 0.9372828 0.3800781 0.9372828 0.375 1 0.375 0.9311343 0.3805555 0.8748809 0.375 0.9311343 0.375 0.875 0.625 0.5 0.6293404 0.5619214 0.6250001 0.5000001 0.6631945 0.5625001 0.6302083 0.6247107 0.6293404 0.5619214 0.6293404 0.5619214 0.625 0.625 0.6250001 0.5561344 0.6250001 0.5000001 0.6250001 0.5561344 0.625 0.5 0.4135417 0.8126702 0.375 0.7500001 0.375 0.75 0.4194445 0.8763608 0.3793837 0.8119426 0.4135417 0.8126702 0.3805555 0.8748809 0.375 0.8061344 0.3793837 0.8119426 0.3793837 0.8119426 0.375 0.75 0.375 0.7500001 0.375 0.875 0.375 0.9157987 0.375 0.8750001 0.375 1 0.375 0.9157987 0.375 0.9311343 0.375 0.8750001 0.375 0.9375001 0.3750001 0.8750001 0.375 0.75 0.375 0.7907987 0.375 0.7500001 0.375 0.875 0.375 0.7907987 0.375 0.8061344 0.375 0.7500001 0.375 0.8125001 0.3750001 0.7500001 0.625 0.5 0.625 0.5407987 0.6250001 0.5000001 0.625 0.625 0.625 0.5407987 0.6250001 0.5561344 0.6250001 0.5000001 0.6250001 0.5625001 0.6250001 0.5000001 0.125 0.625 0.125 0.6657987 0.125 0.6250001 0.125 0.75 0.125 0.6657987 0.125 0.6811344 0.125 0.6250001 0.125 0.6875001 0.125 0.6250001 0.625 0.625 0.625 0.6657987 0.6250001 0.6250001 0.625 0.75 0.625 0.6657987 0.6250001 0.6811344 0.6250001 0.6250001 0.6250001 0.6875001 0.6250001 0.6250001 0.375 0.5 0.375 0.5407987 0.375 0.5000001 0.375 0.625 0.375 0.5407987 0.375 0.5561344 0.375 0.5000001 0.375 0.5625001 0.3750001 0.5000001 0.125 0.5 0.125 0.5407987 0.125 0.5000001 0.125 0.625 0.125 0.5407987 0.125 0.5561344 0.125 0.5000001 0.125 0.5625001 0.125 0.5000001 0.375 0.625 0.375 0.6657987 0.375 0.6250001 0.375 0.75 0.375 0.6657987 0.375 0.6811344 0.375 0.6250001 0.375 0.6875001 0.3750001 0.6250001 0.375 0 0.4375 0 0.4583199 0.039936 0.5 0 0.4999639 0.04978311 0.4583199 0.039936 0.4371745 0.0622223 0.4583199 0.039936 0.4999639 0.04978311 0.1631944 0.6875001 0.1293402 0.6869214 0.1302083 0.6247107 0.125 0.75 0.125 0.7500001 0.1293402 0.6869214 0.125 0.7500001 0.125 0.75 0.125 0.6811344 0.1293402 0.6869214 0.125 0.6811344 0.125 0.625 0.375 0.125 0.4245877 0.1249614 0.414049 0.1666876 0.4306641 0.1897043 0.414049 0.1666876 0.4245877 0.1249614 0.375 0.2487313 0.375 0.1868656 0.414049 0.1666876 0.4166666 0.625 0.4131945 0.6875001 0.3793402 0.6869214 0.4131945 0.6875001 0.375 0.75 0.375 0.7500001 0.3793402 0.6869214 0.375 0.7500001 0.375 0.75 0.3802083 0.6247107 0.3793402 0.6869214 0.375 0.6811344 0.5000001 0.5000001 0.5043403 0.5625001 0.4131945 0.5625001 0.6250001 0.5000001 0.6250001 0.5625001 0.5043403 0.5625001 0.5043403 0.5625001 0.6250001 0.5625001 0.625 0.625 0.5043403 0.5625001 0.5052084 0.6250001 0.4166666 0.625 0.125 0.5 0.25 0.5000001 0.2543403 0.5625001 0.25 0.5000001 0.3750001 0.5000001 0.375 0.5625001 0.2543403 0.5625001 0.375 0.5625001 0.375 0.625 0.1631944 0.5625001 0.2543403 0.5625001 0.2552083 0.6250001 0.5 0 0.5625001 0 0.5416531 0.039936 0.625 0 0.5627532 0.06222522 0.5416531 0.039936 0.4999639 0.04978311 0.5416531 0.039936 0.5627532 0.06222522 0.375 0.5 0.4131945 0.5625001 0.3793402 0.5619214 0.4131945 0.5625001 0.4166666 0.625 0.3802083 0.6247107 0.3793402 0.5619214 0.3802083 0.6247107 0.375 0.625 0.375 0.5000001 0.3793402 0.5619214 0.375 0.5561344 0.375 0.75 0.5000001 0.7500001 0.5050782 0.8128615 0.5000001 0.7500001 0.6250001 0.7500001 0.6250001 0.8125001 0.5050782 0.8128615 0.6250001 0.8125001 0.625 0.875 0.5050782 0.8128615 0.5111111 0.877874 0.4194445 0.8763608 0.7500001 0.5000001 0.7543403 0.5625001 0.6631945 0.5625001 0.8750001 0.5000001 0.8750001 0.5625001 0.7543403 0.5625001 0.7543403 0.5625001 0.8750001 0.5625001 0.875 0.625 0.6631945 0.5625001 0.7543403 0.5625001 0.7552084 0.6250001 0.5751954 0.1250146 0.585056 0.1666721 0.5626086 0.1878741 0.625 0.125 0.6250001 0.1875 0.585056 0.1666721 0.625 0.25 0.5626086 0.1878741 0.585056 0.1666721 0.6631945 0.6875001 0.6293404 0.6869214 0.6302083 0.6247107 0.625 0.75 0.6250001 0.7500001 0.6293404 0.6869214 0.6250001 0.7500001 0.625 0.75 0.6250001 0.6811344 0.6293404 0.6869214 0.6250001 0.6811344 0.625 0.625 0.5052084 0.6250001 0.5043403 0.6875001 0.4131945 0.6875001 0.5052084 0.6250001 0.625 0.625 0.6250001 0.6875001 0.5043403 0.6875001 0.6250001 0.6875001 0.6250001 0.7500001 0.5043403 0.6875001 0.5000001 0.7500001 0.375 0.75 0.5111111 0.877874 0.5291563 0.9502515 0.4190973 0.9403916 0.6250001 0.9368658 0.5291563 0.9502515 0.5111111 0.877874 0.6250001 0.9987314 0.6250001 0.9993658 0.5291563 0.9502515 0.5000001 1 0.5291563 0.9502515 0.6250001 0.9993658 0.375 1 0.4190973 0.9403916 0.5291563 0.9502515 0.1666666 0.625 0.2552083 0.6250001 0.2543403 0.6875001 0.2552083 0.6250001 0.375 0.625 0.375 0.6875001 0.375 0.6875001 0.3750001 0.7500001 0.25 0.7500001 0.1631944 0.6875001 0.2543403 0.6875001 0.25 0.7500001 0.6666667 0.625 0.7552084 0.6250001 0.7543403 0.6875001 0.875 0.625 0.8750001 0.6875001 0.7543403 0.6875001 0.7543403 0.6875001 0.8750001 0.6875001 0.8750001 0.7500001 0.6631945 0.6875001 0.7543403 0.6875001 0.7500001 0.7500001 0.625 0.25 0.5625001 0.25 0.5407851 0.2104957 0.5 0.25 0.4951896 0.2025488 0.5407851 0.2104957 0.5626086 0.1878741 0.5407851 0.2104957 0.4951896 0.2025488 0.4245877 0.1249614 0.414917 0.08332115 0.4371745 0.0622223 0.375 0.125 0.375 0.0625 0.414917 0.08332115 0.375 0 0.4371745 0.0622223 0.414917 0.08332115 0.4306641 0.1897043 0.4363336 0.2201785 0.375 0.2493656 0.4306641 0.1897043 0.4991988 0.1253477 0.4951896 0.2025488 0.4951896 0.2025488 0.5 0.25 0.4375 0.25 0.4363336 0.2201785 0.4375 0.25 0.3750001 0.25 0.5627532 0.06222522 0.5850559 0.08333879 0.5751954 0.1250146 0.625 0 0.6250001 0.0625 0.5850559 0.08333879 0.625 0.125 0.5751954 0.1250146 0.5850559 0.08333879 0.1631944 0.5625001 0.1293403 0.5619214 0.125 0.5000001 0.1666666 0.625 0.1302083 0.6247107 0.1293403 0.5619214 0.1302083 0.6247107 0.125 0.625 0.125 0.5561344 0.1293403 0.5619214 0.125 0.5561344 0.125 0.5 0.4194445 0.8763608 0.4190973 0.9403916 0.3800781 0.9372828 0.4190973 0.9403916 0.375 1 0.375 1 0.3800781 0.9372828 0.375 1 0.375 1 0.3805555 0.8748809 0.3800781 0.9372828 0.375 0.9311343 0.625 0.5 0.6631945 0.5625001 0.6293404 0.5619214 0.6631945 0.5625001 0.6666667 0.625 0.6302083 0.6247107 0.6293404 0.5619214 0.6302083 0.6247107 0.625 0.625 0.6250001 0.5000001 0.6293404 0.5619214 0.6250001 0.5561344 0.4135417 0.8126702 0.3793837 0.8119426 0.375 0.7500001 0.4194445 0.8763608 0.3805555 0.8748809 0.3793837 0.8119426 0.3805555 0.8748809 0.375 0.875 0.375 0.8061344 0.3793837 0.8119426 0.375 0.8061344 0.375 0.75 0.375 0.875 0.375 0.9311343 0.375 0.9157987 0.375 1 0.375 0.9375001 0.375 0.9157987 0.375 0.8750001 0.375 0.9157987 0.375 0.9375001 0.375 0.75 0.375 0.8061344 0.375 0.7907987 0.375 0.875 0.375 0.8125001 0.375 0.7907987 0.375 0.7500001 0.375 0.7907987 0.375 0.8125001 0.625 0.5 0.6250001 0.5561344 0.625 0.5407987 0.625 0.625 0.6250001 0.5625001 0.625 0.5407987 0.6250001 0.5000001 0.625 0.5407987 0.6250001 0.5625001 0.125 0.625 0.125 0.6811344 0.125 0.6657987 0.125 0.75 0.125 0.6875001 0.125 0.6657987 0.125 0.6250001 0.125 0.6657987 0.125 0.6875001 0.625 0.625 0.6250001 0.6811344 0.625 0.6657987 0.625 0.75 0.6250001 0.6875001 0.625 0.6657987 0.6250001 0.6250001 0.625 0.6657987 0.6250001 0.6875001 0.375 0.5 0.375 0.5561344 0.375 0.5407987 0.375 0.625 0.375 0.5625001 0.375 0.5407987 0.375 0.5000001 0.375 0.5407987 0.375 0.5625001 0.125 0.5 0.125 0.5561344 0.125 0.5407987 0.125 0.625 0.125 0.5625001 0.125 0.5407987 0.125 0.5000001 0.125 0.5407987 0.125 0.5625001 0.375 0.625 0.375 0.6811344 0.375 0.6657987 0.375 0.75 0.375 0.6875001 0.375 0.6657987 0.375 0.6250001 0.375 0.6657987 0.375 0.6875001</float_array>
          <technique_common>
            <accessor source="#Cylinder-mesh-map-0-array" count="684" stride="2">
              <param name="S" type="float"/>
              <param name="T" type="float"/>
            </accessor>
          </technique_common>
        </source>
        <source id="Cylinder-mesh-colors-Attribute" name="Attribute">
          <float_array id="Cylinder-mesh-colors-Attribute-array" count="2736">1 1 1 1 1 1 1 1 1 1 1 1 1 1 1 1 1 1 1 1 1 1 1 1 1 1 1 1 1 1 1 1 1 1 1 1 1 1 1 1 1 1 1 1 1 1 1 1 1 1 1 1 1 1 1 1 1 1 1 1 1 1 1 1 1 1 1 1 1 1 1 1 1 1 1 1 1 1 1 1 1 1 1 1 1 1 1 1 1 1 1 1 1 1 1 1 1 1 1 1 1 1 1 1 1 1 1 1 1 1 1 1 1 1 1 1 1 1 1 1 1 1 1 1 1 1 1 1 1 1 1 1 1 1 1 1 1 1 1 1 1 1 1 1 1 1 1 1 1 1 1 1 1 1 1 1 1 1 1 1 1 1 1 1 1 1 1 1 1 1 1 1 1 1 1 1 1 1 1 1 1 1 1 1 1 1 1 1 1 1 1 1 1 1 1 1 1 1 1 1 1 1 1 1 1 1 1 1 1 1 1 1 1 1 1 1 1 1 1 1 1 1 1 1 1 1 1 1 1 1 1 1 1 1 1 1 1 1 1 1 1 1 1 1 1 1 1 1 1 1 1 1 1 1 1 1 1 1 1 1 1 1 1 1 1 1 1 1 1 1 1 1 1 1 1 1 1 1 1 1 1 1 1 1 1 1 1 1 1 1 1 1 1 1 1 1 1 1 1 1 1 1 1 1 1 1 1 1 1 1 1 1 1 1 1 1 1 1 1 1 1 1 1 1 1 1 1 1 1 1 1 1 1 1 1 1 1 1 1 1 1 1 1 1 1 1 1 1 1 1 1 1 1 1 1 1 1 1 1 1 1 1 1 1 1 1 1 1 1 1 1 1 1 1 1 1 1 1 1 1 1 1 1 1 1 1 1 1 1 1 1 1 1 1 1 1 1 1 1 1 1 1 1 1 1 1 1 1 1 1 1 1 1 1 1 1 1 1 1 1 1 1 1 1 1 1 1 1 1 1 1 1 1 1 1 1 1 1 1 1 1 1 1 1 1 1 1 1 1 1 1 1 1 1 1 1 1 1 1 1 1 1 1 1 1 1 1 1 1 1 1 1 1 1 1 1 1 1 1 1 1 1 1 1 1 1 1 1 1 1 1 1 1 1 1 1 1 1 1 1 1 1 1 1 1 1 1 1 1 1 1 1 1 1 1 1 1 1 1 1 1 1 1 1 1 1 1 1 1 1 1 1 1 1 1 1 1 1 1 1 1 1 1 1 1 1 1 1 1 1 1 1 1 1 1 1 1 1 1 1 1 1 1 1 1 1 1 1 1 1 1 1 1 1 1 1 1 1 1 1 1 1 1 1 1 1 1 1 1 1 1 1 1 1 1 1 1 1 1 1 1 1 1 1 1 1 1 1 1 1 1 1 1 1 1 1 1 1 1 1 1 1 1 1 1 1 1 1 1 1 1 1 1 1 1 1 1 1 1 1 1 1 1 1 1 1 1 1 1 1 1 1 1 1 1 1 1 1 1 1 1 1 1 1 1 1 1 1 1 1 1 1 1 1 1 1 1 1 1 1 1 1 1 1 1 1 1 1 1 1 1 1 1 1 1 1 1 1 1 1 1 1 1 1 1 1 1 1 1 1 1 1 1 1 1 1 1 1 1 1 1 1 1 1 1 1 1 1 1 1 1 1 1 1 1 1 1 1 1 1 1 1 1 1 1 1 1 1 1 1 1 1 1 1 1 1 1 1 1 1 1 1 1 1 1 1 1 1 1 1 1 1 1 1 1 1 1 1 1 1 1 1 1 1 1 1 1 1 1 1 1 1 1 1 1 1 1 1 1 1 1 1 1 1 1 1 1 1 1 1 1 1 1 1 1 1 1 1 1 1 1 1 1 1 1 1 1 1 1 1 1 1 1 1 1 1 1 1 1 1 1 1 1 1 1 1 1 1 1 1 1 1 1 1 1 1 1 1 1 1 1 1 1 1 1 1 1 1 1 1 1 1 1 1 1 1 1 1 1 1 1 1 1 1 1 1 1 1 1 1 1 1 1 1 1 1 1 1 1 1 1 1 1 1 1 1 1 1 1 1 1 1 1 1 1 1 1 1 1 1 1 1 1 1 1 1 1 1 1 1 1 1 1 1 1 1 1 1 1 1 1 1 1 1 1 1 1 1 1 1 1 1 1 1 1 1 1 1 1 1 1 1 1 1 1 1 1 1 1 1 1 1 1 1 1 1 1 1 1 1 1 1 1 1 1 1 1 1 1 1 1 1 1 1 1 1 1 1 1 1 1 1 1 1 1 1 1 1 1 1 1 1 1 1 1 1 1 1 1 1 1 1 1 1 1 1 1 1 1 1 1 1 1 1 1 1 1 1 1 1 1 1 1 1 1 1 1 1 1 1 1 1 1 1 1 1 1 1 1 1 1 1 1 1 1 1 1 1 1 1 1 1 1 1 1 1 1 1 1 1 1 1 1 1 1 1 1 1 1 1 1 1 1 1 1 1 1 1 1 1 1 1 1 1 1 1 1 1 1 1 1 1 1 1 1 1 1 1 1 1 1 1 1 1 1 1 1 1 1 1 1 1 1 1 1 1 1 1 1 1 1 1 1 1 1 1 1 1 1 1 1 1 1 1 1 1 1 1 1 1 1 1 1 1 1 1 1 1 1 1 1 1 1 1 1 1 1 1 1 1 1 1 1 1 1 1 1 1 1 1 1 1 1 1 1 1 1 1 1 1 1 1 1 1 1 1 1 1 1 1 1 1 1 1 1 1 1 1 1 1 1 1 1 1 1 1 1 1 1 1 1 1 1 1 1 1 1 1 1 1 1 1 1 1 1 1 1 1 1 1 1 1 1 1 1 1 1 1 1 1 1 1 1 1 1 1 1 1 1 1 1 1 1 1 1 1 1 1 1 1 1 1 1 1 1 1 1 1 1 1 1 1 1 1 1 1 1 1 1 1 1 1 1 1 1 1 1 1 1 1 1 1 1 1 1 1 1 1 1 1 1 1 1 1 1 1 1 1 1 1 1 1 1 1 1 1 1 1 1 1 1 1 1 1 1 1 1 1 1 1 1 1 1 1 1 1 1 1 1 1 1 1 1 1 1 1 1 1 1 1 1 1 1 1 1 1 1 1 1 1 1 1 1 1 1 1 1 1 1 1 1 1 1 1 1 1 1 1 1 1 1 1 1 1 1 1 1 1 1 1 1 1 1 1 1 1 1 1 1 1 1 1 1 1 1 1 1 1 1 1 1 1 1 1 1 1 1 1 1 1 1 1 1 1 1 1 1 1 1 1 1 1 1 1 1 1 1 1 1 1 1 1 1 1 1 1 1 1 1 1 1 1 1 1 1 1 1 1 1 1 1 1 1 1 1 1 1 1 1 1 1 1 1 1 1 1 1 1 1 1 1 1 1 1 1 1 1 1 1 1 1 1 1 1 1 1 1 1 1 1 1 1 1 1 1 1 1 1 1 1 1 1 1 1 1 1 1 1 1 1 1 1 1 1 1 1 1 1 1 1 1 1 1 1 1 1 1 1 1 1 1 1 1 1 1 1 1 1 1 1 1 1 1 1 1 1 1 1 1 1 1 1 1 1 1 1 1 1 1 1 1 1 1 1 1 1 1 1 1 1 1 1 1 1 1 1 1 1 1 1 1 1 1 1 1 1 1 1 1 1 1 1 1 1 1 1 1 1 1 1 1 1 1 1 1 1 1 1 1 1 1 1 1 1 1 1 1 1 1 1 1 1 1 1 1 1 1 1 1 1 1 1 1 1 1 1 1 1 1 1 1 1 1 1 1 1 1 1 1 1 1 1 1 1 1 1 1 1 1 1 1 1 1 1 1 1 1 1 1 1 1 1 1 1 1 1 1 1 1 1 1 1 1 1 1 1 1 1 1 1 1 1 1 1 1 1 1 1 1 1 1 1 1 1 1 1 1 1 1 1 1 1 1 1 1 1 1 1 1 1 1 1 1 1 1 1 1 1 1 1 1 1 1 1 1 1 1 1 1 1 1 1 1 1 1 1 1 1 1 1 1 1 1 1 1 1 1 1 1 1 1 1 1 1 1 1 1 1 1 1 1 1 1 1 1 1 1 1 1 1 1 1 1 1 1 1 1 1 1 1 1 1 1 1 1 1 1 1 1 1 1 1 1 1 1 1 1 1 1 1 1 1 1 1 1 1 1 1 1 1 1 1 1 1 1 1 1 1 1 1 1 1 1 1 1 1 1 1 1 1 1 1 1 1 1 1 1 1 1 1 1 1 1 1 1 1 1 1 1 1 1 1 1 1 1 1 1 1 1 1 1 1 1 1 1 1 1 1 1 1 1 1 1 1 1 1 1 1 1 1 1 1 1 1 1 1 1 1 1 1 1 1 1 1 1 1 1 1 1 1 1 1 1 1 1 1 1 1 1 1 1 1 1 1 1 1 1 1 1 1 1 1 1 1 1 1 1 1 1 1 1 1 1 1 1 1 1 1 1 1 1 1 1 1 1 1 1 1 1 1 1 1 1 1 1 1 1 1 1 1 1 1 1 1 1 1 1 1 1 1 1 1 1 1 1 1 1 1 1 1 1 1 1 1 1 1 1 1 1 1 1 1 1 1 1 1 1 1 1 1 1 1 1 1 1 1 1 1 1 1 1 1 1 1 1 1 1 1 1 1 1 1 1 1 1 1 1 1 1 1 1 1 1 1 1 1 1 1 1 1 1 1 1 1 1 1 1 1 1 1 1 1 1 1 1 1 1 1 1 1 1 1 1 1 1 1 1 1 1 1 1 1 1 1 1 1 1 1 1 1 1 1 1 1 1 1 1 1 1 1 1 1 1 1 1 1 1 1 1 1 1 1 1 1 1 1 1 1 1 1 1 1 1 1 1 1 1 1 1 1 1 1 1 1 1 1 1 1 1 1 1 1 1 1 1 1 1 1 1 1 1 1 1 1 1 1 1 1 1 1 1 1 1 1 1 1 1 1 1 1 1 1 1 1 1 1 1 1 1 1 1 1 1 1 1 1 1 1 1 1 1 1 1 1 1 1 1 1 1 1 1 1 1 1 1 1 1 1 1 1 1 1 1 1 1 1 1 1 1 1 1 1 1 1 1 1 1 1 1 1 1 1 1 1 1 1 1 1 1 1 1 1 1 1 1 1 1 1 1 1 1 1 1 1 1 1 1 1 1 1 1 1 1 1 1 1 1 1 1 1 1 1 1 1 1 1 1 1 1 1 1 1 1 1 1 1 1 1 1 1 1 1 1 1 1 1 1 1 1 1 1 1 1 1 1 1 1 1 1 1 1 1 1 1 1 1 1 1 1 1 1 1 1 1 1 1 1 1 1 1 1 1 1 1 1 1 1 1 1 1 1 1 1 1 1 1 1 1 1 1 1 1 1 1 1 1 1 1 1 1 1 1 1 1 1 1 1 1 1 1 1 1 1 1 1 1 1 1 1 1 1 1 1 1 1 1 1 1 1 1 1 1 1 1 1 1 1 1 1 1 1 1 1 1 1 1 1 1 1 1 1 1 1 1 1 1 1 1 1 1 1 1 1 1 1 1 1 1 1 1 1 1 1 1 1 1 1 1 1 1 1 1 1 1 1 1 1 1 1 1 1 1 1 1 1 1 1 1 1 1 1 1 1 1 1 1 1 1 1 1 1 1 1 1 1 1 1 1 1 1 1 1 1 1 1 1 1 1 1 1 1 1 1 1 1 1 1 1 1 1 1 1 1 1 1 1 1 1 1 1 1 1 1 1 1 1 1 1 1 1 1 1 1 1 1 1 1 1 1 1 1 1 1 1 1 1 1 1 1 1 1 1 1 1 1 1 1 1 1 1 1 1 1 1 1 1 1 1 1 1 1 1 1 1 1 1 1 1 1 1 1 1 1 1 1 1 1 1 1 1 1 1 1 1 1 1 1 1 1 1 1 1 1 1 1 1 1 1 1 1 1 1 1 1 1 1 1 1 1 1 1 1 1 1 1 1 1 1 1 1 1 1 1 1 1 1 1 1 1 1 1 1 1 1 1 1 1 1 1 1 1 1 1 1 1 1 1 1 1 1 1 1 1 1 1 1 1 1 1 1 1 1 1 1 1 1 1 1 1 1 1 1 1 1 1 1 1 1 1 1 1 1 1 1 1 1 1 1 1 1 1 1 1 1 1 1 1 1 1 1 1 1 1 1 1 1</float_array>
          <technique_common>
            <accessor source="#Cylinder-mesh-colors-Attribute-array" count="684" stride="4">
              <param name="R" type="float"/>
              <param name="G" type="float"/>
              <param name="B" type="float"/>
              <param name="A" type="float"/>
            </accessor>
          </technique_common>
        </source>
        <vertices id="Cylinder-mesh-vertices">
          <input semantic="POSITION" source="#Cylinder-mesh-positions"/>
        </vertices>
        <lines count="2">
          <input semantic="VERTEX" source="#Cylinder-mesh-vertices" offset="0"/>
          <p>78 26 27 78</p>
        </lines>
        <triangles count="228">
          <input semantic="VERTEX" source="#Cylinder-mesh-vertices" offset="0"/>
          <input semantic="NORMAL" source="#Cylinder-mesh-normals" offset="1"/>
          <input semantic="TEXCOORD" source="#Cylinder-mesh-map-0" offset="2" set="0"/>
          <input semantic="COLOR" source="#Cylinder-mesh-colors-Attribute" offset="3" set="0"/>
          <p>9 0 0 0 86 0 1 1 61 0 2 2 1 1 3 3 86 1 4 4 54 1 5 5 61 2 6 6 28 2 7 7 4 2 8 8 34 3 9 9 38 3 10 10 0 3 11 11 10 4 12 12 87 4 13 13 34 4 14 14 67 5 15 15 69 5 16 16 87 5 17 17 87 6 18 18 18 6 19 19 38 6 20 20 8 7 21 21 88 7 22 22 62 7 23 23 63 8 24 24 40 8 25 25 4 8 26 26 17 9 27 27 88 9 28 28 63 9 29 29 2 10 30 30 89 10 31 31 29 10 32 32 36 11 33 33 65 11 34 34 89 11 35 35 89 12 36 36 21 12 37 37 70 12 38 38 29 13 39 39 70 13 40 40 19 13 41 41 50 14 42 42 49 14 43 43 12 14 44 44 11 15 45 45 90 15 46 46 50 15 47 47 90 16 48 48 3 16 49 49 32 16 50 50 90 17 51 51 2 17 52 52 49 17 53 53 14 18 54 54 91 18 55 55 55 18 56 56 56 19 57 57 35 19 58 58 91 19 59 59 91 20 60 60 1 20 61 61 33 20 62 62 55 21 63 63 33 21 64 64 0 21 65 65 1 22 66 66 92 22 67 67 28 22 68 68 13 23 69 69 92 23 70 70 35 23 71 71 28 24 72 72 64 24 73 73 4 24 74 74 12 25 75 75 93 25 76 76 41 25 77 77 49 26 78 78 29 26 79 79 93 26 80 80 93 27 81 81 19 27 82 82 74 27 83 83 41 28 84 84 74 28 85 85 25 28 86 86 10 29 87 87 94 29 88 88 52 29 89 89 53 30 90 90 47 30 91 91 94 30 92 92 94 31 93 93 8 31 94 94 42 31 95 95 94 32 96 96 7 32 97 97 52 32 98 98 58 33 99 99 59 33 100 100 16 33 101 101 15 34 102 102 95 34 103 103 58 34 104 104 95 35 105 105 6 35 106 106 43 35 107 107 59 36 108 108 43 36 109 109 5 36 110 110 39 37 111 111 60 37 112 112 4 37 113 113 6 38 114 114 96 38 115 115 39 38 116 116 15 39 117 117 96 39 118 118 45 39 119 119 44 40 120 120 66 40 121 121 5 40 122 122 14 41 123 123 97 41 124 124 44 41 125 125 31 42 126 126 72 42 127 127 97 42 128 128 97 43 129 129 23 43 130 130 66 43 131 131 32 44 132 132 36 44 133 133 2 44 134 134 32 45 135 135 48 45 136 136 98 45 137 137 98 46 138 138 15 46 139 139 58 46 140 140 98 47 141 141 16 47 142 142 36 47 143 143 42 48 144 144 46 48 145 145 7 48 146 146 62 49 147 147 42 49 148 148 8 49 149 149 17 50 150 150 99 50 151 151 62 50 152 152 50 51 153 153 51 51 154 154 11 51 155 155 12 52 156 156 99 52 157 157 50 52 158 158 0 53 159 159 100 53 160 160 34 53 161 161 33 54 162 162 54 54 163 163 100 54 164 164 54 55 165 165 53 55 166 166 100 55 167 167 34 56 168 168 53 56 169 169 10 56 170 170 5 57 171 171 101 57 172 172 44 57 173 173 6 58 174 174 101 58 175 175 43 58 176 176 101 59 177 177 13 59 178 178 56 59 179 179 44 60 180 180 56 60 181 181 14 60 182 182 15 61 183 183 102 61 184 184 60 61 185 185 3 62 186 186 102 62 187 187 48 62 188 188 60 63 189 189 30 63 190 190 4 63 191 191 40 64 192 192 61 64 193 193 4 64 194 194 8 65 195 195 103 65 196 196 40 65 197 197 9 66 198 198 103 66 199 199 47 66 200 200 63 67 201 201 51 67 202 202 17 67 203 203 63 68 204 204 30 68 205 205 104 68 206 206 30 69 207 207 37 69 208 208 104 69 209 209 104 70 210 210 11 70 211 211 51 70 212 212 64 71 213 213 39 71 214 214 4 71 215 215 13 72 216 216 105 72 217 217 64 72 218 218 6 73 219 219 105 73 220 220 57 73 221 221 55 74 222 222 31 74 223 223 14 74 224 224 0 75 225 225 106 75 226 226 55 75 227 227 38 76 228 228 76 76 229 229 106 76 230 230 106 77 231 231 24 77 232 232 31 77 233 233 7 78 234 234 107 78 235 235 68 78 236 236 46 79 237 237 41 79 238 238 107 79 239 239 107 80 240 240 25 80 241 241 73 80 242 242 68 81 243 243 73 81 244 244 22 81 245 245 16 82 246 246 108 82 247 247 65 82 248 248 59 83 249 249 66 83 250 250 108 83 251 251 108 84 252 252 23 84 253 253 77 84 254 254 65 85 255 255 77 85 256 256 21 85 257 257 52 86 258 258 67 86 259 259 10 86 260 260 7 87 261 261 109 87 262 262 52 87 263 263 68 88 264 264 75 88 265 265 109 88 266 266 109 89 267 267 20 89 268 268 67 89 269 269 22 90 270 270 110 90 271 271 79 90 272 272 25 91 273 273 110 91 274 274 73 91 275 275 79 92 276 276 81 92 277 277 26 92 278 278 20 93 279 279 111 93 280 280 80 93 281 281 22 94 282 282 111 94 283 283 75 94 284 284 80 95 285 285 79 95 286 286 26 95 287 287 21 96 288 288 112 96 289 289 85 96 290 290 23 97 291 291 112 97 292 292 77 97 293 293 85 98 294 294 71 98 295 295 26 98 296 296 18 99 297 297 113 99 298 298 83 99 299 299 20 100 300 300 113 100 301 301 69 100 302 302 83 101 303 303 80 101 304 304 26 101 305 305 23 102 306 306 114 102 307 307 71 102 308 308 24 103 309 309 114 103 310 310 72 103 311 311 71 104 312 312 82 104 313 313 26 104 314 314 25 105 315 315 115 105 316 316 81 105 317 317 19 106 318 318 115 106 319 319 74 106 320 320 81 107 321 321 84 107 322 322 26 107 323 323 24 108 324 324 116 108 325 325 82 108 326 326 18 109 327 327 116 109 328 328 76 109 329 329 82 110 330 330 83 110 331 331 26 110 332 332 19 111 333 333 117 111 334 334 84 111 335 335 21 112 336 336 117 112 337 337 70 112 338 338 84 113 339 339 85 113 340 340 26 113 341 341 9 114 342 342 54 114 343 343 86 114 344 344 1 115 345 345 28 115 346 346 86 115 347 347 61 116 348 348 86 116 349 349 28 116 350 350 34 117 351 351 87 117 352 352 38 117 353 353 10 118 354 354 67 118 355 355 87 118 356 356 67 119 357 357 20 119 358 358 69 119 359 359 87 120 360 360 69 120 361 361 18 120 362 362 8 121 363 363 40 121 364 364 88 121 365 365 63 122 366 366 88 122 367 367 40 122 368 368 17 123 369 369 62 123 370 370 88 123 371 371 2 124 372 372 36 124 373 373 89 124 374 374 36 125 375 375 16 125 376 376 65 125 377 377 89 126 378 378 65 126 379 379 21 126 380 380 29 127 381 381 89 127 382 382 70 127 383 383 50 128 384 384 90 128 385 385 49 128 386 386 11 129 387 387 37 129 388 388 90 129 389 389 90 130 390 390 37 130 391 391 3 130 392 392 90 131 393 393 32 131 394 394 2 131 395 395 14 132 396 396 56 132 397 397 91 132 398 398 56 133 399 399 13 133 400 400 35 133 401 401 91 134 402 402 35 134 403 403 1 134 404 404 55 135 405 405 91 135 406 406 33 135 407 407 1 136 408 408 35 136 409 409 92 136 410 410 13 137 411 411 64 137 412 412 92 137 413 413 28 138 414 414 92 138 415 415 64 138 416 416 12 139 417 417 49 139 418 418 93 139 419 419 49 140 420 420 2 140 421 421 29 140 422 422 93 141 423 423 29 141 424 424 19 141 425 425 41 142 426 426 93 142 427 427 74 142 428 428 10 143 429 429 53 143 430 430 94 143 431 431 53 144 432 432 9 144 433 433 47 144 434 434 94 145 435 435 47 145 436 436 8 145 437 437 94 146 438 438 42 146 439 439 7 146 440 440 58 147 441 441 95 147 442 442 59 147 443 443 15 148 444 444 45 148 445 445 95 148 446 446 95 149 447 447 45 149 448 448 6 149 449 449 59 150 450 450 95 150 451 451 43 150 452 452 39 151 453 453 96 151 454 454 60 151 455 455 6 152 456 456 45 152 457 457 96 152 458 458 15 153 459 459 60 153 460 460 96 153 461 461 44 154 462 462 97 154 463 463 66 154 464 464 14 155 465 465 31 155 466 466 97 155 467 467 31 156 468 468 24 156 469 469 72 156 470 470 97 157 471 471 72 157 472 472 23 157 473 473 32 158 474 474 98 158 475 475 36 158 476 476 32 159 477 477 3 159 478 478 48 159 479 479 98 160 480 480 48 160 481 481 15 160 482 482 98 161 483 483 58 161 484 484 16 161 485 485 42 162 486 486 99 162 487 487 46 162 488 488 62 163 489 489 99 163 490 490 42 163 491 491 17 164 492 492 51 164 493 493 99 164 494 494 50 165 495 495 99 165 496 496 51 165 497 497 12 166 498 498 46 166 499 499 99 166 500 500 0 167 501 501 33 167 502 502 100 167 503 503 33 168 504 504 1 168 505 505 54 168 506 506 54 169 507 507 9 169 508 508 53 169 509 509 34 170 510 510 100 170 511 511 53 170 512 512 5 171 513 513 43 171 514 514 101 171 515 515 6 172 516 516 57 172 517 517 101 172 518 518 101 173 519 519 57 173 520 520 13 173 521 521 44 174 522 522 101 174 523 523 56 174 524 524 15 175 525 525 48 175 526 526 102 175 527 527 3 176 528 528 30 176 529 529 102 176 530 530 60 177 531 531 102 177 532 532 30 177 533 533 40 178 534 534 103 178 535 535 61 178 536 536 8 179 537 537 47 179 538 538 103 179 539 539 9 180 540 540 61 180 541 541 103 180 542 542 63 181 543 543 104 181 544 544 51 181 545 545 63 182 546 546 4 182 547 547 30 182 548 548 30 183 549 549 3 183 550 550 37 183 551 551 104 184 552 552 37 184 553 553 11 184 554 554 64 185 555 555 105 185 556 556 39 185 557 557 13 186 558 558 57 186 559 559 105 186 560 560 6 187 561 561 39 187 562 562 105 187 563 563 55 188 564 564 106 188 565 565 31 188 566 566 0 189 567 567 38 189 568 568 106 189 569 569 38 190 570 570 18 190 571 571 76 190 572 572 106 191 573 573 76 191 574 574 24 191 575 575 7 192 576 576 46 192 577 577 107 192 578 578 46 193 579 579 12 193 580 580 41 193 581 581 107 194 582 582 41 194 583 583 25 194 584 584 68 195 585 585 107 195 586 586 73 195 587 587 16 196 588 588 59 196 589 589 108 196 590 590 59 197 591 591 5 197 592 592 66 197 593 593 108 198 594 594 66 198 595 595 23 198 596 596 65 199 597 597 108 199 598 598 77 199 599 599 52 200 600 600 109 200 601 601 67 200 602 602 7 201 603 603 68 201 604 604 109 201 605 605 68 202 606 606 22 202 607 607 75 202 608 608 109 203 609 609 75 203 610 610 20 203 611 611 22 204 612 612 73 204 613 613 110 204 614 614 25 205 615 615 81 205 616 616 110 205 617 617 79 206 618 618 110 206 619 619 81 206 620 620 20 207 621 621 75 207 622 622 111 207 623 623 22 208 624 624 79 208 625 625 111 208 626 626 80 209 627 627 111 209 628 628 79 209 629 629 21 210 630 630 77 210 631 631 112 210 632 632 23 211 633 633 71 211 634 634 112 211 635 635 85 212 636 636 112 212 637 637 71 212 638 638 18 213 639 639 69 213 640 640 113 213 641 641 20 214 642 642 80 214 643 643 113 214 644 644 83 215 645 645 113 215 646 646 80 215 647 647 23 216 648 648 72 216 649 649 114 216 650 650 24 217 651 651 82 217 652 652 114 217 653 653 71 218 654 654 114 218 655 655 82 218 656 656 25 219 657 657 74 219 658 658 115 219 659 659 19 220 660 660 84 220 661 661 115 220 662 662 81 221 663 663 115 221 664 664 84 221 665 665 24 222 666 666 76 222 667 667 116 222 668 668 18 223 669 669 83 223 670 670 116 223 671 671 82 224 672 672 116 224 673 673 83 224 674 674 19 225 675 675 70 225 676 676 117 225 677 677 21 226 678 678 85 226 679 679 117 226 680 680 84 227 681 681 117 227 682 682 85 227 683 683</p>
        </triangles>
      </mesh>
    </geometry>
  </library_geometries>
  <library_visual_scenes>
    <visual_scene id="Scene" name="Scene">
      <node id="Cylinder" name="Cylinder" type="NODE">
        <matrix sid="transform">1 0 0 0 0 1 0 0 0 0 1 0 0 0 0 1</matrix>
        <instance_geometry url="#Cylinder-mesh" name="Cylinder"/>
      </node>
    </visual_scene>
  </library_visual_scenes>
  <scene>
    <instance_visual_scene url="#Scene"/>
  </scene>
</COLLADA>