<?xml version="1.0" encoding="utf-8"?>
<COLLADA xmlns="http://www.collada.org/2005/11/COLLADASchema" version="1.4.1" xmlns:xsi="http://www.w3.org/2001/XMLSchema-instance">
  <asset>
    <contributor>
      <author>Blender User</author>
      <authoring_tool>Blender 4.1.1 commit date:2024-04-15, commit time:15:11, hash:e1743a0317bc</authoring_tool>
    </contributor>
    <created>2024-08-12T16:51:33</created>
    <modified>2024-08-12T16:51:33</modified>
    <unit name="meter" meter="1"/>
    <up_axis>Z_UP</up_axis>
  </asset>
  <library_effects>
    <effect id="Material-effect">
      <profile_COMMON>
        <technique sid="common">
          <lambert>
            <emission>
              <color sid="emission">0 0 0 1</color>
            </emission>
            <diffuse>
              <color sid="diffuse">0.09447535 0.143617 0.06913134 1</color>
            </diffuse>
            <index_of_refraction>
              <float sid="ior">1.45</float>
            </index_of_refraction>
          </lambert>
        </technique>
      </profile_COMMON>
    </effect>
    <effect id="Material_001-effect">
      <profile_COMMON>
        <technique sid="common">
          <lambert>
            <emission>
              <color sid="emission">0 0 0 1</color>
            </emission>
            <diffuse>
              <color sid="diffuse">0.09447535 0.143617 0.06913134 1</color>
            </diffuse>
            <index_of_refraction>
              <float sid="ior">1.45</float>
            </index_of_refraction>
          </lambert>
        </technique>
      </profile_COMMON>
    </effect>
    <effect id="Material_002-effect">
      <profile_COMMON>
        <technique sid="common">
          <lambert>
            <emission>
              <color sid="emission">0 0 0 1</color>
            </emission>
            <diffuse>
              <color sid="diffuse">0.8 0.8 0.8 1</color>
            </diffuse>
            <index_of_refraction>
              <float sid="ior">1.5</float>
            </index_of_refraction>
          </lambert>
        </technique>
      </profile_COMMON>
    </effect>
    <effect id="Material_003-effect">
      <profile_COMMON>
        <technique sid="common">
          <lambert>
            <emission>
              <color sid="emission">0 0 0 1</color>
            </emission>
            <diffuse>
              <color sid="diffuse">0.8 0.8 0.8 1</color>
            </diffuse>
            <index_of_refraction>
              <float sid="ior">1.5</float>
            </index_of_refraction>
          </lambert>
        </technique>
      </profile_COMMON>
    </effect>
  </library_effects>
  <library_images/>
  <library_materials>
    <material id="Material-material" name="Material">
      <instance_effect url="#Material-effect"/>
    </material>
    <material id="Material_001-material" name="Material.001">
      <instance_effect url="#Material_001-effect"/>
    </material>
    <material id="Material_002-material" name="Material.002">
      <instance_effect url="#Material_002-effect"/>
    </material>
    <material id="Material_003-material" name="Material.003">
      <instance_effect url="#Material_003-effect"/>
    </material>
  </library_materials>
  <library_geometries>
    <geometry id="Cube-mesh" name="Cube">
      <mesh>
        <source id="Cube-mesh-positions">
          <float_array id="Cube-mesh-positions-array" count="264">-1.006374 0 3.279615 -0.8538044 0 4.207466 -1.006374 -0.3 3.279615 -1.006374 0.3 3.279615 -0.8536543 0.25 4.206831 -0.8536543 -0.25 4.206831 -1.041697 0 3.671751 -0.5299918 0 5.230331 -0.5206966 -0.1738661 5.235734 -1.042679 -0.275 3.67227 -1.042679 0.275 3.67227 -0.5206966 0.1738661 5.235734 -0.1530734 0.3695518 3.718822 0.1530733 0.3695518 3.718822 -0.3826835 0.9238795 -0.2994604 -0.3826835 0.9238795 2.29946 0.3826834 0.9238795 -0.2994604 0.3826834 0.9238795 2.29946 0.5547878 0.7517752 -0.2994605 0.5547878 0.7517752 2.29946 0.9238795 -0.3826834 -1 0.9238795 -0.3826834 3 0.3826835 -0.9238795 -1 0.3826835 -0.9238795 3 -0.3826834 -0.9238795 -1 -0.3826834 -0.9238795 3 -0.9238795 -0.3826835 -1 -0.9238795 -0.3826835 3 -0.5547879 0.7517752 -0.2994605 -0.5547879 0.7517752 2.29946 0.3695518 0.1530734 3.718822 0.3695518 -0.1530733 3.718822 0.1530733 -0.3695518 3.718822 -0.1530734 -0.3695518 3.718822 -0.3695518 -0.1530734 3.718822 -0.3695518 0.1530733 3.718822 -0.09952735 0.2402796 5.318823 -0.2402799 0.09952706 5.318823 -0.2402799 -0.09952706 5.318823 -0.09952735 -0.2402796 5.318823 0.09952676 -0.2402796 5.318823 0.2402793 -0.09952706 5.318823 0.2402793 0.09952706 5.318823 0.09952676 0.2402796 5.318823 -0.3826835 0.9238795 -1 0.3826834 0.9238795 -1 0.3826834 0.9238795 3 -0.3826835 0.9238795 3 0.9238795 0.3826835 -1 0.9238795 0.3826835 3 -0.9238795 0.3826834 3 -0.9238795 0.3826834 -1 -0.1530737 0.3695518 5.318823 -0.3695521 0.1530733 5.318823 -0.3695521 -0.1530734 5.318823 -0.1530736 -0.3695518 5.318823 0.1530731 -0.3695518 5.318823 0.3695515 -0.1530733 5.318823 0.3695515 0.1530734 5.318823 0.153073 0.3695518 5.318823 -0.09952676 0.2402796 4.309302 -0.2402793 0.09952706 4.309302 -0.2402793 -0.09952706 4.309302 -0.0995267 -0.2402796 4.309302 0.09952741 -0.2402796 4.309302 0.2402799 -0.09952706 4.309302 0.2402799 0.09952706 4.309302 0.09952735 0.2402796 4.309302 -0.09952765 0.2402796 5.769223 -0.2402802 0.09952706 5.769223 -0.2402802 -0.09952706 5.769223 -0.09952765 -0.2402796 5.769223 0.09952646 -0.2402796 5.769223 0.240279 -0.09952706 5.769223 0.240279 0.09952706 5.769223 0.09952646 0.2402796 5.769223 -0.2402799 0 5.383742 -0.3628779 0 5.318823 -0.3625807 0.05163729 5.318823 -0.3695521 0 5.315289 -0.2402799 0.09952706 5.383499 -0.2285941 0.1112129 5.389699 -0.3630606 0.1400547 5.318823 -0.3695521 0.141447 5.315401 -0.2285941 -0.1112129 5.389698 -0.2402799 -0.09952706 5.383499 -0.3630606 -0.1400547 5.318823 -0.3695521 -0.141447 5.315401</float_array>
          <technique_common>
            <accessor source="#Cube-mesh-positions-array" count="88" stride="3">
              <param name="X" type="float"/>
              <param name="Y" type="float"/>
              <param name="Z" type="float"/>
            </accessor>
          </technique_common>
        </source>
        <source id="Cube-mesh-normals">
          <float_array id="Cube-mesh-normals-array" count="495">-0.9428446 0.003993749 0.3332088 -0.4667056 0.002533078 0.8844091 -0.9513934 -0.001352965 0.3079753 -0.9957529 0 -0.09206587 -0.9957529 0 -0.09206587 -0.9428446 -0.003993749 0.3332088 -0.9513934 0.001352965 0.3079753 -0.4667056 -0.002533078 0.8844091 0 -1 0 0.5599471 0.5599471 0.6106705 0 1 0 0 1 0 0 -0.7918848 0.6106705 0.7071068 0.7071068 0 0.7071068 0.7071068 0 -0.5599471 0.5599471 0.6106705 1 0 0 -0.7071068 -0.7071068 -1.21683e-7 0.5599471 -0.5599471 0.6106705 0.7071068 -0.7071067 0 -0.7071068 0.7071068 -1.25123e-7 -0.7918848 0 0.6106705 0 -1 0 0 1 0 0.7918848 0 0.6106705 -0.7071067 -0.7071068 0 0 0.7918848 0.6106705 1 0 1.67638e-7 -1 0 0 -1 2.10561e-7 -1.69531e-7 -0.5599471 -0.5599471 0.6106705 -0.7071067 0.707107 0 0 0 -1 0.7071068 -0.7071068 1.29288e-7 0 1 0 0 1 0 0.7071068 0.7071068 0 0.7071068 0.7071068 0 0.7071067 0.7071068 0 -0.7071068 0.7071067 0 -0.7071068 0.7071068 0 -0.7071067 0.7071069 0 0 0 1 0 0 1 0 0 1 0 0 1 0 0 1 0 0 1 0 0 1 0 0 1 -0.7071068 -0.7071068 -4.37067e-7 1 0 6.19947e-7 -0.7071067 -0.7071068 -4.35654e-7 -0.7071068 0.7071068 -4.38368e-7 0.7071068 0.7071068 4.38368e-7 0.7071068 -0.7071068 4.44923e-7 0 -1 0 -1 0 -6.19947e-7 0 0 1 -0.7071068 0.7071068 -4.37067e-7 0 1 0 1 0 6.22617e-7 0 -1 0 -1 0 -6.24236e-7 0.7071068 0.7071068 4.40256e-7 0.7071069 -0.7071068 4.42261e-7 -1 2.11267e-7 7.17832e-7 -0.4667024 0.002517819 0.8844108 -0.4681426 0.002159059 0.8836503 0 0 1 -1 0 -6.37824e-7 -0.9436417 -0.001406669 0.3309657 -0.467967 7.03196e-4 0.8837456 -0.9525442 -0.04155325 0.3015508 -0.9959619 0.003386259 -0.08971357 -0.9959619 -0.003386259 -0.08971357 -0.9436417 0.001406669 0.3309657 -0.9525442 0.04155325 0.3015508 -0.467967 -7.03196e-4 0.8837456 0 -1 0 0.5599471 0.5599471 0.6106705 0 1 0 0 1 0 0 -0.7918848 0.6106705 0.7071068 0.7071068 0 0.7071068 0.7071068 0 -0.5599471 0.5599471 0.6106705 1 0 0 -0.7071068 -0.7071068 0 0.5599471 -0.559947 0.6106705 0.7071068 -0.7071067 0 -0.7071068 0.7071068 0 -0.7918848 0 0.6106705 0 -1 0 0 1 0 0.7918848 0 0.6106705 -0.7071067 -0.7071068 0 0 0.7918848 0.6106705 1 0 1.67638e-7 -1 0 0 -1 0 -1.67638e-7 -1 0 -1.49341e-7 -1 -2.10561e-7 -1.69531e-7 -1 0 -1.67638e-7 -0.5599471 -0.5599471 0.6106705 -0.7071067 0.7071069 0 0 0 -1 0 0 -1 0 0 -1 0 0 -1 0 0 -1 0.7071069 -0.7071068 0 0 1 0 0 1 0 0.7071068 0.7071068 0 0.7071068 0.7071068 0 0.7071067 0.7071068 0 -0.7071068 0.7071067 0 -0.7071067 0.7071069 0 -0.7071068 0.7071068 0 0 0 1 0 0 1 0 0 1 0 0 1 0 0 1 0 0 1 0 0 1 0 0 1 0 0 1 0 0 1 -0.7071068 -0.7071068 -4.41402e-7 -0.7071068 -0.7071069 -4.40256e-7 1 0 6.19947e-7 -0.7071067 -0.7071068 -4.38368e-7 -0.7071068 0.7071068 -4.38368e-7 0.7071068 0.7071068 4.38368e-7 0.7071068 -0.7071068 4.38368e-7 0 -1 0 -1 0 -6.19947e-7 0 0 1 0 0 1 0 0 1 0 0 1 0 0 1 -0.7071069 0.7071068 -4.40256e-7 -0.7071068 0.7071068 -4.41402e-7 0 1 0 1 0 6.22617e-7 0 -1 0 -1 -1.51244e-7 -6.24236e-7 -1 0 -6.17161e-7 0.7071068 0.7071068 4.40256e-7 0.7071069 -0.7071068 4.40256e-7 -1 0 -8.43227e-6 -1 -2.11267e-7 7.1783e-7 -0.4679665 -0.002159357 0.8837436 -0.4662106 6.08029e-4 0.8846737 -0.4667093 -0.002544283 0.8844072 -0.4667064 -0.002532958 0.8844087 -0.4679659 0.002693533 0.8837425 0 0 1 0 0 1 0 0 1 -1 -1.5123e-7 -6.18106e-7 -1 0 -6.18106e-7</float_array>
          <technique_common>
            <accessor source="#Cube-mesh-normals-array" count="165" stride="3">
              <param name="X" type="float"/>
              <param name="Y" type="float"/>
              <param name="Z" type="float"/>
            </accessor>
          </technique_common>
        </source>
        <source id="Cube-mesh-map-0">
          <float_array id="Cube-mesh-map-0-array" count="990">0.5 0.25 0.25 0.5 0.25 0.25 0.8655548 0.25 0.75 0.5 0.75 0.25 0.75 0.25 0.5 0.5 0.5 0.25 0.25 0.25 0 0.5 0 0.25 0 0.5 0.25 0.75 0 0.75 0.25 0.5 0.5 0.75 0.25 0.75 0.5 0.5 0.75 0.75 0.5 0.75 0.75 0.5 0.8655548 0.75 0.75 0.75 0.5463768 0.1966888 0.519765 0 0.5463768 0 0.06652951 0.285054 0.1323903 0.1966888 0.1606164 0.285054 0.8393835 0.6906583 0.772854 0.3711717 0.8393835 0.3711717 0.06814378 0.1966888 0.09475553 0 0.09475558 0.1966888 0.3920857 0.3147166 0.3709443 0.188627 0.4516212 0.2643947 0.772854 0.6906583 0.7429336 0.3711717 0.772854 0.3711717 0.09475558 0.1966888 0.1323903 0 0.1323903 0.1966888 0.6787672 0.285054 0.744628 0.1966888 0.772854 0.285054 0.1606164 0.285054 0.2271459 0.776776 0.1606164 0.7767761 0.5840116 0.1966888 0.5463768 0 0.5840116 0 0.299105 0.329102 0.3471301 0.2087558 0.3920857 0.3147166 0.299105 0.329102 0.4516212 0.6995256 0.3586405 0.7139111 0.7069932 0.1966888 0.744628 0 0.744628 0.1966888 0.6787672 0.285054 0.6803814 0.1966888 0.7069932 0.1966888 0.4516212 0.285054 0.5181507 0.7767761 0.4516212 0.7767761 0.7901569 0.3512468 0.772854 0.4753476 0.772854 0.3512468 0.2271459 0.2991242 0.3099378 0.21451 0.299105 0.329102 0.5181507 0.285054 0.6122376 0.7767761 0.5181507 0.7767761 0 0.285054 0.09475558 0.1966888 0.06652951 0.285054 0.1323903 0.1966888 0.1590021 0 0.1590021 0.1966888 0.6122376 0.285054 0.6787672 0.776776 0.6122376 0.7767761 0.6803814 0.1966888 0.681392 4.20642e-4 0.6936873 4.34475e-4 0.5181507 0.285054 0.5840116 0.1966888 0.6122376 0.285054 0.8697475 0.6906583 0.8398271 0.3711717 0.8697475 0.3711717 0.7728541 0.1606163 0.8393836 0 1 0.06652939 0.3471301 0.2087558 0.2861237 0.06058633 0.3233159 0.0548321 0.06652951 0.6906584 0 0.776776 0 0.6906583 0 0.3711717 0.06652951 0.285054 0.06652951 0.3711717 0.09644985 0.6906584 0.06652951 0.7767761 0.06652951 0.6906584 0.09644985 0.3711717 0.06652951 0.285054 0.1606164 0.285054 0.09644985 0.3711717 0.1606164 0.7767761 0.09644985 0.6906584 0.7429337 0.6906583 0.6787672 0.285054 0.7429337 0.3711717 0.7429337 0.6906583 0.772854 0.776776 0.6787672 0.776776 0.7429337 0.3711717 0.772854 0.285054 0.772854 0.3711717 0.2856292 0.01433807 0.3148326 0 0.3098113 0.01059675 0.3098113 0.01059675 0.3238272 0.004431366 0.3287053 0.006434321 0.3285262 0.01839333 0.3471302 0.03470337 0.3308109 0.03316062 0.3153271 0.04624819 0.3471302 0.03470337 0.3233159 0.0548321 0.3153271 0.04624819 0.2861237 0.06058633 0.291145 0.04998952 0.2724301 0.04219299 0.2861237 0.06058633 0.2573401 0.04859519 0.2724301 0.04219299 0.2538262 0.02588289 0.2701454 0.0274257 0.2856292 0.01433807 0.2538262 0.02588289 0.2776404 0.005754113 0.8146267 0.5994485 0.7901569 0.5994485 0.7901569 0.5994485 0.7901569 0.4753476 0.7728541 0.5994485 0.7728541 0.4753476 0.7901569 0.2271459 0.8146266 0.3512467 0.7901568 0.3512467 0.8146266 0.3512468 0.7901569 0.4753476 0.7901569 0.3512468 0.8146267 0.4753476 0.7901569 0.5994485 0.7901569 0.4753476 0.2856292 0.01433807 0.3248369 0.1077149 0.3006547 0.1114562 0.8146266 0.2271459 0.8319295 0.3512467 0.8146266 0.3512467 0.7901569 0.2271459 0.772854 0.3512467 0.772854 0.2271459 0.3061705 0.1471077 0.2874556 0.1393111 0.3435517 0.1155115 0.3248369 0.1077149 0.3248369 0.1077149 0.3006547 0.1114562 0.8319295 0.3512467 0.8146266 0.3512467 0.8146266 0.3512467 0.7901568 0.3512467 0.772854 0.3512467 0.772854 0.3512467 0.772854 0.4753476 0.7901569 0.4753476 0.772854 0.4753476 0.7901569 0.5994485 0.7901569 0.5994485 0.7815055 0.5994485 0.8146266 0.3512467 0.7901568 0.3512467 0.7901568 0.3512467 0.7901569 0.4753476 0.8146267 0.4753476 0.7901569 0.4753476 0.6936873 4.34475e-4 0.681392 4.20642e-4 0.6803814 0 0.8705179 0.25 0.9733216 0.25 0.9643914 0.2799455 0.8726292 0.5931586 0.9639938 0.5 0.9643913 0.7200543 0.3287053 0.006434321 0.3238272 0.004431366 0.3148326 0 0.7815055 0.5994485 0.7901569 0.5994485 0.7728541 0.5994485 0.5 0.25 0.5 0.5 0.25 0.5 0.8655548 0.25 0.8685078 0.5 0.75 0.5 0.75 0.25 0.75 0.5 0.5 0.5 0.25 0.25 0.25 0.5 0 0.5 0 0.5 0.25 0.5 0.25 0.75 0.25 0.5 0.5 0.5 0.5 0.75 0.5 0.5 0.75 0.5 0.75 0.75 0.75 0.5 0.8685078 0.5 0.8655548 0.75 0.5463768 0.1966888 0.519765 0.1966888 0.519765 0 0.06652951 0.285054 0.09475558 0.1966888 0.1323903 0.1966888 0.8393835 0.6906583 0.772854 0.6906583 0.772854 0.3711717 0.06814378 0.1966888 0.06814372 0 0.09475553 0 0.3920857 0.3147166 0.3471301 0.2087558 0.3709443 0.188627 0.772854 0.6906583 0.7429336 0.6906583 0.7429336 0.3711717 0.09475558 0.1966888 0.09475553 0 0.1323903 0 0.6787672 0.285054 0.7069932 0.1966888 0.744628 0.1966888 0.1606164 0.285054 0.2271459 0.285054 0.2271459 0.776776 0.5840116 0.1966888 0.5463768 0.1966888 0.5463768 0 0.299105 0.329102 0.3099378 0.21451 0.3471301 0.2087558 0.299105 0.329102 0.3920857 0.3147166 0.4516212 0.6995256 0.7069932 0.1966888 0.7069932 0 0.744628 0 0.6787672 0.285054 0.6122376 0.285054 0.6803814 0.1966888 0.4516212 0.285054 0.5181507 0.285054 0.5181507 0.7767761 0.7901569 0.3512468 0.7901569 0.4753476 0.772854 0.4753476 0.2271459 0.2991242 0.2811542 0.2025188 0.3099378 0.21451 0.5181507 0.285054 0.6122376 0.285054 0.6122376 0.7767761 0 0.285054 0.06814378 0.1966888 0.09475558 0.1966888 0.1323903 0.1966888 0.1323903 0 0.1590021 0 0.6122376 0.285054 0.6787672 0.285054 0.6787672 0.776776 0.7069932 0 0.7069932 0.1966888 0.7059825 4.20641e-4 0.7069932 0.1966888 0.6803814 0.1966888 0.6936873 4.34475e-4 0.7059825 4.20641e-4 0.7069932 0.1966888 0.6936873 4.34475e-4 0.6803814 0.1966888 0.6803814 0 0.681392 4.20642e-4 0.5181507 0.285054 0.5463768 0.1966888 0.5840116 0.1966888 0.8697475 0.6906583 0.8398271 0.6906583 0.8398271 0.3711717 1 0.06652939 1 0.1606163 0.9334706 0.2271458 0.9334706 0.2271458 0.8393836 0.2271459 0.7728541 0.1606163 0.7728541 0.1606163 0.7728541 0.06652939 0.8393836 0 0.8393836 0 0.9334705 0 1 0.06652939 1 0.06652939 0.9334706 0.2271458 0.7728541 0.1606163 0.3471301 0.2087558 0.3099378 0.21451 0.2861237 0.06058633 0.06652951 0.6906584 0.06652951 0.7767761 0 0.776776 0 0.3711717 0 0.285054 0.06652951 0.285054 0.09644985 0.6906584 0.1606164 0.7767761 0.06652951 0.7767761 0.09644985 0.3711717 0.06652951 0.3711717 0.06652951 0.285054 0.09644985 0.3711717 0.1606164 0.285054 0.1606164 0.7767761 0.7429337 0.6906583 0.6787672 0.776776 0.6787672 0.285054 0.7429337 0.6906583 0.772854 0.6906583 0.772854 0.776776 0.7429337 0.3711717 0.6787672 0.285054 0.772854 0.285054 0.2856292 0.01433807 0.2776404 0.005754113 0.3148326 0 0.3436163 0.01199108 0.3285262 0.01839333 0.3418873 0.01190799 0.3285262 0.01839333 0.3098113 0.01059675 0.3287053 0.006434321 0.3418873 0.01190799 0.3285262 0.01839333 0.3287053 0.006434321 0.3285262 0.01839333 0.3436163 0.01199108 0.3471302 0.03470337 0.3153271 0.04624819 0.3308109 0.03316062 0.3471302 0.03470337 0.3153271 0.04624819 0.3233159 0.0548321 0.2861237 0.06058633 0.2724301 0.04219299 0.291145 0.04998952 0.2861237 0.06058633 0.2724301 0.04219299 0.2573401 0.04859519 0.2538262 0.02588289 0.2856292 0.01433807 0.2701454 0.0274257 0.2538262 0.02588289 0.7901569 0.5994485 0.7901569 0.5994485 0.8146267 0.5994485 0.8146267 0.5994485 0.8146267 0.5994485 0.7901569 0.5994485 0.7901569 0.4753476 0.7901569 0.5994485 0.7728541 0.5994485 0.7901569 0.2271459 0.8146266 0.2271459 0.8146266 0.3512467 0.8146266 0.3512468 0.8146267 0.4753476 0.7901569 0.4753476 0.8146267 0.4753476 0.8146267 0.5994485 0.7901569 0.5994485 0.2856292 0.01433807 0.3098113 0.01059675 0.3248369 0.1077149 0.8146266 0.2271459 0.8319295 0.2271459 0.8319295 0.3512467 0.7901569 0.2271459 0.7901568 0.3512467 0.772854 0.3512467 0.2874556 0.1393111 0.2851709 0.1245439 0.3435517 0.1155115 0.2851709 0.1245439 0.3006547 0.1114562 0.3435517 0.1155115 0.3006547 0.1114562 0.3248369 0.1077149 0.3435517 0.1155115 0.3435517 0.1155115 0.3458365 0.1302788 0.3303526 0.1433663 0.3303526 0.1433663 0.3061705 0.1471077 0.3435517 0.1155115 0.3006547 0.1114562 0.3006547 0.1114562 0.3248369 0.1077149 0.3006547 0.1114562 0.3248369 0.1077149 0.3248369 0.1077149 0.8319295 0.3512467 0.8319295 0.3512467 0.8146266 0.3512467 0.7901568 0.3512467 0.7901568 0.3512467 0.772854 0.3512467 0.772854 0.4753476 0.7901569 0.4753476 0.7901569 0.4753476 0.7728541 0.5994485 0.7728541 0.5994485 0.7815055 0.5994485 0.7728541 0.5994485 0.7901569 0.5994485 0.7815055 0.5994485 0.8146266 0.3512467 0.8146266 0.3512467 0.7901568 0.3512467 0.7901569 0.4753476 0.8146267 0.4753476 0.8146267 0.4753476 0.6803814 0 0.7069932 0 0.6936873 4.34475e-4 0.7069932 0 0.7059825 4.20641e-4 0.6936873 4.34475e-4 0.9639938 0.5 0.8734377 0.5 0.9643914 0.2799455 0.8734377 0.5 0.8705179 0.25 0.9643914 0.2799455 0.9733218 0.75 0.8705179 0.75 0.9643913 0.7200543 0.8705179 0.75 0.8726292 0.5931586 0.9643913 0.7200543 0.8726292 0.5931586 0.8734377 0.5 0.9639938 0.5 0.3148326 0 0.3436163 0.01199108 0.3287053 0.006434321 0.3436163 0.01199108 0.3418873 0.01190799 0.3287053 0.006434321 0.3238272 0.004431366 0.3098113 0.01059675 0.3148326 0 0.7728541 0.5994485 0.7728541 0.5994485 0.7815055 0.5994485 0.7815055 0.5994485 0.7901569 0.5994485 0.7901569 0.5994485</float_array>
          <technique_common>
            <accessor source="#Cube-mesh-map-0-array" count="495" stride="2">
              <param name="S" type="float"/>
              <param name="T" type="float"/>
            </accessor>
          </technique_common>
        </source>
        <vertices id="Cube-mesh-vertices">
          <input semantic="POSITION" source="#Cube-mesh-positions"/>
        </vertices>
        <triangles material="Material-material" count="108">
          <input semantic="VERTEX" source="#Cube-mesh-vertices" offset="0"/>
          <input semantic="NORMAL" source="#Cube-mesh-normals" offset="1"/>
          <input semantic="TEXCOORD" source="#Cube-mesh-map-0" offset="2" set="0"/>
          <p>33 8 24 56 8 25 55 8 26 46 9 27 30 9 28 49 9 29 12 11 33 59 11 34 13 11 35 23 12 36 33 12 37 25 12 38 13 14 42 58 14 43 30 14 44 50 15 45 12 15 46 47 15 47 49 16 48 20 16 49 48 16 50 34 17 51 55 17 52 54 17 53 21 18 54 32 18 55 23 18 56 21 19 57 22 19 58 20 19 59 35 20 60 52 20 61 12 20 62 50 21 63 34 21 64 35 21 65 23 22 66 24 22 67 22 22 68 40 23 69 63 23 70 39 23 71 49 24 72 31 24 73 21 24 74 25 25 75 26 25 76 24 25 77 47 26 78 13 26 79 46 26 80 30 27 81 57 27 82 31 27 83 27 28 84 51 28 85 26 28 86 34 29 87 87 29 88 79 29 89 25 30 90 34 30 91 27 30 92 20 32 96 24 32 97 51 32 98 32 33 99 57 33 100 56 33 101 16 34 102 44 34 103 14 34 104 15 35 105 46 35 106 17 35 107 18 36 108 45 36 109 16 36 110 19 37 111 46 37 112 49 37 113 19 38 114 48 38 115 18 38 116 28 39 117 50 39 118 29 39 119 28 40 120 44 40 121 51 40 122 29 41 123 47 41 124 15 41 125 36 42 126 53 42 127 37 42 128 37 43 129 78 43 130 77 43 131 38 44 132 55 44 133 39 44 134 40 45 135 55 45 136 56 45 137 40 46 138 57 46 139 41 46 140 42 47 141 57 47 142 58 47 143 42 48 144 59 48 145 43 48 146 36 49 147 59 49 148 52 49 149 38 51 153 61 51 154 37 51 155 42 52 156 67 52 157 66 52 158 41 53 159 64 53 160 40 53 161 39 54 162 62 54 163 38 54 164 36 55 165 61 55 166 60 55 167 43 56 168 60 56 169 67 56 170 42 57 171 65 57 172 41 57 173 79 66 198 87 66 199 54 66 200 77 69 207 78 69 208 53 69 209 33 79 237 32 79 238 56 79 239 46 80 240 13 80 241 30 80 242 12 82 246 52 82 247 59 82 248 23 83 249 32 83 250 33 83 251 13 85 255 59 85 256 58 85 257 50 86 258 35 86 259 12 86 260 49 87 261 21 87 262 20 87 263 34 88 264 33 88 265 55 88 266 21 89 267 31 89 268 32 89 269 21 90 270 23 90 271 22 90 272 35 91 273 53 91 274 52 91 275 50 92 276 27 92 277 34 92 278 23 93 279 25 93 280 24 93 281 40 94 282 64 94 283 63 94 284 49 95 285 30 95 286 31 95 287 25 96 288 27 96 289 26 96 290 47 97 291 12 97 292 13 97 293 30 98 294 58 98 295 57 98 296 27 99 297 50 99 298 51 99 299 53 100 300 35 100 301 83 100 302 35 101 303 34 101 304 79 101 305 83 102 306 35 102 307 79 102 308 34 103 309 54 103 310 87 103 311 25 104 312 33 104 313 34 104 314 51 106 318 44 106 319 45 106 320 45 107 321 48 107 322 20 107 323 20 108 324 22 108 325 24 108 326 24 109 327 26 109 328 51 109 329 51 110 330 45 110 331 20 110 332 32 111 333 31 111 334 57 111 335 16 112 336 45 112 337 44 112 338 15 113 339 47 113 340 46 113 341 18 114 342 48 114 343 45 114 344 19 115 345 17 115 346 46 115 347 19 116 348 49 116 349 48 116 350 28 117 351 51 117 352 50 117 353 28 118 354 14 118 355 44 118 356 29 119 357 50 119 358 47 119 359 36 120 360 52 120 361 53 120 362 54 121 363 38 121 364 86 121 365 38 122 366 37 122 367 77 122 368 86 123 369 38 123 370 77 123 371 38 124 372 54 124 373 55 124 374 40 125 375 39 125 376 55 125 377 40 126 378 56 126 379 57 126 380 42 127 381 41 127 382 57 127 383 42 128 384 58 128 385 59 128 386 36 129 387 43 129 388 59 129 389 38 132 396 62 132 397 61 132 398 42 133 399 43 133 400 67 133 401 41 134 402 65 134 403 64 134 404 39 135 405 63 135 406 62 135 407 36 136 408 37 136 409 61 136 410 43 137 411 36 137 412 60 137 413 42 138 414 66 138 415 65 138 416 54 153 459 53 153 460 79 153 461 53 154 462 83 154 463 79 154 464 53 160 480 54 160 481 77 160 482 54 161 483 86 161 484 77 161 485 78 162 486 37 162 487 53 162 488</p>
        </triangles>
        <triangles material="Material_001-material" count="6">
          <input semantic="VERTEX" source="#Cube-mesh-vertices" offset="0"/>
          <input semantic="NORMAL" source="#Cube-mesh-normals" offset="1"/>
          <input semantic="TEXCOORD" source="#Cube-mesh-map-0" offset="2" set="0"/>
          <p>15 10 30 16 10 31 14 10 32 17 13 39 18 13 40 16 13 41 29 31 93 14 31 94 28 31 95 15 81 243 17 81 244 16 81 245 17 84 252 19 84 253 18 84 254 29 105 315 15 105 316 14 105 317</p>
        </triangles>
        <triangles material="Material_002-material" count="28">
          <input semantic="VERTEX" source="#Cube-mesh-vertices" offset="0"/>
          <input semantic="NORMAL" source="#Cube-mesh-normals" offset="1"/>
          <input semantic="TEXCOORD" source="#Cube-mesh-map-0" offset="2" set="0"/>
          <p>71 50 150 70 50 151 85 50 152 73 58 174 74 58 175 70 58 176 80 59 177 69 59 178 68 59 179 60 60 180 75 60 181 67 60 182 66 61 183 73 61 184 65 61 185 63 62 186 72 62 187 71 62 188 62 63 189 85 63 190 76 63 191 67 64 192 74 64 193 66 64 194 64 65 195 73 65 196 72 65 197 76 70 210 70 70 211 69 70 212 85 130 390 62 130 391 63 130 392 63 131 393 71 131 394 85 131 395 74 139 417 75 139 418 70 139 419 75 140 420 68 140 421 70 140 422 68 141 423 69 141 424 70 141 425 70 142 426 71 142 427 72 142 428 72 143 429 73 143 430 70 143 431 68 144 432 60 144 433 80 144 434 60 145 435 61 145 436 80 145 437 60 146 438 68 146 439 75 146 440 66 147 441 74 147 442 73 147 443 63 148 444 64 148 445 72 148 446 80 149 447 61 149 448 76 149 449 61 150 450 62 150 451 76 150 452 67 151 453 75 151 454 74 151 455 64 152 456 65 152 457 73 152 458 69 163 489 80 163 490 76 163 491 76 164 492 85 164 493 70 164 494</p>
        </triangles>
        <triangles material="Material_003-material" count="23">
          <input semantic="VERTEX" source="#Cube-mesh-vertices" offset="0"/>
          <input semantic="NORMAL" source="#Cube-mesh-normals" offset="1"/>
          <input semantic="TEXCOORD" source="#Cube-mesh-map-0" offset="2" set="0"/>
          <p>5 0 0 6 0 1 9 0 2 87 1 3 7 1 4 8 1 5 8 2 6 1 2 7 5 2 8 9 3 9 0 3 10 2 3 11 0 4 12 10 4 13 3 4 14 6 5 15 4 5 16 10 5 17 1 6 18 11 6 19 4 6 20 7 7 21 83 7 22 11 7 23 86 67 201 84 67 202 85 67 203 78 68 204 76 68 205 80 68 206 5 71 213 1 71 214 6 71 215 87 72 216 79 72 217 7 72 218 8 73 219 7 73 220 1 73 221 9 74 222 6 74 223 0 74 224 0 75 225 6 75 226 10 75 227 6 76 228 1 76 229 4 76 230 1 77 231 7 77 232 11 77 233 7 78 234 79 78 235 83 78 236 76 155 465 77 155 466 85 155 467 77 156 468 86 156 469 85 156 470 81 157 471 82 157 472 80 157 473 82 158 474 78 158 475 80 158 476 78 159 477 77 159 478 76 159 479</p>
        </triangles>
      </mesh>
    </geometry>
  </library_geometries>
  <library_visual_scenes>
    <visual_scene id="Scene" name="Scene">
      <node id="Cube" name="Cube" type="NODE">
        <matrix sid="transform">1 0 0 0 0 1 0 0 0 0 1 0 0 0 0 1</matrix>
        <instance_geometry url="#Cube-mesh" name="Cube">
          <bind_material>
            <technique_common>
              <instance_material symbol="Material-material" target="#Material-material">
                <bind_vertex_input semantic="UVMap" input_semantic="TEXCOORD" input_set="0"/>
              </instance_material>
              <instance_material symbol="Material_001-material" target="#Material_001-material">
                <bind_vertex_input semantic="UVMap" input_semantic="TEXCOORD" input_set="0"/>
              </instance_material>
              <instance_material symbol="Material_002-material" target="#Material_002-material">
                <bind_vertex_input semantic="UVMap" input_semantic="TEXCOORD" input_set="0"/>
              </instance_material>
              <instance_material symbol="Material_003-material" target="#Material_003-material">
                <bind_vertex_input semantic="UVMap" input_semantic="TEXCOORD" input_set="0"/>
              </instance_material>
            </technique_common>
          </bind_material>
        </instance_geometry>
      </node>
    </visual_scene>
  </library_visual_scenes>
  <scene>
    <instance_visual_scene url="#Scene"/>
  </scene>
</COLLADA>